<svg width="45" height="33" viewBox="0 0 45 33" fill="none" xmlns="http://www.w3.org/2000/svg">
<path d="M43.333 3.78906C44.2535 3.78906 45 4.53558 45 5.45605V23.1221C45 24.0425 44.2535 24.7891 43.333 24.7891H18.9648C18.2076 21.4485 15.3983 18.9356 12 18.7812V5.45605C12 4.53558 12.7465 3.78906 13.667 3.78906H43.333ZM29.9873 16.7891C29.4424 16.7891 29.0002 17.162 29 17.6221C29 18.0823 29.4423 18.4561 29.9873 18.4561H40.5127C41.0577 18.4561 41.5 18.0823 41.5 17.6221C41.4998 17.162 41.0576 16.7891 40.5127 16.7891H29.9873ZM15.0742 6.60938C14.8328 6.60942 14.6013 6.7097 14.4307 6.8877C14.2601 7.06569 14.1641 7.30693 14.1641 7.55859V16.1025C14.1641 16.3542 14.2601 16.5954 14.4307 16.7734C14.6013 16.9514 14.8328 17.0517 15.0742 17.0518H25.0879C25.3293 17.0517 25.5608 16.9514 25.7314 16.7734C25.902 16.5954 25.998 16.3542 25.998 16.1025V7.55859C25.998 7.30693 25.902 7.06569 25.7314 6.8877C25.5608 6.7097 25.3293 6.60942 25.0879 6.60938H15.0742ZM25.0879 16.1025H24.251C23.8732 15.2019 23.2374 14.4449 22.4307 13.9365C21.797 14.5655 20.9559 14.917 20.0811 14.917C19.2063 14.917 18.3651 14.5655 17.7314 13.9365C16.9247 14.4449 16.2889 15.2019 15.9111 16.1025H15.0742V7.55859H25.0879V16.1025ZM20.0811 8.74219C18.6988 8.74242 17.5783 9.911 17.5781 11.3525C17.5781 12.7942 18.6987 13.9636 20.0811 13.9639C21.4636 13.9639 22.585 12.7943 22.585 11.3525C22.5848 9.91086 21.4635 8.74219 20.0811 8.74219ZM29.9873 11.7891C29.4424 11.7891 29.0002 12.162 29 12.6221C29 13.0823 29.4423 13.4561 29.9873 13.4561H40.5127C41.0577 13.4561 41.5 13.0823 41.5 12.6221C41.4998 12.162 41.0576 11.7891 40.5127 11.7891H29.9873ZM29.9873 6.78906C29.4424 6.78906 29.0002 7.16198 29 7.62207C29 8.08231 29.4423 8.45605 29.9873 8.45605H40.5127C41.0577 8.45605 41.5 8.08231 41.5 7.62207C41.4998 7.16198 41.0576 6.78906 40.5127 6.78906H29.9873Z" fill="#44226E"/>
<path d="M17.6667 26.8333C17.6667 28.3804 17.0521 29.8642 15.9581 30.9581C14.8642 32.0521 13.3804 32.6667 11.8333 32.6667C10.2862 32.6667 8.80251 32.0521 7.70854 30.9581C6.61458 29.8642 6 28.3804 6 26.8333C6 25.2862 6.61458 23.8025 7.70854 22.7085C8.80251 21.6146 10.2862 21 11.8333 21C13.3804 21 14.8642 21.6146 15.9581 22.7085C17.0521 23.8025 17.6667 25.2862 17.6667 26.8333ZM12.4815 24.2407C12.4815 24.0688 12.4132 23.904 12.2916 23.7824C12.1701 23.6609 12.0052 23.5926 11.8333 23.5926C11.6614 23.5926 11.4966 23.6609 11.375 23.7824C11.2535 23.904 11.1852 24.0688 11.1852 24.2407V26.1852H9.24074C9.06884 26.1852 8.90398 26.2535 8.78243 26.375C8.66088 26.4966 8.59259 26.6614 8.59259 26.8333C8.59259 27.0052 8.66088 27.1701 8.78243 27.2916C8.90398 27.4132 9.06884 27.4815 9.24074 27.4815H11.1852V29.4259C11.1852 29.5978 11.2535 29.7627 11.375 29.8842C11.4966 30.0058 11.6614 30.0741 11.8333 30.0741C12.0052 30.0741 12.1701 30.0058 12.2916 29.8842C12.4132 29.7627 12.4815 29.5978 12.4815 29.4259V27.4815H14.4259C14.5978 27.4815 14.7627 27.4132 14.8842 27.2916C15.0058 27.1701 15.0741 27.0052 15.0741 26.8333C15.0741 26.6614 15.0058 26.4966 14.8842 26.375C14.7627 26.2535 14.5978 26.1852 14.4259 26.1852H12.4815V24.2407Z" fill="#44226E"/>
</svg>
