<svg width="36" height="36" viewBox="0 0 36 36" fill="none" xmlns="http://www.w3.org/2000/svg">
<g clip-path="url(#clip0_70884_32883)">
<g clip-path="url(#clip1_70884_32883)">
<path d="M33.7189 14.9649C33.5191 15.2557 33.449 15.6059 33.3887 15.9696C33.3288 16.4087 33.2237 16.8405 33.0751 17.2582C32.8571 17.8469 32.4805 18.3644 31.9865 18.7535C31.3972 17.2112 30.544 15.7824 29.4648 14.5306C30.0665 14.3068 30.7173 14.2479 31.3495 14.36C31.7945 14.4438 32.2301 14.5712 32.6499 14.7403C33.0057 14.8718 33.3495 14.986 33.7114 14.9657L33.7189 14.9649Z" fill="#F8B517"/>
<path d="M27.126 8.56791C27.1042 8.91506 27.2263 9.25319 27.3582 9.59808C27.5315 10.0063 27.6626 10.431 27.7495 10.8657C27.8649 11.4813 27.8035 12.1168 27.5723 12.6991C26.2699 11.6456 24.7979 10.8197 23.2188 10.2563C23.6273 9.7669 24.1618 9.39754 24.7649 9.18782C25.1961 9.04491 25.6402 8.94424 26.091 8.88725C26.4679 8.82865 26.8267 8.75877 27.126 8.56641V8.56791Z" fill="#F8B517"/>
<path d="M32.6797 21.2695C33.3089 21.3671 33.9002 21.6316 34.3917 22.0352C34.7349 22.3243 35.0481 22.647 35.3265 22.9985C35.567 23.2848 35.809 23.553 36.1271 23.7086H32.8968C32.8954 22.8908 32.8227 22.0748 32.6797 21.2695Z" fill="#F8B517"/>
<path d="M9.12587 8.56641C9.42742 8.76027 9.7855 8.82865 10.1609 8.8865C10.6118 8.94315 11.0559 9.04382 11.487 9.18706C12.0903 9.39603 12.6249 9.76522 13.0331 10.2548C11.4539 10.8186 9.98175 11.6445 8.67883 12.6976C8.44723 12.1154 8.38632 11.4796 8.50318 10.8642C8.58936 10.4293 8.72048 10.0045 8.89444 9.59658C9.02636 9.25544 9.14849 8.91731 9.12587 8.56641Z" fill="#F8B517"/>
<path d="M2.53906 14.9661C2.89715 14.9879 3.24543 14.8692 3.60126 14.7407C4.02253 14.571 4.45965 14.4434 4.90619 14.3597C5.53843 14.2481 6.18913 14.307 6.79085 14.5303C5.71269 15.7826 4.86075 17.212 4.27295 18.7547C3.77869 18.366 3.40215 17.8484 3.18512 17.2594C3.03593 16.8421 2.93058 16.4105 2.87076 15.9715C2.81121 15.6071 2.73884 15.2577 2.54057 14.9669L2.53906 14.9661Z" fill="#F8B517"/>
<path d="M0.125 23.7086C0.446146 23.553 0.688136 23.2848 0.924849 22.9985C1.20306 22.6473 1.51598 22.3248 1.85889 22.036C2.34941 21.6316 2.94039 21.3668 3.5694 21.2695C3.42682 22.0748 3.35468 22.8909 3.3538 23.7086H0.125Z" fill="#F8B517"/>
<path d="M18.1289 6.23047C18.2887 6.5423 18.5647 6.77824 18.8602 7.00742C19.2206 7.27549 19.5527 7.57936 19.8515 7.91436C20.2675 8.38776 20.5418 8.96808 20.6431 9.58924C18.978 9.31197 17.2783 9.31197 15.6133 9.58924C15.7152 8.96812 15.9897 8.38789 16.4056 7.91436C16.7054 7.58168 17.0377 7.27963 17.3977 7.01268C17.6924 6.78275 17.9691 6.54681 18.1289 6.23798V6.23047Z" fill="#F8B517"/>
<path d="M15.1287 23.7159H16.2399C16.3854 22.8052 16.0997 22.1034 15.1506 22.2709C14.3507 22.4122 13.4921 23.1839 12.9727 23.7159L14.4374 23.7099C14.601 23.6062 14.9199 23.4845 15.0518 23.5754C15.0751 23.5908 15.0943 23.6117 15.1076 23.6362C15.121 23.6607 15.1283 23.688 15.1287 23.7159Z" fill="#D42837"/>
<path d="M20.1195 23.7042H21.5066C21.5722 22.1157 21.3061 20.4732 20.547 19.0538C19.8549 17.7613 18.7113 16.8837 17.23 16.6711C15.0679 16.3615 12.8854 17.2541 11.0415 18.5218C9.03245 19.9066 7.37395 21.7866 5.92578 23.7064H7.75692C9.40486 21.4372 13.1976 17.9958 15.9868 17.971C16.8757 17.9642 17.7795 18.1648 18.4482 18.7472C18.9322 19.1672 19.5187 19.9817 19.49 20.643C19.4727 21.0314 19.1131 21.1554 18.7709 21.0314C18.504 20.9338 18.3185 20.7001 18.1286 20.4484C17.8359 20.0506 17.4396 19.7404 16.9825 19.5514C16.5255 19.3624 16.0252 19.3017 15.536 19.3761C14.2974 19.5422 12.7626 20.4762 11.7727 21.3297C10.9255 22.0636 10.1317 22.8566 9.39732 23.7027H11.3664C12.0886 22.8573 12.8508 22.1368 13.83 21.5431C14.1746 21.3313 14.5411 21.1572 14.9231 21.0239C15.9348 20.6858 16.942 20.7715 17.389 21.9947C17.5654 22.4756 17.5888 22.8964 17.5398 23.6711V23.7019H18.8779V23.6629C18.8684 23.2869 18.8784 22.9107 18.9081 22.5357C18.942 22.1743 19.0588 21.7994 19.4079 21.7588C20.1436 21.6085 20.1082 23.1977 20.1225 23.7072L20.1195 23.7042Z" fill="#D42837"/>
<path d="M22.9682 23.706H24.3681C24.4352 22.2318 24.3048 20.4848 23.814 18.9587C23.7188 18.6615 23.6073 18.3698 23.48 18.0848C23.1776 17.4303 22.7817 16.8229 22.3048 16.2814C21.7662 15.6568 21.1341 15.119 20.4307 14.6869C20.2192 14.5582 20.0013 14.4403 19.7778 14.3338C19.5521 14.2268 19.3206 14.1324 19.0843 14.0513C16.3621 13.1135 13.6089 13.7808 11.2999 15.0003C10.8475 15.2377 10.4171 15.497 10.0002 15.7682C9.58331 16.0395 9.19959 16.325 8.82568 16.6158C8.28648 17.0401 7.77531 17.4987 7.29534 17.9886C7.18979 18.0983 7.0835 18.2103 6.98097 18.3237C6.70657 18.6243 6.28063 19.0496 6.40879 19.4884C6.5083 19.8363 6.96967 19.7341 7.13099 19.6139C7.39746 19.4634 7.64844 19.2873 7.88033 19.0879C8.19545 18.8294 8.49247 18.5514 8.80382 18.2892C9.96474 17.2957 11.266 16.4779 12.6659 15.8621C12.9478 15.7419 13.2295 15.6337 13.5109 15.5375C13.7914 15.4406 14.0688 15.3594 14.3455 15.2903C16.745 14.6839 19.3624 15.0769 21.036 16.981C22.647 18.8151 22.941 21.2692 22.9659 23.7083L22.9682 23.706ZM5.6293 21.6321C5.79581 21.4737 5.95027 21.3032 6.09141 21.1219C6.31757 20.8477 6.33793 20.5817 6.24973 20.3893C6.21697 20.319 6.1688 20.2568 6.10875 20.2075C6.05021 20.1603 5.98162 20.1272 5.90823 20.1106C5.72654 20.07 5.50868 20.1331 5.32474 20.351C5.11516 20.5982 4.82417 21.019 4.76838 21.3932C4.75713 21.4595 4.75485 21.527 4.7616 21.5938C4.76772 21.655 4.78564 21.7145 4.81437 21.7689C4.8365 21.811 4.86995 21.846 4.91096 21.8702C4.95197 21.8943 4.99893 21.9066 5.04656 21.9057C5.07013 21.9079 5.09386 21.9079 5.11742 21.9057C5.1444 21.9034 5.17113 21.8989 5.19733 21.8921C5.361 21.8431 5.50959 21.7537 5.6293 21.6321Z" fill="#D42837"/>
<path d="M26.4597 23.7086H26.4748C26.5845 23.7107 26.6927 23.684 26.7888 23.6312C26.8848 23.5785 26.9653 23.5015 27.0221 23.4081C27.054 23.3568 27.0793 23.3018 27.0975 23.2443C27.1179 23.1737 27.1306 23.1012 27.1352 23.0279V23.0113C27.246 19.2431 26.0572 16.1225 24.0353 14.0028C23.2599 13.1834 22.3445 12.5079 21.332 12.0078H21.3237C19.6158 11.1778 17.7133 10.8271 15.8205 10.9934C15.0845 11.0539 14.3562 11.1866 13.6463 11.3894C11.7006 11.95 9.89359 13.0568 8.41753 14.5107C8.13332 14.7963 7.85967 15.0968 7.59959 15.3974C7.47043 15.5477 7.34478 15.7032 7.22266 15.864C8.23845 15.0042 9.3451 14.2572 10.5231 13.6361C10.7839 13.4998 11.0463 13.3726 11.3101 13.2544C11.574 13.1362 11.8411 13.0255 12.1115 12.9223C13.0901 12.5467 14.1128 12.297 15.1548 12.1791C16.1691 12.0703 17.1935 12.0956 18.2012 12.2543C18.9153 12.36 19.615 12.5471 20.2864 12.8118C20.4115 12.8619 20.5339 12.9155 20.6535 12.9726C20.7734 13.0297 20.8879 13.0876 21.0025 13.1507C23.2641 14.3529 24.8337 16.8175 25.5257 19.6022C25.7977 20.6962 25.9321 21.8197 25.926 22.9467V22.9783C25.9373 23.2788 26.0436 23.5328 26.2276 23.6463C26.2612 23.6679 26.2981 23.6841 26.3369 23.6944C26.3783 23.706 26.4212 23.7113 26.4643 23.7101L26.4597 23.7086Z" fill="#D42837"/>
<path d="M22.4171 11.1445C28.0009 12.9381 31.7801 17.9951 31.8042 23.7057H29.1144C29.2931 18.5909 26.9938 13.9736 22.4141 11.1445H22.4171Z" fill="#F8B517"/>
<path d="M6.63796 27.8167H5.55014L5.28101 28.7371H4.41406L5.56144 25.2123H6.66133L7.84113 28.7371H6.93649L6.63796 27.8167ZM5.67452 27.2201H6.5083C6.29068 26.5318 6.1487 26.0596 6.08236 25.8037H6.07181L5.89917 26.4724L5.67301 27.2201H5.67452ZM10.6334 27.8167H9.55014L9.28025 28.7371H8.41331L9.55993 25.2123H10.6606L11.8396 28.7371H10.9357L10.6334 27.8167ZM9.66925 27.2201H10.5045C10.2859 26.5318 10.1442 26.0596 10.0793 25.8037H10.0688L9.89691 26.4724L9.67075 27.2201H9.66925ZM12.6636 28.7229V25.2596C13.0457 25.2065 13.4312 25.1814 13.817 25.1845C14.5915 25.1845 15.1468 25.3418 15.483 25.6564C15.8193 25.971 15.9859 26.382 15.9829 26.8894C15.9829 27.4906 15.7916 27.9549 15.4092 28.2825C15.0267 28.6101 14.4352 28.774 13.6346 28.774C13.3101 28.776 12.9859 28.7584 12.6636 28.7214V28.7229ZM13.4989 25.836V28.1315C13.5988 28.1451 13.6996 28.1504 13.8004 28.1473C14.2143 28.1473 14.5362 28.0413 14.7631 27.8294C14.99 27.6175 15.1031 27.314 15.1031 26.9187C15.1031 26.5566 15.0036 26.2801 14.7925 26.0922C14.5814 25.9044 14.2867 25.8082 13.8924 25.8082C13.7583 25.806 13.6243 25.8163 13.4921 25.839L13.4989 25.836ZM16.8807 25.2138H17.716V26.5731H19.143V25.2123H19.9776V28.7371H19.143V27.2712H17.716V28.7401H16.8807V25.2138ZM23.0043 27.8182H21.9135L21.6444 28.7386H20.7827L21.9286 25.2123H23.0285L24.2083 28.7371H23.3089L23.0074 27.8167L23.0043 27.8182ZM22.0401 27.2216H22.8747C22.6561 26.5333 22.5143 26.0611 22.4495 25.8052H22.4412L22.2693 26.4739L22.0432 27.2216H22.0401ZM26.9998 27.8182H25.909L25.6398 28.7386H24.7782L25.9248 25.2138H27.0254L28.2045 28.7386H27.3021L27.0006 27.8182H26.9998ZM26.0356 27.2216H26.8709C26.6518 26.5333 26.5101 26.0611 26.4457 25.8052H26.4367L26.2648 26.4739L26.0386 27.2216H26.0356ZM29.0292 28.7386V25.2596C29.4016 25.2035 29.7781 25.1783 30.1547 25.1845C30.7046 25.1845 31.0996 25.2724 31.3398 25.4483C31.458 25.5345 31.5527 25.6487 31.6156 25.7805C31.6785 25.9123 31.7076 26.0576 31.7002 26.2034C31.7016 26.3953 31.6378 26.582 31.5192 26.7331C31.3996 26.8889 31.2357 27.0052 31.0488 27.0668V27.0871C31.275 27.1697 31.4383 27.3859 31.5388 27.7355C31.7238 28.3667 31.8243 28.7016 31.8404 28.7401H30.9893C30.8745 28.4751 30.7888 28.1985 30.7337 27.9151C30.7083 27.7535 30.6392 27.6018 30.5339 27.4763C30.4175 27.3827 30.269 27.338 30.1201 27.3516H29.8607V28.7371L29.0292 28.7386ZM29.8532 25.8082V26.779H30.1977C30.3728 26.7889 30.5462 26.7405 30.6907 26.6415C30.7486 26.5992 30.7952 26.5435 30.8266 26.4792C30.858 26.4149 30.8732 26.344 30.8709 26.2725C30.8747 26.2039 30.862 26.1353 30.8338 26.0726C30.8056 26.0098 30.7628 25.9547 30.7088 25.9119C30.5729 25.8196 30.41 25.7752 30.246 25.7856C30.1145 25.7805 29.9828 25.7893 29.8532 25.8119V25.8082Z" fill="#D42837"/>
</g>
</g>
<defs>
<clipPath id="clip0_70884_32883">
<rect width="36" height="36" fill="white"/>
</clipPath>
<clipPath id="clip1_70884_32883">
<rect width="36" height="22.5421" fill="white" transform="translate(0.125 6.23047)"/>
</clipPath>
</defs>
</svg>
