<svg width="45" height="33" viewBox="0 0 45 33" fill="none" xmlns="http://www.w3.org/2000/svg">
<path d="M43.333 4.82031C44.2535 4.82031 45 5.56683 45 6.4873V23.1533C45 24.0738 44.2535 24.8203 43.333 24.8203H18.7363C17.7389 21.9139 15.1167 19.8046 12 19.6641V6.4873C12 5.56683 12.7465 4.82031 13.667 4.82031H43.333ZM30.9473 17.8203C30.4241 17.8204 30 18.2681 30 18.8203C30 19.3726 30.4241 19.8203 30.9473 19.8203H41.0527C41.5759 19.8203 42 19.3726 42 18.8203C42 18.2681 41.5759 17.8204 41.0527 17.8203H30.9473ZM15.9473 13C15.4241 13.0001 15 13.4478 15 14C15 14.5522 15.4241 14.9999 15.9473 15H26.0527C26.5759 14.9999 27 14.5522 27 14C27 13.4478 26.5759 13.0001 26.0527 13H15.9473ZM30.9473 12.8203C30.4241 12.8204 30 13.2681 30 13.8203C30 14.3726 30.4241 14.8203 30.9473 14.8203H41.0527C41.5759 14.8203 42 14.3726 42 13.8203C42 13.2681 41.5759 12.8204 41.0527 12.8203H30.9473ZM15.9473 7.82031C15.4241 7.82037 15 8.26806 15 8.82031C15 9.37256 15.4241 9.82025 15.9473 9.82031H26.0527C26.5759 9.82025 27 9.37256 27 8.82031C27 8.26806 26.5759 7.82037 26.0527 7.82031H15.9473ZM30.9473 7.82031C30.4241 7.82037 30 8.26806 30 8.82031C30 9.37256 30.4241 9.82025 30.9473 9.82031H41.0527C41.5759 9.82025 42 9.37256 42 8.82031C42 8.26806 41.5759 7.82037 41.0527 7.82031H30.9473Z" fill="#44226E"/>
<path d="M17.4987 26.6693C17.4987 28.2164 16.8841 29.7001 15.7902 30.7941C14.6962 31.888 13.2125 32.5026 11.6654 32.5026C10.1183 32.5026 8.63454 31.888 7.54058 30.7941C6.44661 29.7001 5.83203 28.2164 5.83203 26.6693C5.83203 25.1222 6.44661 23.6384 7.54058 22.5445C8.63454 21.4505 10.1183 20.8359 11.6654 20.8359C13.2125 20.8359 14.6962 21.4505 15.7902 22.5445C16.8841 23.6384 17.4987 25.1222 17.4987 26.6693ZM12.3135 24.0767C12.3135 23.9048 12.2452 23.7399 12.1237 23.6184C12.0021 23.4968 11.8373 23.4285 11.6654 23.4285C11.4935 23.4285 11.3286 23.4968 11.2071 23.6184C11.0855 23.7399 11.0172 23.9048 11.0172 24.0767V26.0211H9.07277C8.90087 26.0211 8.73601 26.0894 8.61446 26.211C8.49291 26.3325 8.42462 26.4974 8.42462 26.6693C8.42462 26.8412 8.49291 27.006 8.61446 27.1276C8.73601 27.2491 8.90087 27.3174 9.07277 27.3174H11.0172V29.2619C11.0172 29.4338 11.0855 29.5986 11.2071 29.7202C11.3286 29.8417 11.4935 29.91 11.6654 29.91C11.8373 29.91 12.0021 29.8417 12.1237 29.7202C12.2452 29.5986 12.3135 29.4338 12.3135 29.2619V27.3174H14.258C14.4299 27.3174 14.5947 27.2491 14.7163 27.1276C14.8378 27.006 14.9061 26.8412 14.9061 26.6693C14.9061 26.4974 14.8378 26.3325 14.7163 26.211C14.5947 26.0894 14.4299 26.0211 14.258 26.0211H12.3135V24.0767Z" fill="#44226E"/>
</svg>
