<svg width="146" height="136" viewBox="0 0 146 136" fill="none" xmlns="http://www.w3.org/2000/svg">
<ellipse cx="5" cy="4.7644" rx="5" ry="4.7644" fill="url(#paint0_linear_96_3293)"/>
<ellipse cx="39" cy="4.7644" rx="5" ry="4.7644" fill="url(#paint1_linear_96_3293)"/>
<ellipse cx="73" cy="4.7644" rx="5" ry="4.7644" fill="url(#paint2_linear_96_3293)"/>
<ellipse cx="107" cy="4.7644" rx="5" ry="4.7644" fill="url(#paint3_linear_96_3293)"/>
<ellipse cx="141" cy="4.7644" rx="5" ry="4.7644" fill="url(#paint4_linear_96_3293)"/>
<ellipse cx="5" cy="36.2932" rx="5" ry="4.7644" fill="url(#paint5_linear_96_3293)"/>
<ellipse cx="39" cy="36.2932" rx="5" ry="4.7644" fill="url(#paint6_linear_96_3293)"/>
<ellipse cx="73" cy="36.2932" rx="5" ry="4.7644" fill="url(#paint7_linear_96_3293)"/>
<ellipse cx="107" cy="36.2932" rx="5" ry="4.7644" fill="url(#paint8_linear_96_3293)"/>
<ellipse cx="141" cy="36.2932" rx="5" ry="4.7644" fill="url(#paint9_linear_96_3293)"/>
<ellipse cx="5" cy="67.822" rx="5" ry="4.7644" fill="url(#paint10_linear_96_3293)"/>
<ellipse cx="39" cy="67.822" rx="5" ry="4.7644" fill="url(#paint11_linear_96_3293)"/>
<ellipse cx="73" cy="67.822" rx="5" ry="4.7644" fill="url(#paint12_linear_96_3293)"/>
<ellipse cx="107" cy="67.822" rx="5" ry="4.7644" fill="url(#paint13_linear_96_3293)"/>
<ellipse cx="141" cy="67.822" rx="5" ry="4.7644" fill="url(#paint14_linear_96_3293)"/>
<ellipse cx="5" cy="99.3508" rx="5" ry="4.7644" fill="url(#paint15_linear_96_3293)"/>
<ellipse cx="39" cy="99.3508" rx="5" ry="4.7644" fill="url(#paint16_linear_96_3293)"/>
<ellipse cx="73" cy="99.3508" rx="5" ry="4.7644" fill="url(#paint17_linear_96_3293)"/>
<ellipse cx="107" cy="99.3508" rx="5" ry="4.7644" fill="url(#paint18_linear_96_3293)"/>
<ellipse cx="141" cy="99.3508" rx="5" ry="4.7644" fill="url(#paint19_linear_96_3293)"/>
<ellipse cx="5" cy="130.88" rx="5" ry="4.7644" fill="url(#paint20_linear_96_3293)"/>
<ellipse cx="39" cy="130.88" rx="5" ry="4.7644" fill="url(#paint21_linear_96_3293)"/>
<ellipse cx="73" cy="130.88" rx="5" ry="4.7644" fill="url(#paint22_linear_96_3293)"/>
<ellipse cx="107" cy="130.88" rx="5" ry="4.7644" fill="url(#paint23_linear_96_3293)"/>
<ellipse cx="141" cy="130.88" rx="5" ry="4.7644" fill="url(#paint24_linear_96_3293)"/>
<defs>
<linearGradient id="paint0_linear_96_3293" x1="-0.650685" y1="0.526864" x2="9.68663" y2="8.63092" gradientUnits="userSpaceOnUse">
<stop stop-color="#F64A2D"/>
<stop offset="1" stop-color="#FFC637"/>
</linearGradient>
<linearGradient id="paint1_linear_96_3293" x1="33.3493" y1="0.526864" x2="43.6866" y2="8.63092" gradientUnits="userSpaceOnUse">
<stop stop-color="#F64A2D"/>
<stop offset="1" stop-color="#FFC637"/>
</linearGradient>
<linearGradient id="paint2_linear_96_3293" x1="67.3493" y1="0.526864" x2="77.6866" y2="8.63092" gradientUnits="userSpaceOnUse">
<stop stop-color="#F64A2D"/>
<stop offset="1" stop-color="#FFC637"/>
</linearGradient>
<linearGradient id="paint3_linear_96_3293" x1="101.349" y1="0.526864" x2="111.687" y2="8.63092" gradientUnits="userSpaceOnUse">
<stop stop-color="#F64A2D"/>
<stop offset="1" stop-color="#FFC637"/>
</linearGradient>
<linearGradient id="paint4_linear_96_3293" x1="135.349" y1="0.526864" x2="145.687" y2="8.63092" gradientUnits="userSpaceOnUse">
<stop stop-color="#F64A2D"/>
<stop offset="1" stop-color="#FFC637"/>
</linearGradient>
<linearGradient id="paint5_linear_96_3293" x1="-0.650685" y1="32.0557" x2="9.68663" y2="40.1597" gradientUnits="userSpaceOnUse">
<stop stop-color="#F64A2D"/>
<stop offset="1" stop-color="#FFC637"/>
</linearGradient>
<linearGradient id="paint6_linear_96_3293" x1="33.3493" y1="32.0557" x2="43.6866" y2="40.1597" gradientUnits="userSpaceOnUse">
<stop stop-color="#F64A2D"/>
<stop offset="1" stop-color="#FFC637"/>
</linearGradient>
<linearGradient id="paint7_linear_96_3293" x1="67.3493" y1="32.0557" x2="77.6866" y2="40.1597" gradientUnits="userSpaceOnUse">
<stop stop-color="#F64A2D"/>
<stop offset="1" stop-color="#FFC637"/>
</linearGradient>
<linearGradient id="paint8_linear_96_3293" x1="101.349" y1="32.0557" x2="111.687" y2="40.1597" gradientUnits="userSpaceOnUse">
<stop stop-color="#F64A2D"/>
<stop offset="1" stop-color="#FFC637"/>
</linearGradient>
<linearGradient id="paint9_linear_96_3293" x1="135.349" y1="32.0557" x2="145.687" y2="40.1597" gradientUnits="userSpaceOnUse">
<stop stop-color="#F64A2D"/>
<stop offset="1" stop-color="#FFC637"/>
</linearGradient>
<linearGradient id="paint10_linear_96_3293" x1="-0.650685" y1="63.5845" x2="9.68663" y2="71.6885" gradientUnits="userSpaceOnUse">
<stop stop-color="#F64A2D"/>
<stop offset="1" stop-color="#FFC637"/>
</linearGradient>
<linearGradient id="paint11_linear_96_3293" x1="33.3493" y1="63.5845" x2="43.6866" y2="71.6885" gradientUnits="userSpaceOnUse">
<stop stop-color="#F64A2D"/>
<stop offset="1" stop-color="#FFC637"/>
</linearGradient>
<linearGradient id="paint12_linear_96_3293" x1="67.3493" y1="63.5845" x2="77.6866" y2="71.6885" gradientUnits="userSpaceOnUse">
<stop stop-color="#F64A2D"/>
<stop offset="1" stop-color="#FFC637"/>
</linearGradient>
<linearGradient id="paint13_linear_96_3293" x1="101.349" y1="63.5845" x2="111.687" y2="71.6885" gradientUnits="userSpaceOnUse">
<stop stop-color="#F64A2D"/>
<stop offset="1" stop-color="#FFC637"/>
</linearGradient>
<linearGradient id="paint14_linear_96_3293" x1="135.349" y1="63.5845" x2="145.687" y2="71.6885" gradientUnits="userSpaceOnUse">
<stop stop-color="#F64A2D"/>
<stop offset="1" stop-color="#FFC637"/>
</linearGradient>
<linearGradient id="paint15_linear_96_3293" x1="-0.650685" y1="95.1133" x2="9.68663" y2="103.217" gradientUnits="userSpaceOnUse">
<stop stop-color="#F64A2D"/>
<stop offset="1" stop-color="#FFC637"/>
</linearGradient>
<linearGradient id="paint16_linear_96_3293" x1="33.3493" y1="95.1133" x2="43.6866" y2="103.217" gradientUnits="userSpaceOnUse">
<stop stop-color="#F64A2D"/>
<stop offset="1" stop-color="#FFC637"/>
</linearGradient>
<linearGradient id="paint17_linear_96_3293" x1="67.3493" y1="95.1133" x2="77.6866" y2="103.217" gradientUnits="userSpaceOnUse">
<stop stop-color="#F64A2D"/>
<stop offset="1" stop-color="#FFC637"/>
</linearGradient>
<linearGradient id="paint18_linear_96_3293" x1="101.349" y1="95.1133" x2="111.687" y2="103.217" gradientUnits="userSpaceOnUse">
<stop stop-color="#F64A2D"/>
<stop offset="1" stop-color="#FFC637"/>
</linearGradient>
<linearGradient id="paint19_linear_96_3293" x1="135.349" y1="95.1133" x2="145.687" y2="103.217" gradientUnits="userSpaceOnUse">
<stop stop-color="#F64A2D"/>
<stop offset="1" stop-color="#FFC637"/>
</linearGradient>
<linearGradient id="paint20_linear_96_3293" x1="-0.650685" y1="126.642" x2="9.68663" y2="134.746" gradientUnits="userSpaceOnUse">
<stop stop-color="#F64A2D"/>
<stop offset="1" stop-color="#FFC637"/>
</linearGradient>
<linearGradient id="paint21_linear_96_3293" x1="33.3493" y1="126.642" x2="43.6866" y2="134.746" gradientUnits="userSpaceOnUse">
<stop stop-color="#F64A2D"/>
<stop offset="1" stop-color="#FFC637"/>
</linearGradient>
<linearGradient id="paint22_linear_96_3293" x1="67.3493" y1="126.642" x2="77.6866" y2="134.746" gradientUnits="userSpaceOnUse">
<stop stop-color="#F64A2D"/>
<stop offset="1" stop-color="#FFC637"/>
</linearGradient>
<linearGradient id="paint23_linear_96_3293" x1="101.349" y1="126.642" x2="111.687" y2="134.746" gradientUnits="userSpaceOnUse">
<stop stop-color="#F64A2D"/>
<stop offset="1" stop-color="#FFC637"/>
</linearGradient>
<linearGradient id="paint24_linear_96_3293" x1="135.349" y1="126.642" x2="145.687" y2="134.746" gradientUnits="userSpaceOnUse">
<stop stop-color="#F64A2D"/>
<stop offset="1" stop-color="#FFC637"/>
</linearGradient>
</defs>
</svg>
