<svg width="24" height="24" viewBox="0 0 24 24" fill="none" xmlns="http://www.w3.org/2000/svg">
<g clip-path="url(#clip0_70506_10588)">
<path d="M17.1662 7.19531V9.74532C17.1662 9.94137 17.0783 10.1104 16.8998 10.2275C14.6701 11.6906 12.982 12.305 12.3912 12.4761C11.5769 12.7124 11.1452 12.6874 11.0746 12.6826C9.58716 12.5752 7.08203 10.5247 7.08203 10.5247C7.08203 10.5247 9.1264 11.0248 13.8495 8.77339C14.7351 8.35151 15.7237 7.89568 16.8728 7.36226C16.8728 7.36226 17.124 7.2535 17.1662 7.19601V7.19531Z" fill="url(#paint0_linear_70506_10588)"/>
<path d="M17.0479 7.1093C17.061 7.09822 17.0776 7.08367 17.0852 7.07397C17.0956 7.06081 17.1046 7.04765 17.1101 7.03172C17.1254 6.98877 17.1205 6.93542 17.0963 6.89594C17.0527 6.82389 16.9794 6.77609 16.8991 6.72344C14.6701 5.26105 12.982 4.64589 12.3912 4.47478C11.5769 4.23925 11.1452 4.26349 11.0746 4.26903C9.58785 4.37641 7.08203 6.42695 7.08203 6.42695C7.08203 6.42695 9.1264 5.92678 13.8495 8.17822C14.0017 8.25095 14.1567 8.32439 14.3151 8.39851L16.8957 7.20005C16.8957 7.20005 17.0257 7.12662 17.0486 7.10861L17.0479 7.1093Z" fill="url(#paint1_linear_70506_10588)"/>
<path d="M9.47694 8.47472C9.47971 7.93091 9.54751 7.38641 9.67273 6.84814L9.68934 6.78095C8.75951 6.56204 8.07321 6.51562 7.66157 6.51562C7.32188 6.51562 7.14132 6.5468 7.07974 6.55996C6.96905 6.58421 6.89087 6.67288 6.83483 6.747C6.50275 7.18828 6.3125 7.81799 6.3125 8.47472C6.3125 9.13075 6.50275 9.76115 6.83553 10.2024C6.89156 10.2766 6.96974 10.3645 7.08043 10.3895C7.14201 10.4026 7.32258 10.4338 7.66227 10.4338C8.07391 10.4338 8.75951 10.3874 9.69003 10.1685L9.67342 10.1013C9.5482 9.56303 9.4804 9.01853 9.47763 8.47472H9.47694Z" fill="url(#paint2_linear_70506_10588)"/>
<path d="M2.60712 13.6055H4.16442L6.64654 19.4772H4.91397L4.48932 18.436H2.24065L1.82431 19.4772H0.125L2.60712 13.6055ZM4.0231 17.178L3.3733 15.5202L2.71519 17.178H4.0231Z" fill="#2C2067"/>
<path d="M6.26172 16.5793V16.5627C6.26172 14.8634 7.56963 13.5312 9.33475 13.5312C10.5256 13.5312 11.2918 14.0307 11.8086 14.747L10.5928 15.6885C10.2596 15.2721 9.87648 15.0054 9.31813 15.0054C8.50207 15.0054 7.92709 15.6968 7.92709 16.5461V16.5627C7.92709 17.437 8.50207 18.12 9.31813 18.12C9.92636 18.12 10.2845 17.8367 10.6343 17.412L11.8501 18.278C11.3001 19.0358 10.5588 19.5942 9.26825 19.5942C7.60219 19.5942 6.26172 18.3195 6.26172 16.5793Z" fill="#2C2067"/>
<path d="M12.3594 13.6484H13.9749V16.0142L15.9824 13.6484H17.8979L15.6908 16.1555L17.9727 19.4786H16.0323L14.5665 17.3131L13.9749 17.9712V19.4786H12.3594V13.6484Z" fill="#2C2067"/>
<path d="M17.4922 16.5793V16.5627C17.4922 14.8883 18.8417 13.5312 20.6407 13.5312C22.4398 13.5312 23.7726 14.8724 23.7726 16.5461V16.5627C23.7726 18.2371 22.4232 19.5942 20.6241 19.5942C18.825 19.5942 17.4922 18.253 17.4922 16.5793ZM22.1232 16.5793V16.5627C22.1232 15.7217 21.515 14.9888 20.6241 14.9888C19.7332 14.9888 19.1499 15.7051 19.1499 16.5461V16.5627C19.1499 17.4037 19.7582 18.1366 20.6407 18.1366C21.5233 18.1366 22.1232 17.4203 22.1232 16.5793Z" fill="#2C2067"/>
</g>
<defs>
<linearGradient id="paint0_linear_70506_10588" x1="12.3192" y1="9.37747" x2="13.4467" y2="12.3539" gradientUnits="userSpaceOnUse">
<stop stop-color="#B99AFF"/>
<stop offset="1" stop-color="#5427FF"/>
</linearGradient>
<linearGradient id="paint1_linear_70506_10588" x1="11.1811" y1="4.81908" x2="13.2098" y2="8.92079" gradientUnits="userSpaceOnUse">
<stop stop-color="#B99AFF"/>
<stop offset="1" stop-color="#5427FF"/>
</linearGradient>
<linearGradient id="paint2_linear_70506_10588" x1="6.26407" y1="8.46502" x2="9.9377" y2="8.48989" gradientUnits="userSpaceOnUse">
<stop stop-color="#A890FF"/>
<stop offset="1" stop-color="#431DFF"/>
</linearGradient>
<clipPath id="clip0_70506_10588">
<rect width="23.5789" height="16" fill="white" transform="translate(0 4.26953)"/>
</clipPath>
</defs>
</svg>
