<svg width="127" height="142" viewBox="0 0 127 142" fill="none" xmlns="http://www.w3.org/2000/svg">
<path d="M61.6722 67.2589C61.6722 67.2589 64.1843 66.9432 66.1541 68.2073C67.6159 69.1455 68.4104 71.3359 68.4211 71.4594L70.7324 69.9619C70.7324 69.9619 68.7878 66.8409 66.1439 66.0802C65.3338 65.8468 63.7663 65.9669 62.9474 66.2377C62.0449 66.5361 61.6722 67.2589 61.6722 67.2589Z" fill="#6A9FF8"/>
<path d="M59.4736 71.713L55.7408 71.4132C55.7408 71.4132 59.416 65.2503 65.7078 65.9996C65.7078 65.9996 60.1348 68.661 59.4736 71.713Z" fill="#B5CFFB"/>
<path d="M81.3534 73.9021C81.3534 73.9021 85.9728 72.5066 88.6088 74.2081C88.6088 74.2081 91.0453 71.0787 90.6323 69.5942C90.6323 69.5942 85.5402 67.6171 83.4045 68.6048C83.4045 68.6048 79.9994 72.032 81.3534 73.9021Z" fill="#00AA6D"/>
<path d="M36.7508 20.111C36.7508 20.111 38.275 15.5565 41.1925 14.4137C41.1925 14.4137 40.0343 10.6162 38.5788 10.0851C38.5788 10.0851 34.0167 13.0564 33.5928 15.3619C33.5928 15.3619 34.4356 20.1174 36.7508 20.111Z" fill="#00AA6D"/>
<path d="M58.993 26.0758C58.993 26.0758 60.5172 21.5213 63.4346 20.3785C63.4346 20.3785 62.2765 16.581 60.821 16.05C60.821 16.05 56.2589 19.0212 55.835 21.3267C55.835 21.3267 56.6778 26.0822 58.993 26.0758Z" fill="#00AA6D"/>
<path d="M57.8112 113.159C57.8112 113.159 59.4183 115.48 59.1667 118.072C58.9799 119.996 57.1979 121.899 57.0799 121.973L59.7655 123.492C59.7655 123.492 61.887 119.976 61.2887 116.975C61.1056 116.056 60.1797 114.568 59.488 113.897C58.7256 113.158 57.8112 113.159 57.8112 113.159Z" fill="#6A9FF8"/>
<path d="M52.185 113.232L50.5639 109.383C50.5639 109.383 58.6181 109.871 61.1067 116.483C61.1067 116.483 55.5773 112.326 52.185 113.232Z" fill="#B5CFFB"/>
<path d="M83.4623 133.77C83.4623 133.77 90.1431 130.566 86.8824 123.468L91.2303 120.168C91.2303 120.168 93.4307 124.262 87.1405 131.869C83.0242 136.846 83.4623 133.77 83.4623 133.77Z" fill="#F6462D"/>
<path d="M76.894 136.937C76.894 136.937 83.6883 138.883 89.8245 128.008C89.8245 128.008 87.1378 131.864 80.0326 132.038L76.894 136.937Z" fill="#FFAE99"/>
<path d="M35.2176 59.8987C35.2176 59.8987 29.0597 65.3026 34.6283 71.8391L30.9783 76.6415C30.9783 76.6415 27.4274 72.9667 31.8678 63.0174C34.7727 56.5074 35.2176 59.8987 35.2176 59.8987Z" fill="#F6462D"/>
<path d="M41.2668 54.5641C41.2668 54.5641 33.4712 54.5456 30.165 67.9025C30.165 67.9025 31.8811 63.0138 39.3792 60.693L41.2668 54.5641Z" fill="#FA9A9A"/>
<path d="M28.4407 92.3811C28.4407 92.3811 32.6201 98.5485 39.1714 94.3284L43.0959 98.1726C43.0959 98.1726 39.365 100.923 30.8773 95.7576C25.324 92.377 28.4407 92.3811 28.4407 92.3811Z" fill="#55268E"/>
<path d="M24.2988 86.3474C24.2988 86.3474 23.3899 93.3308 35.0745 97.878C35.0745 97.878 30.8555 95.7608 29.6185 88.7657L24.2988 86.3474Z" fill="#D4B8F5"/>
<path d="M86.2636 23.0208C86.2636 23.0208 88.6236 26.5034 92.323 24.1204L94.5391 26.2911C94.5391 26.2911 92.4323 27.8443 87.6394 24.9274C84.5036 23.0184 86.2636 23.0208 86.2636 23.0208Z" fill="#55268E"/>
<path d="M83.9272 19.6131C83.9272 19.6131 83.4139 23.5565 90.012 26.1242C90.012 26.1242 87.6296 24.9287 86.9311 20.9786L83.9272 19.6131Z" fill="#D4B8F5"/>
</svg>
