<svg width="31" height="31" viewBox="0 0 31 31" fill="none" xmlns="http://www.w3.org/2000/svg">
<g filter="url(#filter0_d_70506_7790)">
<circle cx="15.5" cy="15" r="13.5" fill="url(#paint0_linear_70506_7790)"/>
<circle cx="15.5" cy="15" r="13" stroke="#44226E"/>
</g>
<g clip-path="url(#clip0_70506_7790)">
<path d="M17.25 9.3125C18.1961 9.56163 19.0591 10.0574 19.7508 10.7492C20.4426 11.4409 20.9384 12.3039 21.1875 13.25" stroke="url(#paint1_linear_70506_7790)" stroke-width="1.125" stroke-linecap="round" stroke-linejoin="round"/>
<path d="M16.6875 11.5625C17.8491 11.8733 18.6267 12.6509 18.9375 13.8125" stroke="url(#paint2_linear_70506_7790)" stroke-width="1.125" stroke-linecap="round" stroke-linejoin="round"/>
<path d="M17.5587 16.7189C17.6366 16.6671 17.7262 16.6355 17.8194 16.627C17.9125 16.6186 18.0064 16.6335 18.0923 16.6704L21.4083 18.1561C21.52 18.2039 21.6133 18.2865 21.6741 18.3917C21.735 18.497 21.7601 18.619 21.7458 18.7397C21.6365 19.5561 21.2345 20.305 20.6145 20.8471C19.9945 21.3893 19.1986 21.6878 18.375 21.6872C15.8389 21.6872 13.4066 20.6797 11.6133 18.8864C9.81998 17.0931 8.8125 14.6608 8.8125 12.1247C8.81187 11.3011 9.1104 10.5052 9.65257 9.88521C10.1947 9.26518 10.9436 8.86317 11.76 8.75393C11.8807 8.73959 12.0028 8.76472 12.108 8.82556C12.2132 8.8864 12.2958 8.97968 12.3436 9.09143L13.8293 12.4102C13.8658 12.4954 13.8807 12.5884 13.8726 12.6807C13.8645 12.7731 13.8337 12.862 13.7829 12.9396L12.2803 14.7263C12.227 14.8067 12.1955 14.8996 12.1888 14.9958C12.1822 15.0921 12.2006 15.1884 12.2423 15.2754C12.8238 16.4658 14.0543 17.6815 15.2482 18.2574C15.3357 18.2989 15.4324 18.3169 15.529 18.3097C15.6255 18.3024 15.7185 18.2701 15.7988 18.2159L17.5587 16.7189Z" stroke="#44226E" stroke-width="1.125" stroke-linecap="round" stroke-linejoin="round"/>
</g>
<defs>
<filter id="filter0_d_70506_7790" x="0" y="0" width="31" height="31" filterUnits="userSpaceOnUse" color-interpolation-filters="sRGB">
<feFlood flood-opacity="0" result="BackgroundImageFix"/>
<feColorMatrix in="SourceAlpha" type="matrix" values="0 0 0 0 0 0 0 0 0 0 0 0 0 0 0 0 0 0 127 0" result="hardAlpha"/>
<feOffset dy="0.5"/>
<feGaussianBlur stdDeviation="1"/>
<feComposite in2="hardAlpha" operator="out"/>
<feColorMatrix type="matrix" values="0 0 0 0 0 0 0 0 0 0 0 0 0 0 0 0 0 0 0.25 0"/>
<feBlend mode="normal" in2="BackgroundImageFix" result="effect1_dropShadow_70506_7790"/>
<feBlend mode="normal" in="SourceGraphic" in2="effect1_dropShadow_70506_7790" result="shape"/>
</filter>
<linearGradient id="paint0_linear_70506_7790" x1="13.5" y1="-6.24331e-09" x2="15" y2="32.5" gradientUnits="userSpaceOnUse">
<stop stop-color="white"/>
<stop offset="1" stop-color="#F7F1FE"/>
</linearGradient>
<linearGradient id="paint1_linear_70506_7790" x1="19.834" y1="7.03613" x2="19.2187" y2="13.25" gradientUnits="userSpaceOnUse">
<stop stop-color="#F6462D"/>
<stop offset="1" stop-color="#FFC837"/>
</linearGradient>
<linearGradient id="paint2_linear_70506_7790" x1="18.1641" y1="10.2617" x2="17.8125" y2="13.8125" gradientUnits="userSpaceOnUse">
<stop stop-color="#F6462D"/>
<stop offset="1" stop-color="#FFC837"/>
</linearGradient>
<clipPath id="clip0_70506_7790">
<rect width="18" height="18" fill="white" transform="translate(6 6.5)"/>
</clipPath>
</defs>
</svg>
