<svg width="48" height="48" viewBox="0 0 48 48" fill="none" xmlns="http://www.w3.org/2000/svg">
<path d="M24 6.4502C25.3492 6.4502 26.6595 6.89839 29.4746 7.87402L30.4932 8.22656C33.1712 9.15471 35.161 9.84478 36.5664 10.4229C37.2685 10.7117 37.8103 10.967 38.2119 11.2031C38.6197 11.4429 38.8464 11.6422 38.959 11.8047C39.0732 11.9694 39.1841 12.2573 39.2744 12.7314C39.3633 13.1983 39.4253 13.8061 39.4668 14.5781C39.5499 16.123 39.5498 18.2669 39.5498 21.1504V23.9844C39.5498 33.858 32.231 38.6686 27.5537 40.7373C26.9059 41.0238 26.4585 41.2206 25.9531 41.3516C25.4544 41.4808 24.8817 41.5498 24 41.5498C23.1183 41.5498 22.5456 41.4808 22.0469 41.3516C21.5415 41.2206 21.0941 41.0238 20.4463 40.7373C15.769 38.6686 8.4502 33.858 8.4502 23.9844V21.1504C8.4502 18.2669 8.45013 16.123 8.5332 14.5781C8.57472 13.8061 8.63672 13.1983 8.72559 12.7314C8.81587 12.2573 8.92682 11.9694 9.04102 11.8047C9.15363 11.6422 9.38035 11.4429 9.78809 11.2031C10.1897 10.967 10.7315 10.7117 11.4336 10.4229C12.839 9.84478 14.8288 9.15471 17.5068 8.22656L18.5254 7.87402C21.3404 6.89839 22.6508 6.4502 24 6.4502Z" fill="white" stroke="#F5EDFF" stroke-width="0.9"/>
<path d="M16.6379 21.968C16.513 22.4364 16.1581 22.3916 15.822 22.3897C15.5054 22.3878 15.1888 22.3926 14.8723 22.3869C14.5179 22.3806 14.4093 22.2704 14.4019 21.927C14.3854 21.1627 14.3981 21.1497 15.1647 21.1496C15.4912 21.1495 15.8186 21.1356 16.1436 21.1571C16.2671 21.1653 16.4514 21.2251 16.4922 21.3144C16.5827 21.5122 16.7234 21.5783 16.908 21.638C17.0041 21.6691 17.0763 21.7742 17.1782 21.8621C17.6 21.2291 18.089 20.6015 18.4618 19.9113C19.0336 18.8525 19.8539 18.4604 21.0551 18.5031C23.1694 18.5784 25.2884 18.5367 27.4051 18.5178C28.2246 18.5105 28.8211 18.8191 29.2562 19.5167C29.7576 20.3208 30.3 21.0994 30.8283 21.8945C30.8945 21.803 30.9347 21.6841 31.0075 21.6587C31.2208 21.5843 31.4361 21.5486 31.5017 21.2715C31.5156 21.2127 31.6815 21.1585 31.7788 21.1561C32.2533 21.1442 32.7283 21.1521 33.2031 21.1499C33.4461 21.1488 33.5608 21.2664 33.5798 21.5076C33.6438 22.32 33.582 22.3896 32.7628 22.3895C32.4957 22.3895 32.2285 22.3854 31.9615 22.3904C31.6732 22.3959 31.4153 22.364 31.3618 21.9806C31.2856 22.2089 31.1845 22.4131 31.3591 22.6289C31.6201 22.9517 31.877 23.2778 32.1334 23.6043C32.4375 23.9916 32.5793 24.4299 32.5749 24.9252C32.5661 25.9143 32.5717 26.9036 32.5713 27.8928C32.5713 28.0695 32.6044 28.2584 32.3461 28.3042C32.312 28.3102 32.2828 28.4344 32.2791 28.5053C32.2694 28.6928 32.2767 28.8811 32.2742 29.069C32.2715 29.2792 32.1698 29.4155 31.9544 29.4174C31.2028 29.4241 30.451 29.4258 29.6994 29.4175C29.4714 29.415 29.3698 29.257 29.3637 29.0423C29.3571 28.8058 29.3622 28.569 29.3622 28.3089C25.7827 28.3089 22.227 28.3089 18.623 28.3089C18.623 28.5274 18.6293 28.7514 18.6215 28.975C18.6096 29.3183 18.5106 29.4225 18.1759 29.4255C17.5033 29.4316 16.8305 29.4322 16.1579 29.426C15.8056 29.4227 15.7 29.3081 15.6947 28.9608C15.6929 28.8422 15.6954 28.7234 15.6943 28.6047C15.6929 28.4562 15.7431 28.2916 15.5101 28.2435C15.4618 28.2336 15.4164 28.0771 15.4159 27.9878C15.4095 26.9096 15.4053 25.8313 15.4152 24.7532C15.4189 24.3363 15.5751 23.9617 15.8308 23.6331C16.0736 23.3211 16.3127 23.0052 16.5737 22.7088C16.7746 22.4805 16.716 22.2484 16.6379 21.968ZM18.0077 22.098C22.0164 22.098 25.9715 22.098 29.9645 22.098C29.9088 22.0094 29.8753 21.9527 29.8385 21.8982C29.3849 21.2272 28.9208 20.5631 28.4811 19.8832C28.243 19.5151 27.923 19.3361 27.4959 19.3359C25.163 19.3346 22.8302 19.3337 20.4973 19.338C20.1735 19.3385 19.8535 19.4035 19.6544 19.6887C19.1072 20.4729 18.5742 21.267 18.0077 22.098ZM18.2192 26.2003C18.2192 26.2007 18.2192 26.2011 18.2192 26.2015C18.4956 26.2015 18.772 26.1974 19.0483 26.2029C19.2576 26.207 19.3295 26.1023 19.3141 25.9075C19.2851 25.542 19.0934 25.2792 18.789 25.0978C18.3805 24.8543 17.9278 24.7622 17.458 24.7668C17.0204 24.7711 16.7198 25.0771 16.7237 25.4884C16.7274 25.8758 17.0346 26.1824 17.4493 26.1984C17.7056 26.2083 17.9625 26.2003 18.2192 26.2003ZM29.7441 26.2014C30.0005 26.2014 30.2569 26.2015 30.5134 26.2014C30.5331 26.2014 30.5529 26.2014 30.5725 26.2C30.9655 26.1709 31.2556 25.869 31.2592 25.4856C31.2629 25.0913 30.989 24.7891 30.5859 24.7698C30.1043 24.7468 29.6429 24.8445 29.2223 25.0848C28.9067 25.2651 28.7002 25.5274 28.6792 25.9108C28.6685 26.1072 28.7351 26.2087 28.9452 26.2031C29.2113 26.1961 29.4778 26.2014 29.7441 26.2014Z" fill="#44226E"/>
</svg>
