<svg width="132" height="100" viewBox="0 0 132 100" fill="none" xmlns="http://www.w3.org/2000/svg">
<g clip-path="url(#clip0_233_12067)">
<mask id="mask0_233_12067" style="mask-type:luminance" maskUnits="userSpaceOnUse" x="-14" y="-31" width="160" height="161">
<path d="M146 -30.4385H-14V129.562H146V-30.4385Z" fill="white"/>
</mask>
<g mask="url(#mask0_233_12067)">
<path d="M55.9838 58.0737C54.5118 58.0737 53.1358 57.8496 51.8558 57.3696C50.5758 56.8896 49.4558 56.1856 48.4958 55.2896C47.5678 54.3936 46.8318 53.3057 46.2878 51.9937C45.7438 50.6817 45.4878 49.2417 45.4878 47.6737C45.4878 46.1057 45.7438 44.6657 46.2878 43.3537C46.8318 42.0097 47.5998 40.8577 48.5918 39.8977C49.5518 38.9377 50.7038 38.2016 52.0798 37.6896C53.4238 37.1456 54.8638 36.8896 56.4318 36.8896C57.5518 36.8896 58.5758 37.0176 59.4718 37.3056C60.3998 37.5616 61.1678 37.8817 61.8078 38.2017L62.6718 37.4337H63.9198L64.0478 44.7937H62.7998C62.0958 42.5537 61.2318 40.9216 60.2398 39.8656C59.2478 38.8096 58.0318 38.2977 56.6238 38.2977C54.8318 38.2977 53.4878 39.0976 52.5598 40.6656C51.6318 42.2336 51.1838 44.4097 51.1838 47.2577C51.1838 48.8576 51.3438 50.2337 51.6638 51.3537C51.9838 52.4737 52.3998 53.4017 52.9118 54.0737C53.4558 54.7777 54.0958 55.3216 54.8638 55.6737C55.5998 55.9937 56.4318 56.1856 57.3598 56.1856C58.6718 56.1856 59.8558 55.8336 60.8798 55.0976C61.9038 54.3937 62.8638 53.3057 63.7278 51.8337L64.9438 52.5696C64.5278 53.4016 64.0798 54.1376 63.5678 54.8096C63.0558 55.4496 62.4478 56.0256 61.7758 56.5056C61.0398 57.0176 60.2078 57.4336 59.2798 57.7216C58.2558 57.9456 57.1998 58.0737 55.9838 58.0737Z" fill="#13110C"/>
</g>
<mask id="mask1_233_12067" style="mask-type:luminance" maskUnits="userSpaceOnUse" x="-14" y="-31" width="160" height="161">
<path d="M146 -30.4385H-14V129.562H146V-30.4385Z" fill="white"/>
</mask>
<g mask="url(#mask1_233_12067)">
<path d="M83.2799 57.5294H74.7358V56.5054C74.9278 56.4734 75.1519 56.4734 75.4079 56.4414C75.6639 56.4094 75.8559 56.3774 75.9839 56.3134C76.1759 56.2174 76.3359 56.0574 76.3999 55.8654C76.4959 55.6734 76.5279 55.3854 76.5279 55.0014V48.3774C76.5279 47.4174 76.3359 46.6814 75.9839 46.2014C75.6319 45.7214 75.1199 45.4654 74.4479 45.4654C74.0639 45.4654 73.7119 45.5294 73.3919 45.6254C73.0719 45.7534 72.7519 45.9134 72.4319 46.1374C72.1439 46.3294 71.9199 46.5214 71.7599 46.7134C71.5999 46.9054 71.4719 47.0974 71.3439 47.2254V54.8414C71.3439 55.1934 71.3759 55.4814 71.4719 55.6734C71.5679 55.8654 71.7279 56.0254 71.9519 56.1854C72.0799 56.2814 72.2718 56.3454 72.4958 56.4094C72.7198 56.4734 72.9439 56.5374 73.1679 56.5374V57.5614H64.5599V56.5374C64.8159 56.5054 65.0399 56.5054 65.2639 56.4734C65.4879 56.4414 65.7119 56.4094 65.9039 56.3454C66.1919 56.2174 66.4159 56.0574 66.5119 55.8654C66.6399 55.6414 66.6719 55.3534 66.6719 55.0014V39.1934C66.6719 38.9054 66.6079 38.5854 66.4479 38.2334C66.3199 37.8814 66.0959 37.6254 65.8399 37.4654C65.6479 37.3374 65.3919 37.2414 65.0079 37.1774C64.6559 37.1134 64.3359 37.0494 64.0479 37.0494V36.0254L71.0879 35.6414L71.3119 35.8654V45.6254H71.3758C71.7278 45.3054 72.0478 45.0174 72.3358 44.7614C72.6238 44.5054 72.9759 44.2174 73.3919 43.9614C73.7439 43.7374 74.1919 43.5454 74.7679 43.3854C75.3439 43.2254 75.9519 43.1294 76.5919 43.1294C78.1279 43.1294 79.2799 43.5774 80.0479 44.4414C80.8159 45.3054 81.1999 46.4894 81.1999 47.9294V54.8734C81.1999 55.2254 81.2639 55.5134 81.3599 55.7054C81.4559 55.8974 81.6479 56.0894 81.9359 56.2174C82.0958 56.2814 82.2879 56.3454 82.5119 56.4094C82.7359 56.4734 82.9599 56.5054 83.2799 56.5374V57.5294Z" fill="#13110C"/>
</g>
<mask id="mask2_233_12067" style="mask-type:luminance" maskUnits="userSpaceOnUse" x="-14" y="-31" width="160" height="161">
<path d="M146 -30.4385H-14V129.562H146V-30.4385Z" fill="white"/>
</mask>
<g mask="url(#mask2_233_12067)">
<path d="M93.7439 54.9692C93.9679 54.4252 94.0959 53.7852 94.1919 53.0492C94.2879 52.2812 94.3519 51.4172 94.3519 50.4252C94.3519 49.7532 94.3199 49.0172 94.2239 48.1532C94.1279 47.2892 93.9999 46.6172 93.8079 46.1372C93.5839 45.5292 93.2639 45.0812 92.8479 44.7292C92.4639 44.3772 91.9519 44.2172 91.3439 44.2172C90.6719 44.2172 90.1279 44.4092 89.7119 44.7612C89.3279 45.1452 89.0079 45.5932 88.7839 46.2012C88.5919 46.7452 88.4639 47.3852 88.3679 48.0892C88.3039 48.7932 88.2399 49.5612 88.2399 50.3292C88.2399 51.3532 88.2719 52.2172 88.3359 52.8892C88.3999 53.5612 88.5599 54.2332 88.8159 54.9052C89.0399 55.4812 89.3599 55.9612 89.7439 56.2812C90.1599 56.6332 90.6719 56.7932 91.2799 56.7932C91.8559 56.7932 92.3359 56.6332 92.7519 56.3132C93.1679 56.0572 93.4879 55.5772 93.7439 54.9692ZM97.3599 45.1452C98.0639 45.7852 98.6079 46.5852 98.9599 47.4812C99.3439 48.3772 99.5039 49.3692 99.5039 50.4252C99.5039 51.4812 99.3119 52.4732 98.9599 53.4012C98.6079 54.3292 98.0639 55.1292 97.3599 55.7692C96.6239 56.4732 95.7279 57.0172 94.6719 57.4012C93.6479 57.7852 92.4639 57.9772 91.1199 57.9772C89.9679 57.9772 88.9119 57.8172 87.9199 57.4652C86.9599 57.1452 86.0959 56.6332 85.3599 55.9612C84.6559 55.3212 84.0799 54.5532 83.6639 53.6252C83.2479 52.6972 83.0239 51.6412 83.0239 50.4892C83.0239 49.3692 83.2159 48.3452 83.5679 47.4812C83.9519 46.5852 84.4959 45.8172 85.1999 45.1132C85.9039 44.4412 86.7679 43.9292 87.7919 43.5772C88.8159 43.1932 89.9679 43.0332 91.2479 43.0332C92.5599 43.0332 93.7439 43.2252 94.7359 43.5772C95.7919 43.9612 96.6559 44.4732 97.3599 45.1452Z" fill="#13110C"/>
</g>
<mask id="mask3_233_12067" style="mask-type:luminance" maskUnits="userSpaceOnUse" x="-14" y="-31" width="160" height="161">
<path d="M146 -30.4385H-14V129.562H146V-30.4385Z" fill="white"/>
</mask>
<g mask="url(#mask3_233_12067)">
<path d="M108.273 57.5296H99.3765V56.5056C99.6325 56.4736 99.8565 56.4736 100.081 56.4416C100.305 56.4096 100.529 56.3776 100.721 56.3136C101.009 56.1856 101.233 56.0256 101.329 55.8336C101.457 55.6096 101.489 55.3216 101.489 54.9696V39.2576C101.489 38.9056 101.425 38.5536 101.265 38.2656C101.137 37.9456 100.945 37.7216 100.689 37.5616C100.497 37.4336 100.209 37.3056 99.8245 37.2096C99.4405 37.0816 99.1205 37.0176 98.8325 37.0176V35.9936L105.969 35.6096L106.193 35.8336V54.7776C106.193 55.1296 106.257 55.4176 106.385 55.6416C106.513 55.8656 106.705 56.0256 106.993 56.1536C107.185 56.2496 107.377 56.3136 107.601 56.3776C107.793 56.4416 108.049 56.5056 108.337 56.5056V57.5296H108.273Z" fill="#13110C"/>
</g>
<mask id="mask4_233_12067" style="mask-type:luminance" maskUnits="userSpaceOnUse" x="-14" y="-31" width="160" height="161">
<path d="M146 -30.4385H-14V129.562H146V-30.4385Z" fill="white"/>
</mask>
<g mask="url(#mask4_233_12067)">
<path d="M117.072 49.8497C116.528 50.0417 116.016 50.2337 115.504 50.4577C114.992 50.6817 114.544 50.9377 114.224 51.1937C113.872 51.4497 113.616 51.8017 113.392 52.2177C113.2 52.6337 113.104 53.1137 113.104 53.6577C113.104 54.3937 113.264 54.9377 113.616 55.2577C113.968 55.5777 114.384 55.7697 114.864 55.7697C115.376 55.7697 115.824 55.6737 116.144 55.4497C116.496 55.2257 116.784 54.9697 117.04 54.6497L117.072 49.8497ZM124.144 57.2417C123.728 57.4337 123.248 57.5937 122.672 57.7537C122.096 57.9137 121.488 57.9777 120.88 57.9777C119.728 57.9777 118.864 57.8177 118.32 57.4657C117.776 57.1137 117.392 56.6337 117.2 55.9617H117.104C116.784 56.2817 116.464 56.5697 116.176 56.7937C115.888 57.0177 115.568 57.2097 115.216 57.3697C114.768 57.5617 114.352 57.7217 113.936 57.8177C113.52 57.9137 112.944 57.9777 112.208 57.9777C111.12 57.9777 110.16 57.6577 109.392 57.0177C108.624 56.3777 108.24 55.5137 108.24 54.4257C108.24 53.8177 108.336 53.3057 108.496 52.8577C108.656 52.4097 108.912 52.0257 109.232 51.7057C109.52 51.4177 109.84 51.1617 110.224 50.9697C110.608 50.7777 111.024 50.5857 111.472 50.4257C112.336 50.1057 113.36 49.7857 114.544 49.4657C115.728 49.1137 116.592 48.8257 117.168 48.5697V47.1937C117.168 46.9697 117.136 46.6497 117.104 46.2657C117.072 45.8817 116.976 45.5617 116.848 45.2737C116.72 44.9857 116.496 44.7297 116.24 44.5057C115.952 44.2817 115.568 44.1857 115.12 44.1857C114.704 44.1857 114.352 44.2497 114.064 44.3777C113.776 44.5057 113.552 44.6017 113.392 44.7297C113.424 44.9217 113.488 45.2097 113.648 45.5937C113.776 45.9777 113.84 46.3617 113.84 46.7137C113.84 46.8737 113.808 47.0657 113.712 47.3217C113.616 47.5457 113.488 47.7377 113.328 47.8977C113.104 48.0897 112.88 48.2497 112.592 48.3457C112.336 48.4417 111.92 48.5057 111.344 48.5057C110.544 48.5057 109.936 48.3137 109.552 47.9297C109.136 47.5457 108.944 47.0337 108.944 46.4257C108.944 45.8817 109.136 45.4337 109.552 45.0177C109.968 44.6017 110.48 44.2497 111.088 43.9617C111.696 43.6737 112.368 43.4497 113.136 43.3217C113.904 43.1617 114.64 43.0657 115.28 43.0657C116.208 43.0657 117.04 43.1297 117.808 43.2257C118.576 43.3217 119.248 43.5457 119.888 43.8977C120.464 44.2177 120.944 44.6977 121.264 45.3377C121.616 45.9777 121.776 46.7777 121.776 47.8017C121.776 48.8577 121.744 50.1377 121.712 51.6097C121.68 53.0817 121.648 54.0417 121.648 54.4897C121.648 54.9057 121.712 55.2577 121.84 55.4817C121.968 55.7377 122.16 55.8977 122.448 56.0257C122.608 56.0897 122.864 56.1537 123.184 56.1537C123.536 56.1537 123.856 56.1537 124.144 56.1537V57.2417Z" fill="#13110C"/>
</g>
<mask id="mask5_233_12067" style="mask-type:luminance" maskUnits="userSpaceOnUse" x="-14" y="-31" width="160" height="161">
<path d="M146 -30.4385H-14V129.562H146V-30.4385Z" fill="white"/>
</mask>
<g mask="url(#mask5_233_12067)">
<path d="M15.6316 48.249C13.7756 47.481 12.4636 46.489 12.7516 43.897C13.1356 40.409 18.6076 36.441 20.3676 34.457C21.6156 33.049 21.9036 29.657 21.9036 29.657C21.9036 29.657 23.7276 33.465 21.6156 36.601C20.7516 37.881 16.3676 42.137 15.4716 44.761C15.1196 45.785 14.9276 47.097 15.6316 48.249Z" fill="#E30613"/>
</g>
<mask id="mask6_233_12067" style="mask-type:luminance" maskUnits="userSpaceOnUse" x="-14" y="-31" width="160" height="161">
<path d="M146 -30.4385H-14V129.562H146V-30.4385Z" fill="white"/>
</mask>
<g mask="url(#mask6_233_12067)">
<path d="M12.5278 44.9858C10.7038 44.1858 9.23175 42.9378 9.55175 40.3458C9.99975 36.8898 15.5358 32.9858 17.3278 31.0658C18.5758 29.6898 18.9278 26.3298 18.9278 26.3298C18.9278 26.3298 20.6878 30.1378 18.5118 33.2738C17.6478 34.5218 13.1678 38.7138 12.2398 41.3378C11.8558 42.3298 11.6318 43.6418 12.5278 44.9858Z" fill="#E30613"/>
</g>
<mask id="mask7_233_12067" style="mask-type:luminance" maskUnits="userSpaceOnUse" x="-14" y="-31" width="160" height="161">
<path d="M146 -30.4385H-14V129.562H146V-30.4385Z" fill="white"/>
</mask>
<g mask="url(#mask7_233_12067)">
<path d="M24.592 45.4016C26.448 46.1696 27.76 47.1616 27.472 49.7536C27.088 53.2416 21.616 57.2096 19.856 59.1936C18.608 60.6016 18.32 63.9936 18.32 63.9936C18.32 63.9936 16.496 60.1856 18.608 57.0496C19.472 55.7696 23.856 51.5136 24.752 48.8896C25.104 47.8656 25.264 46.5536 24.592 45.4016Z" fill="#E30613"/>
</g>
<mask id="mask8_233_12067" style="mask-type:luminance" maskUnits="userSpaceOnUse" x="-14" y="-31" width="160" height="161">
<path d="M146 -30.4385H-14V129.562H146V-30.4385Z" fill="white"/>
</mask>
<g mask="url(#mask8_233_12067)">
<path d="M27.6962 48.6973C29.5202 49.4973 30.9922 50.7453 30.6722 53.3373C30.2242 56.7933 24.6882 60.6973 22.8962 62.6173C21.6482 63.9933 21.2962 67.3533 21.2962 67.3533C21.2962 67.3533 19.5362 63.5133 21.7122 60.4093C22.6082 59.1613 27.0562 54.9693 27.9842 52.3453C28.3362 51.3213 28.5922 50.0413 27.6962 48.6973Z" fill="#E30613"/>
</g>
<mask id="mask9_233_12067" style="mask-type:luminance" maskUnits="userSpaceOnUse" x="-14" y="-31" width="160" height="161">
<path d="M146 -30.4385H-14V129.562H146V-30.4385Z" fill="white"/>
</mask>
<g mask="url(#mask9_233_12067)">
<path d="M21.5197 51.2895C20.7517 53.1455 19.7597 54.4575 17.1677 54.1695C13.6797 53.7855 9.71173 48.3135 7.72773 46.5535C6.31973 45.3055 2.92773 45.0175 2.92773 45.0175C2.92773 45.0175 6.73573 43.1935 9.87173 45.3055C11.1517 46.1695 15.4077 50.5535 18.0317 51.4495C19.0557 51.8335 20.3677 51.9935 21.5197 51.2895Z" fill="#133880"/>
</g>
<mask id="mask10_233_12067" style="mask-type:luminance" maskUnits="userSpaceOnUse" x="-14" y="-31" width="160" height="161">
<path d="M146 -30.4385H-14V129.562H146V-30.4385Z" fill="white"/>
</mask>
<g mask="url(#mask10_233_12067)">
<path d="M18.2556 54.4257C17.4556 56.2497 16.2076 57.7217 13.6156 57.4017C10.1596 56.9537 6.25561 51.4177 4.33561 49.6257C2.95961 48.3777 -0.400391 48.0257 -0.400391 48.0257C-0.400391 48.0257 3.43961 46.2657 6.54361 48.4417C7.79161 49.3377 11.9836 53.7857 14.6076 54.7137C15.5996 55.0657 16.9116 55.2897 18.2556 54.4257Z" fill="#133880"/>
</g>
<mask id="mask11_233_12067" style="mask-type:luminance" maskUnits="userSpaceOnUse" x="-14" y="-31" width="160" height="161">
<path d="M146 -30.4385H-14V129.562H146V-30.4385Z" fill="white"/>
</mask>
<g mask="url(#mask11_233_12067)">
<path d="M18.7036 42.3613C19.4716 40.5053 20.4636 39.1933 23.0556 39.4813C26.5436 39.8653 30.5116 45.3373 32.4956 47.0973C33.9036 48.3453 37.2956 48.6333 37.2956 48.6333C37.2956 48.6333 33.4876 50.4573 30.3516 48.3453C29.0716 47.4813 24.8156 43.0973 22.1916 42.2013C21.1356 41.8493 19.8236 41.6573 18.7036 42.3613Z" fill="#133880"/>
</g>
<mask id="mask12_233_12067" style="mask-type:luminance" maskUnits="userSpaceOnUse" x="-14" y="-31" width="160" height="161">
<path d="M146 -30.4385H-14V129.562H146V-30.4385Z" fill="white"/>
</mask>
<g mask="url(#mask12_233_12067)">
<path d="M21.9683 39.2575C22.7683 37.4335 24.0163 35.9615 26.6083 36.2815C30.0643 36.7295 33.9683 42.2655 35.8883 44.0575C37.2643 45.3055 40.6243 45.6575 40.6243 45.6575C40.6243 45.6575 36.7843 47.4175 33.6803 45.2415C32.4323 44.3775 28.2403 39.8975 25.6163 38.9695C24.6243 38.5855 23.3123 38.3615 21.9683 39.2575Z" fill="#133880"/>
</g>
<mask id="mask13_233_12067" style="mask-type:luminance" maskUnits="userSpaceOnUse" x="-14" y="-31" width="160" height="161">
<path d="M146 -30.4385H-14V129.562H146V-30.4385Z" fill="white"/>
</mask>
<g mask="url(#mask13_233_12067)">
<path d="M123.44 65.7856C123.12 65.7856 122.736 66.0416 122.32 66.5856C121.936 67.0656 121.68 67.5776 121.488 68.1536L121.584 68.1216C122.224 67.9936 122.768 67.7695 123.216 67.4175C123.632 67.0655 123.856 66.6816 123.856 66.2336C123.856 66.0736 123.824 65.9776 123.76 65.8816C123.664 65.8176 123.568 65.7856 123.44 65.7856ZM121.84 70.6175C121.36 70.6175 121.008 70.4896 120.72 70.2016C120.432 69.9136 120.304 69.5616 120.304 69.0816C120.304 68.9536 120.304 68.8256 120.336 68.6656C120.368 68.5056 120.4 68.3776 120.432 68.2496C120.624 67.5776 121.04 66.9696 121.712 66.3936C122.384 65.8176 123.024 65.5296 123.632 65.5296C123.952 65.5296 124.176 65.5936 124.336 65.7216C124.496 65.8496 124.56 66.0416 124.56 66.2976C124.56 66.7776 124.272 67.2256 123.696 67.6096C123.12 67.9936 122.384 68.2495 121.488 68.3775H121.392C121.36 68.5055 121.328 68.6015 121.328 68.6975C121.296 68.8255 121.296 68.9536 121.296 69.0496C121.296 69.3696 121.392 69.6255 121.552 69.8175C121.744 70.0095 122 70.0736 122.32 70.0736C122.576 70.0736 122.832 70.0096 123.088 69.8816C123.344 69.7536 123.632 69.5296 123.952 69.2416L124.112 69.4016C123.728 69.8176 123.344 70.1055 122.96 70.2975C122.608 70.5215 122.224 70.6175 121.84 70.6175ZM119.152 66.0416L118.288 69.6896C118.064 70.7136 117.776 71.4816 117.392 72.0256C117.008 72.5696 116.56 72.8256 116.048 72.8256C115.824 72.8256 115.6 72.7616 115.44 72.6336C115.28 72.5056 115.184 72.3456 115.184 72.1536C115.184 72.0256 115.216 71.8976 115.312 71.8336C115.408 71.7696 115.472 71.7056 115.6 71.7056C115.792 71.7056 115.92 71.7695 115.984 71.8975C116.08 72.0255 116.08 72.1856 115.984 72.3136C115.92 72.4096 115.92 72.4736 115.952 72.5056C115.984 72.5696 116.048 72.6016 116.144 72.6016C116.4 72.6016 116.592 72.4736 116.752 72.1856C116.912 71.8976 117.072 71.4496 117.2 70.8096L118.192 66.0416H117.2L117.264 65.6896H118.256C118.512 64.8256 118.8 64.1856 119.12 63.7056C119.536 63.1616 119.984 62.8736 120.528 62.8736C120.816 62.8736 121.04 62.9376 121.232 63.0656C121.424 63.1936 121.52 63.3536 121.52 63.5776C121.52 63.7056 121.488 63.8336 121.392 63.9296C121.296 64.0256 121.2 64.0576 121.072 64.0576C120.912 64.0576 120.784 63.9936 120.688 63.8336C120.624 63.6736 120.624 63.5136 120.72 63.3536C120.752 63.2896 120.784 63.2256 120.72 63.1936C120.688 63.1616 120.592 63.1296 120.496 63.1296C120.176 63.1296 119.92 63.3536 119.664 63.8336C119.44 64.2816 119.248 64.8896 119.12 65.7216H120.336L120.272 66.0736H119.152V66.0416ZM116.144 63.1296C116.304 63.1296 116.432 63.1936 116.528 63.2896C116.624 63.4176 116.688 63.5456 116.688 63.7056C116.688 63.8656 116.624 64.0256 116.528 64.1216C116.432 64.2496 116.304 64.2816 116.144 64.2816C115.984 64.2816 115.856 64.2176 115.76 64.1216C115.664 63.9936 115.6 63.8656 115.6 63.7056C115.6 63.5456 115.664 63.3856 115.76 63.2896C115.856 63.1936 115.984 63.1296 116.144 63.1296ZM114.352 69.4975L115.088 66.7456C115.184 66.4256 115.184 66.2336 115.088 66.1696C114.992 66.0736 114.768 66.0416 114.384 66.0736L114.448 65.8816L115.344 65.7216L116.208 65.5616L116.272 65.6256L115.184 69.6256C115.152 69.7856 115.12 69.9135 115.152 69.9775C115.184 70.0415 115.216 70.1056 115.312 70.1056C115.408 70.1056 115.536 70.0416 115.664 69.9136C115.792 69.7856 115.984 69.5296 116.24 69.2416L116.4 69.3696C116.08 69.8176 115.792 70.1696 115.568 70.3616C115.344 70.5536 115.12 70.6496 114.864 70.6496C114.608 70.6496 114.448 70.5536 114.352 70.3616C114.32 70.2656 114.288 70.1696 114.288 70.0416C114.288 69.8496 114.288 69.6895 114.352 69.4975ZM111.056 69.4975L112.496 63.8336C112.56 63.6096 112.528 63.4496 112.464 63.4176C112.368 63.3536 112.112 63.3216 111.696 63.3216L111.76 63.1296C112.112 63.0976 112.4 63.0656 112.656 63.0336C112.912 63.0016 113.232 62.9376 113.584 62.8416L113.648 62.9056L111.92 69.6575C111.888 69.8175 111.856 69.9456 111.888 70.0416C111.92 70.1376 111.984 70.1696 112.08 70.1696C112.176 70.1696 112.304 70.1056 112.464 69.9456C112.624 69.7856 112.816 69.5295 113.072 69.1775L113.232 69.3056C112.912 69.7856 112.624 70.1376 112.368 70.3616C112.112 70.5856 111.888 70.6816 111.632 70.6816C111.376 70.6816 111.184 70.5856 111.088 70.3936C110.96 70.1376 110.96 69.8495 111.056 69.4975ZM103.92 70.4896L104.944 66.7136C105.04 66.3616 105.04 66.1376 104.976 66.0416C104.88 65.9456 104.656 65.9456 104.24 66.0096L104.304 65.8176L105.136 65.6576L105.968 65.4976L106.032 65.5616L105.456 67.7375C105.456 67.7695 105.456 67.7696 105.456 67.7696L105.488 67.7375C105.616 67.4495 105.776 67.1935 105.904 66.9375C106.48 65.9775 106.992 65.4976 107.44 65.4976C107.664 65.4976 107.824 65.5616 107.92 65.7216C108.016 65.8816 108.048 66.0416 107.984 66.2656C107.952 66.3936 107.888 66.4896 107.792 66.5216C107.696 66.5856 107.6 66.6176 107.472 66.6176C107.376 66.6176 107.312 66.5856 107.248 66.5536C107.184 66.5216 107.12 66.4576 107.088 66.3616C107.056 66.2976 107.024 66.2656 106.992 66.2336C106.96 66.2016 106.928 66.2016 106.896 66.2016C106.672 66.2016 106.32 66.6176 105.872 67.4496C105.616 67.9296 105.392 68.4416 105.168 68.9856C105.104 69.1456 105.04 69.3376 104.976 69.5616C104.912 69.7856 104.848 70.0096 104.784 70.2016L104.72 70.4256H104.304H103.92V70.4896ZM101.904 65.7856C101.584 65.7856 101.2 66.0416 100.784 66.5856C100.4 67.0656 100.144 67.5776 99.9519 68.1536L100.048 68.1216C100.688 67.9936 101.232 67.7695 101.68 67.4175C102.096 67.0655 102.32 66.6816 102.32 66.2336C102.32 66.0736 102.288 65.9776 102.224 65.8816C102.128 65.8176 102.032 65.7856 101.904 65.7856ZM100.304 70.6175C99.8239 70.6175 99.4719 70.4896 99.1839 70.2016C98.8959 69.9136 98.7679 69.5616 98.7679 69.0816C98.7679 68.9536 98.7679 68.8256 98.7999 68.6656C98.8319 68.5056 98.8639 68.3776 98.8959 68.2496C99.0879 67.5776 99.5039 66.9696 100.176 66.3936C100.848 65.8176 101.488 65.5296 102.096 65.5296C102.416 65.5296 102.64 65.5936 102.8 65.7216C102.96 65.8496 103.024 66.0416 103.024 66.2976C103.024 66.7776 102.736 67.2256 102.16 67.6096C101.584 67.9936 100.848 68.2495 99.9519 68.3775H99.8559C99.8239 68.5055 99.7919 68.6015 99.7919 68.6975C99.7599 68.8255 99.7599 68.9536 99.7599 69.0496C99.7599 69.3696 99.8559 69.6255 100.016 69.8175C100.208 70.0095 100.464 70.0736 100.784 70.0736C101.04 70.0736 101.296 70.0096 101.552 69.8816C101.808 69.7536 102.096 69.5296 102.416 69.2416L102.576 69.4016C102.192 69.8176 101.808 70.1055 101.424 70.2975C101.072 70.5215 100.688 70.6175 100.304 70.6175ZM95.7599 69.6575L96.7519 66.0736H96.0799C96.0159 66.0736 95.9839 66.0736 95.9519 66.0416C95.9519 66.0416 95.9199 66.0096 95.9519 65.9456C95.9519 65.8816 95.9839 65.8496 95.9839 65.8496C96.0159 65.8176 96.0479 65.7856 96.1439 65.7856C96.5279 65.6256 96.8159 65.4656 97.0399 65.2736C97.2639 65.0816 97.5199 64.8256 97.7759 64.5376C97.8079 64.5056 97.8399 64.4416 97.8719 64.4416C97.9039 64.4096 97.9359 64.4096 97.9679 64.4096C97.9999 64.4096 98.0319 64.4096 98.0319 64.4416C98.0319 64.4736 98.0639 64.5056 98.0319 64.5376L97.7119 65.7216H98.5759L98.5119 66.0736H97.5839L96.5599 69.7856C96.5279 69.9136 96.5279 69.9776 96.5599 70.0416C96.5919 70.1056 96.6239 70.1375 96.6879 70.1375C96.7839 70.1375 96.8799 70.0736 97.0079 69.9136C97.1359 69.7536 97.3279 69.5296 97.5839 69.2096L97.7439 69.3375C97.4239 69.8175 97.1359 70.1376 96.8799 70.3296C96.6239 70.5216 96.3999 70.6175 96.1439 70.6175C95.8879 70.6175 95.7279 70.5536 95.6639 70.3936C95.6639 70.2336 95.6639 69.9775 95.7599 69.6575ZM92.6239 69.6575L93.6159 66.0736H92.9439C92.8799 66.0736 92.8479 66.0736 92.8159 66.0416C92.8159 66.0416 92.7839 66.0096 92.8159 65.9456C92.8159 65.8816 92.8479 65.8496 92.8479 65.8496C92.8799 65.8176 92.9119 65.7856 93.0079 65.7856C93.3919 65.6256 93.6799 65.4656 93.9039 65.2736C94.1279 65.0816 94.3839 64.8256 94.6399 64.5376C94.6719 64.5056 94.7039 64.4416 94.7359 64.4416C94.7679 64.4096 94.7999 64.4096 94.8319 64.4096C94.8639 64.4096 94.8959 64.4096 94.8959 64.4416C94.8959 64.4736 94.9279 64.5056 94.8959 64.5376L94.5759 65.7216H95.4399L95.3759 66.0736H94.4799L93.4559 69.7856C93.4239 69.9136 93.4239 69.9776 93.4559 70.0416C93.4879 70.1056 93.5199 70.1375 93.5839 70.1375C93.6799 70.1375 93.7759 70.0736 93.9039 69.9136C94.0319 69.7536 94.2239 69.5296 94.4799 69.2096L94.6399 69.3375C94.3199 69.8175 94.0319 70.1376 93.7759 70.3296C93.5199 70.5216 93.2959 70.6175 93.0399 70.6175C92.7839 70.6175 92.6239 70.5536 92.5599 70.3936C92.5279 70.2336 92.5279 69.9775 92.6239 69.6575ZM90.6719 65.7856C90.3519 65.7856 89.9679 66.0416 89.5519 66.5856C89.1679 67.0656 88.9119 67.5776 88.7199 68.1536L88.8159 68.1216C89.4559 67.9936 89.9999 67.7695 90.4479 67.4175C90.8639 67.0655 91.0879 66.6816 91.0879 66.2336C91.0879 66.0736 91.0559 65.9776 90.9919 65.8816C90.8959 65.8176 90.7999 65.7856 90.6719 65.7856ZM89.0719 70.6175C88.5919 70.6175 88.2399 70.4896 87.9519 70.2016C87.6639 69.9136 87.5359 69.5616 87.5359 69.0816C87.5359 68.9536 87.5359 68.8256 87.5679 68.6656C87.5999 68.5056 87.6319 68.3776 87.6639 68.2496C87.8559 67.5776 88.2719 66.9696 88.9439 66.3936C89.6159 65.8176 90.2559 65.5296 90.8639 65.5296C91.1839 65.5296 91.4079 65.5936 91.5679 65.7216C91.7279 65.8496 91.7919 66.0416 91.7919 66.2976C91.7919 66.7776 91.5039 67.2256 90.9279 67.6096C90.3519 67.9936 89.6159 68.2495 88.7199 68.3775H88.6239C88.5919 68.5055 88.5599 68.6015 88.5599 68.6975C88.5279 68.8255 88.5279 68.9536 88.5279 69.0496C88.5279 69.3696 88.6239 69.6255 88.7839 69.8175C88.9759 70.0095 89.2319 70.0736 89.5519 70.0736C89.8079 70.0736 90.0639 70.0096 90.3199 69.8816C90.5759 69.7536 90.8639 69.5296 91.1839 69.2416L91.3439 69.4016C90.9599 69.8176 90.5759 70.1055 90.1919 70.2975C89.8399 70.5215 89.4559 70.6175 89.0719 70.6175ZM83.3119 70.3616C83.7919 70.3616 84.2719 70.1056 84.7839 69.6256C85.2959 69.1456 85.6159 68.5696 85.8079 67.9616C85.8399 67.8016 85.8719 67.6416 85.9039 67.4816C85.9359 67.3216 85.9359 67.1616 85.9359 67.0336C85.9359 66.7136 85.8719 66.4896 85.7119 66.3296C85.5839 66.1696 85.3599 66.0736 85.1039 66.0736C84.6879 66.0736 84.2719 66.3615 83.8879 66.9375C83.5679 67.4175 83.2799 68.0256 83.0239 68.7936L82.8959 69.2736C82.8319 69.5296 82.7999 69.6895 82.7679 69.8175C82.7679 69.9455 82.7679 70.0416 82.7999 70.1056L82.8319 70.1696C82.9279 70.2976 83.0879 70.3616 83.3119 70.3616ZM83.5359 63.8336C83.5999 63.6096 83.5999 63.4496 83.5039 63.4176C83.4079 63.3536 83.1519 63.3216 82.7359 63.3216L82.7999 63.1296C83.1519 63.0976 83.4399 63.0656 83.6959 63.0336C83.9519 63.0016 84.2719 62.9376 84.6239 62.8416L84.6879 62.9056L83.5359 67.1296L83.8239 66.7136C84.3999 65.9776 85.0079 65.5936 85.5839 65.5936C85.9999 65.5936 86.3199 65.7216 86.5759 65.9776C86.8319 66.2336 86.9279 66.5536 86.9279 66.9696V67.0016C86.9279 67.0976 86.9279 67.2256 86.8959 67.3856C86.8639 67.5456 86.8319 67.6736 86.7999 67.8016C86.6079 68.5376 86.1279 69.2096 85.4239 69.7856C84.7199 70.3616 84.0159 70.6496 83.3119 70.6496C82.9919 70.6496 82.7039 70.5856 82.4479 70.4896C82.1919 70.3936 81.9679 70.2656 81.8399 70.0736L83.5359 63.8336ZM76.5919 65.7856C76.2079 65.7856 75.7919 66.0416 75.3439 66.5536C74.9279 67.0656 74.6079 67.6736 74.4159 68.4096C74.3839 68.5696 74.3519 68.6975 74.3199 68.8575C74.2879 68.9855 74.2879 69.1136 74.2879 69.2416C74.2879 69.4976 74.3519 69.7216 74.4799 69.8496C74.6079 70.0096 74.7679 70.0736 74.9919 70.0736C75.4079 70.0736 75.8239 69.8176 76.2079 69.2736C76.6239 68.7616 76.9439 68.0576 77.1679 67.2256C77.2959 66.7456 77.3279 66.3936 77.1999 66.1376C77.1039 65.9136 76.9119 65.7856 76.5919 65.7856ZM74.4479 70.6175C74.0959 70.6175 73.8399 70.4896 73.6159 70.2656C73.4239 70.0416 73.2959 69.7215 73.2959 69.3375C73.2959 69.2415 73.3279 69.1136 73.3279 68.9536C73.3599 68.7936 73.3919 68.6655 73.4239 68.5375C73.6479 67.7695 74.0639 67.0656 74.7039 66.4576C75.3439 65.8496 75.9519 65.5296 76.5599 65.5296C76.9439 65.5296 77.2319 65.6896 77.3919 66.0096C77.4239 66.0736 77.4559 66.1376 77.4559 66.2016L77.6159 65.6256L78.4159 65.5296L77.2959 69.5936C77.2639 69.7536 77.2319 69.8816 77.2639 69.9456C77.2959 70.0096 77.3279 70.0736 77.4239 70.0736C77.5199 70.0736 77.6479 70.0096 77.7759 69.8816C77.9039 69.7536 78.0959 69.5616 78.3199 69.2736L78.4799 69.4016C78.1919 69.8176 77.9039 70.1376 77.6799 70.3296C77.4559 70.5216 77.2319 70.6175 77.0079 70.6175C76.7519 70.6175 76.5919 70.5216 76.4959 70.3296C76.3999 70.1376 76.4319 69.8495 76.5279 69.4975L76.6879 68.9216C76.5279 69.2096 76.3359 69.4976 76.1439 69.7216C75.6319 70.3296 75.0559 70.6175 74.4479 70.6175ZM66.4479 70.4896L67.4719 66.7136C67.5679 66.3616 67.5679 66.1376 67.5039 66.0416C67.4079 65.9456 67.1839 65.9456 66.7679 66.0096L66.8319 65.8176L67.6639 65.6576L68.4959 65.4976L68.5599 65.5616L67.9839 67.7375C67.9839 67.7695 67.9839 67.7696 67.9839 67.7696L68.0159 67.7375C68.1439 67.4495 68.3039 67.1935 68.4319 66.9375C69.0079 65.9775 69.5199 65.4976 69.9679 65.4976C70.1919 65.4976 70.3519 65.5616 70.4479 65.7216C70.5439 65.8816 70.5759 66.0416 70.5119 66.2656C70.4799 66.3936 70.4159 66.4896 70.3199 66.5216C70.2239 66.5856 70.1279 66.6176 69.9999 66.6176C69.9039 66.6176 69.8399 66.5856 69.7759 66.5536C69.7119 66.5216 69.6479 66.4576 69.6159 66.3616C69.5839 66.2976 69.5519 66.2656 69.5199 66.2336C69.4879 66.2016 69.4559 66.2016 69.4239 66.2016C69.1999 66.2016 68.8479 66.6176 68.3999 67.4496C68.1439 67.9296 67.9199 68.4416 67.6959 68.9856C67.6319 69.1456 67.5679 69.3376 67.5039 69.5616C67.4399 69.7856 67.3759 70.0096 67.3119 70.2016L67.2479 70.4256H66.8319H66.4479V70.4896ZM64.4319 65.7856C64.1119 65.7856 63.7279 66.0416 63.3119 66.5856C62.9279 67.0656 62.6719 67.5776 62.4799 68.1536L62.5759 68.1216C63.2159 67.9936 63.7599 67.7695 64.2079 67.4175C64.6239 67.0655 64.8479 66.6816 64.8479 66.2336C64.8479 66.0736 64.8159 65.9776 64.7519 65.8816C64.6559 65.8176 64.5599 65.7856 64.4319 65.7856ZM62.8639 70.6175C62.3839 70.6175 62.0319 70.4896 61.7439 70.2016C61.4559 69.9136 61.3279 69.5616 61.3279 69.0816C61.3279 68.9536 61.3279 68.8256 61.3599 68.6656C61.3919 68.5056 61.4239 68.3776 61.4559 68.2496C61.6479 67.5776 62.0639 66.9696 62.7359 66.3936C63.4079 65.8176 64.0479 65.5296 64.6559 65.5296C64.9759 65.5296 65.1999 65.5936 65.3599 65.7216C65.5199 65.8496 65.5839 66.0416 65.5839 66.2976C65.5839 66.7776 65.2959 67.2256 64.7199 67.6096C64.1439 67.9936 63.4079 68.2495 62.5119 68.3775H62.4159C62.3839 68.5055 62.3519 68.6015 62.3519 68.6975C62.3199 68.8255 62.3199 68.9536 62.3199 69.0496C62.3199 69.3696 62.4159 69.6255 62.5759 69.8175C62.7679 70.0095 63.0239 70.0736 63.3439 70.0736C63.5999 70.0736 63.8559 70.0096 64.1119 69.8816C64.3679 69.7536 64.6559 69.5296 64.9759 69.2416L65.1359 69.4016C64.7519 69.8176 64.3679 70.1055 63.9839 70.2975C63.5999 70.5215 63.2479 70.6175 62.8639 70.6175ZM58.2879 69.6575L59.2799 66.0736H58.6079C58.5439 66.0736 58.5119 66.0736 58.4799 66.0416C58.4799 66.0416 58.4479 66.0096 58.4799 65.9456C58.4799 65.8816 58.5119 65.8496 58.5119 65.8496C58.5439 65.8176 58.5759 65.7856 58.6719 65.7856C59.0559 65.6256 59.3439 65.4656 59.5679 65.2736C59.7919 65.0816 60.0479 64.8256 60.3039 64.5376C60.3359 64.5056 60.3679 64.4416 60.3999 64.4416C60.4319 64.4096 60.4639 64.4096 60.4959 64.4096C60.5279 64.4096 60.5599 64.4096 60.5599 64.4416C60.5599 64.4736 60.5919 64.5056 60.5599 64.5376L60.2399 65.7216H61.1039L61.0399 66.0736H60.1119L59.0879 69.7856C59.0559 69.9136 59.0559 69.9776 59.0879 70.0416C59.1199 70.1056 59.1519 70.1375 59.2159 70.1375C59.3119 70.1375 59.4079 70.0736 59.5359 69.9136C59.6639 69.7536 59.8559 69.5296 60.1119 69.2096L60.2719 69.3375C59.9519 69.8175 59.6639 70.1376 59.4079 70.3296C59.1519 70.5216 58.9279 70.6175 58.6719 70.6175C58.4159 70.6175 58.2559 70.5536 58.1919 70.3936C58.1919 70.2336 58.1919 69.9775 58.2879 69.6575ZM52.3679 70.4896L53.3919 66.7136C53.4879 66.3936 53.4879 66.2016 53.3919 66.1376C53.2959 66.0416 53.0719 66.0096 52.6879 66.0416L52.7519 65.8496L53.6479 65.6896L54.5439 65.5296L54.6079 65.5936L53.9039 67.9616H53.9359H53.9679C54.1919 67.5776 54.4159 67.2256 54.6719 66.9056C55.3439 66.0096 55.9519 65.5616 56.4639 65.5616C56.8159 65.5616 57.0399 65.6896 57.1679 65.9456C57.2639 66.2016 57.2319 66.5856 57.1039 67.1296L56.4319 69.5936C56.3999 69.7536 56.3679 69.8816 56.3999 69.9456C56.4319 70.0096 56.4639 70.0736 56.5599 70.0736C56.6559 70.0736 56.7839 70.0096 56.9119 69.8816C57.0399 69.7536 57.2319 69.5296 57.4879 69.2096L57.6479 69.3375C57.3279 69.7855 57.0399 70.1376 56.8159 70.3296C56.5919 70.5216 56.3679 70.6175 56.1119 70.6175C55.8559 70.6175 55.6959 70.5216 55.5999 70.3296C55.5039 70.1376 55.5359 69.8495 55.6319 69.4975L56.3359 66.9056C56.3999 66.6496 56.4319 66.4576 56.3679 66.3296C56.3359 66.2016 56.2399 66.1376 56.1119 66.1376C55.6959 66.1376 55.2159 66.5536 54.6719 67.3536C54.3519 67.8336 54.0319 68.3776 53.8079 68.9856C53.7439 69.1136 53.6799 69.2736 53.6479 69.4336C53.6159 69.5936 53.5519 69.7856 53.4879 69.9456L53.3279 70.5216H52.9119H52.3679V70.4896ZM45.3599 70.4896L45.4239 70.2975C45.7119 70.2655 45.9039 70.2016 45.9999 70.1056C46.1279 70.0096 46.2239 69.7856 46.2879 69.4656L47.6639 64.4736C47.7919 63.9936 47.8239 63.7056 47.7279 63.5456C47.6319 63.4176 47.3439 63.3216 46.8959 63.3216L46.9599 63.1296H49.1359H52.5279L52.3679 63.9936L52.2079 64.8576H51.9199C51.9839 64.2816 51.9199 63.9296 51.6959 63.7696C51.4719 63.6096 50.8959 63.5456 49.9679 63.5456H49.4559C49.2959 63.5456 49.1679 63.5776 49.0719 63.6416C49.0079 63.7056 48.9439 63.8016 48.8799 63.9936L48.2079 66.4576H48.3679C49.1999 66.4576 49.7119 66.3936 49.9359 66.2976C50.1599 66.2016 50.3839 65.8816 50.5759 65.4016H50.7999L50.4479 66.7136L50.0959 68.0256H49.8719C49.9679 67.4816 49.9359 67.1296 49.8079 67.0336C49.6479 66.9056 49.1999 66.8736 48.3999 66.8736H48.1119L47.4399 69.3056C47.3439 69.6576 47.3439 69.8816 47.4399 70.0096C47.5359 70.1376 47.7599 70.1696 48.1439 70.1696C49.1359 70.1696 49.8399 70.0736 50.2239 69.8816C50.6719 69.6896 51.1199 69.2736 51.5679 68.6016L51.7599 68.6975L51.4079 69.6256L51.0559 70.5536H47.1199H45.3599V70.4896Z" fill="#3D3D3C"/>
</g>
</g>
<defs>
<clipPath id="clip0_233_12067">
<rect width="132" height="99.1227" fill="white"/>
</clipPath>
</defs>
</svg>
