<svg width="72" height="72" viewBox="0 0 72 72" fill="none" xmlns="http://www.w3.org/2000/svg">
<path d="M36 71C16.7004 71 1 55.2996 1 36C1 16.7004 16.7004 1 36 1C55.2996 1 71 16.7004 71 36C71 37.505 70.9125 38.9575 70.7258 40.4363C70.6267 41.2325 69.8683 41.8042 69.0983 41.705C68.2992 41.6058 67.7304 40.8767 67.8296 40.0775C68.0017 38.7183 68.0833 37.3854 68.0833 36C68.0833 18.3104 53.6896 3.91667 36 3.91667C18.3104 3.91667 3.91667 18.3104 3.91667 36C3.91667 53.6896 18.3104 68.0833 36 68.0833C37.3971 68.0833 38.73 68.0017 40.0746 67.8325C40.865 67.7392 41.6029 68.2962 41.705 69.0983C41.8042 69.8975 41.2383 70.6267 40.4392 70.7258C38.9721 70.9096 37.5196 71 36 71Z" fill="#44226E"/>
<path d="M35.4752 56.3874C35.4635 56.3874 35.4489 56.3874 35.4372 56.3874C24.3043 56.1016 15.5835 47.1445 15.5835 35.9999C15.5835 24.7416 24.7447 15.5833 36.0002 15.5833C47.1477 15.5833 56.1047 24.3041 56.3877 35.437C56.4081 36.242 55.7722 36.9099 54.9672 36.9333C54.2381 36.9799 53.4914 36.3178 53.471 35.5128C53.226 25.9724 45.5522 18.4999 36.0002 18.4999C26.3489 18.4999 18.5002 26.3487 18.5002 35.9999C18.5002 45.552 25.9756 53.2258 35.5131 53.4708C36.3181 53.4912 36.9539 54.162 36.9335 54.967C36.9131 55.7603 36.2656 56.3874 35.4752 56.3874Z" fill="#44226E"/>
<path d="M31.0417 42.7958C30.6888 42.7958 30.3358 42.6704 30.0558 42.4108C28.2737 40.7746 27.25 38.4383 27.25 36C27.25 31.1758 31.1758 27.25 36 27.25C38.4354 27.25 40.7746 28.2738 42.4108 30.0529C42.9562 30.645 42.9183 31.5696 42.3262 32.115C41.7312 32.6604 40.8125 32.6254 40.2642 32.0275C39.1762 30.8433 37.6246 30.1667 36 30.1667C32.7829 30.1667 30.1667 32.7829 30.1667 36C30.1667 37.6246 30.8433 39.1763 32.0275 40.2642C32.6225 40.8096 32.6604 41.7312 32.115 42.3262C31.8263 42.6354 31.4354 42.7958 31.0417 42.7958Z" fill="#44226E"/>
<path d="M48.8589 68.8798C48.8472 68.8798 48.8355 68.8798 48.8238 68.8798C48.2084 68.8652 47.6688 68.4656 47.4734 67.8823L38.1897 40.0398C38.0147 39.5148 38.1518 38.9373 38.5426 38.5465C38.9363 38.1586 39.5109 38.0186 40.0359 38.1936L67.8813 47.4744C68.4647 47.6669 68.8643 48.2094 68.8789 48.8248C68.8934 49.4402 68.5172 49.9973 67.9455 50.219L55.1413 55.1423L50.218 67.9436C50.0051 68.5094 49.4597 68.8798 48.8589 68.8798ZM41.8851 41.8861L48.958 63.1048L52.6564 53.4915C52.8051 53.1065 53.1084 52.8031 53.4934 52.6544L63.1068 48.959L41.8851 41.8861Z" fill="url(#paint0_linear_258_14769)"/>
<defs>
<linearGradient id="paint0_linear_258_14769" x1="68.8793" y1="38.1191" x2="36.1969" y2="40.3133" gradientUnits="userSpaceOnUse">
<stop stop-color="#FFC837"/>
<stop offset="1" stop-color="#F6462D"/>
</linearGradient>
</defs>
</svg>
