<svg width="315" height="337" viewBox="0 0 315 337" fill="none" xmlns="http://www.w3.org/2000/svg">
<path d="M206.197 154.485H138.645V334.349H206.197V154.485Z" stroke="#FFE1D4" stroke-miterlimit="10"/>
<path d="M181.841 136.494H163.001V142.932H181.841V136.494Z" stroke="#FFE1D4" stroke-miterlimit="10"/>
<path d="M206.197 154.485H138.645V334.349H206.197V154.485Z" stroke="#FFE1D4" stroke-miterlimit="10"/>
<path d="M159.32 158.659H144.708V202.689H159.32V158.659Z" stroke="#FFE1D4" stroke-miterlimit="10"/>
<path d="M179.727 158.659H165.115V202.689H179.727V158.659Z" stroke="#FFE1D4" stroke-miterlimit="10"/>
<path d="M200.134 158.659H185.522V202.689H200.134V158.659Z" stroke="#FFE1D4" stroke-miterlimit="10"/>
<path d="M206.197 202.69H138.645V208.14H206.197V202.69Z" stroke="#FFE1D4" stroke-miterlimit="10"/>
<path d="M206.197 154.485H138.645V158.659H206.197V154.485Z" stroke="#FFE1D4" stroke-miterlimit="10"/>
<path d="M159.32 208.139H144.708V252.169H159.32V208.139Z" stroke="#FFE1D4" stroke-miterlimit="10"/>
<path d="M179.727 208.139H165.115V252.169H179.727V208.139Z" stroke="#FFE1D4" stroke-miterlimit="10"/>
<path d="M200.134 208.139H185.522V252.169H200.134V208.139Z" stroke="#FFE1D4" stroke-miterlimit="10"/>
<path d="M206.197 252.169H138.645V257.619H206.197V252.169Z" stroke="#FFE1D4" stroke-miterlimit="10"/>
<path d="M159.32 257.619H144.708V301.649H159.32V257.619Z" stroke="#FFE1D4" stroke-miterlimit="10"/>
<path d="M179.727 257.619H165.115V301.649H179.727V257.619Z" stroke="#FFE1D4" stroke-miterlimit="10"/>
<path d="M200.134 257.619H185.522V301.649H200.134V257.619Z" stroke="#FFE1D4" stroke-miterlimit="10"/>
<path d="M206.197 301.649H138.645V334.349H206.197V301.649Z" stroke="#FFE1D4" stroke-miterlimit="10"/>
<path d="M208.172 142.932H136.67V154.485H208.172V142.932Z" stroke="#FFE1D4" stroke-miterlimit="10"/>
<path d="M292.566 207.904H218.403V332.28H292.566V207.904Z" stroke="#FFE1D4" stroke-miterlimit="10"/>
<path d="M263.169 220.225H223.268V230.053H263.169V220.225Z" stroke="#FFE1D4" stroke-miterlimit="10"/>
<path d="M285.693 234.142H245.792V243.97H285.693V234.142Z" stroke="#FFE1D4" stroke-miterlimit="10"/>
<path d="M263.169 275.895H223.268V285.723H263.169V275.895Z" stroke="#FFE1D4" stroke-miterlimit="10"/>
<path d="M283.12 289.813H243.218V299.641H283.12V289.813Z" stroke="#FFE1D4" stroke-miterlimit="10"/>
<path d="M247.801 248.06H223.268V257.888H247.801V248.06Z" stroke="#FFE1D4" stroke-miterlimit="10"/>
<path d="M277.432 248.06H252.899V257.888H277.432V248.06Z" stroke="#FFE1D4" stroke-miterlimit="10"/>
<path d="M277.432 303.73H252.899V313.558H277.432V303.73Z" stroke="#FFE1D4" stroke-miterlimit="10"/>
<path d="M286.822 261.977H262.289V271.805H286.822V261.977Z" stroke="#FFE1D4" stroke-miterlimit="10"/>
<path d="M258.754 261.977H223.268V271.805H258.754V261.977Z" stroke="#FFE1D4" stroke-miterlimit="10"/>
<path d="M292.566 207.904H218.403V212.958H292.566V207.904Z" stroke="#FFE1D4" stroke-miterlimit="10"/>
<path d="M243.218 189.107H218.403V196.774H243.218V189.107Z" stroke="#FFE1D4" stroke-miterlimit="10"/>
<path d="M296.991 196.774H213.979V207.904H296.991V196.774Z" stroke="#FFE1D4" stroke-miterlimit="10"/>
<path d="M56.337 162.633H-46.796V335.593H56.337V162.633Z" stroke="#FFE1D4" stroke-miterlimit="10"/>
<path d="M15.456 179.767H-40.032V193.434H15.456V179.767Z" stroke="#FFE1D4" stroke-miterlimit="10"/>
<path d="M46.78 199.121H-8.70801V212.788H46.78V199.121Z" stroke="#FFE1D4" stroke-miterlimit="10"/>
<path d="M15.456 257.184H-40.032V270.851H15.456V257.184Z" stroke="#FFE1D4" stroke-miterlimit="10"/>
<path d="M43.2 276.538H-12.288V290.205H43.2V276.538Z" stroke="#FFE1D4" stroke-miterlimit="10"/>
<path d="M35.291 218.475H1.17401V232.142H35.291V218.475Z" stroke="#FFE1D4" stroke-miterlimit="10"/>
<path d="M35.291 295.893H1.17401V309.56H35.291V295.893Z" stroke="#FFE1D4" stroke-miterlimit="10"/>
<path d="M48.349 237.83H14.232V251.497H48.349V237.83Z" stroke="#FFE1D4" stroke-miterlimit="10"/>
<path d="M9.31499 237.83H-40.032V251.497H9.31499V237.83Z" stroke="#FFE1D4" stroke-miterlimit="10"/>
<path d="M56.337 162.633H-46.796V169.661H56.337V162.633Z" stroke="#FFE1D4" stroke-miterlimit="10"/>
<path d="M62.49 147.155H-52.949V162.633H62.49V147.155Z" stroke="#FFE1D4" stroke-miterlimit="10"/>
<path d="M129.992 98.393H67.1V335.594H129.992V98.393Z" stroke="#FFE1D4" stroke-miterlimit="10"/>
<path d="M87.875 108.219H73.794V150.135H87.875V108.219Z" stroke="#FFE1D4" stroke-miterlimit="10"/>
<path d="M105.309 108.219H91.228V150.135H105.309V108.219Z" stroke="#FFE1D4" stroke-miterlimit="10"/>
<path d="M123.298 108.219H109.217V150.135H123.298V108.219Z" stroke="#FFE1D4" stroke-miterlimit="10"/>
<path d="M87.875 153.927H73.794V195.843H87.875V153.927Z" stroke="#FFE1D4" stroke-miterlimit="10"/>
<path d="M105.309 153.927H91.228V195.843H105.309V153.927Z" stroke="#FFE1D4" stroke-miterlimit="10"/>
<path d="M123.298 153.927H109.217V195.843H123.298V153.927Z" stroke="#FFE1D4" stroke-miterlimit="10"/>
<path d="M87.875 198.302H73.794V240.218H87.875V198.302Z" stroke="#FFE1D4" stroke-miterlimit="10"/>
<path d="M105.309 198.302H91.228V240.218H105.309V198.302Z" stroke="#FFE1D4" stroke-miterlimit="10"/>
<path d="M123.298 198.302H109.217V240.218H123.298V198.302Z" stroke="#FFE1D4" stroke-miterlimit="10"/>
<path d="M87.875 244.841H73.794V286.757H87.875V244.841Z" stroke="#FFE1D4" stroke-miterlimit="10"/>
<path d="M105.309 244.841H91.228V286.757H105.309V244.841Z" stroke="#FFE1D4" stroke-miterlimit="10"/>
<path d="M123.298 244.841H109.217V286.757H123.298V244.841Z" stroke="#FFE1D4" stroke-miterlimit="10"/>
<path d="M87.875 289.44H73.794V331.356H87.875V289.44Z" stroke="#FFE1D4" stroke-miterlimit="10"/>
<path d="M105.309 289.44H91.228V331.356H105.309V289.44Z" stroke="#FFE1D4" stroke-miterlimit="10"/>
<path d="M123.298 289.44H109.217V331.356H123.298V289.44Z" stroke="#FFE1D4" stroke-miterlimit="10"/>
<path d="M130.039 98.393H67.1V104.579H130.039V98.393Z" stroke="#FFE1D4" stroke-miterlimit="10"/>
<path d="M135.637 82.443H61.455V98.393H135.637V82.443Z" stroke="#FFE1D4" stroke-miterlimit="10"/>
<path d="M89.345 82.443L80.606 72.113H67.1V82.443H89.345Z" stroke="#FFE1D4" stroke-miterlimit="10"/>
<path d="M302.216 151.099C301.838 145.44 298.083 140.718 292.941 138.923C292.944 138.789 292.961 138.659 292.961 138.524C292.961 127 283.619 117.657 272.094 117.657C262.343 117.657 254.178 124.355 251.889 133.394C243.165 133.701 236.182 140.851 236.182 149.649C236.182 150.116 236.213 150.575 236.252 151.032H236.077C229.002 151.032 223.267 156.767 223.267 163.842C223.267 170.917 229.002 176.652 236.077 176.652H300.911C307.986 176.652 313.721 170.917 313.721 163.842C313.722 157.209 308.678 151.753 302.216 151.099Z" stroke="#FFE1D4" stroke-miterlimit="10"/>
<path d="M214.244 105.082C214.023 101.765 211.821 98.997 208.807 97.944C208.808 97.865 208.819 97.789 208.819 97.71C208.819 90.954 203.342 85.478 196.587 85.478C190.871 85.478 186.084 89.405 184.742 94.704C179.628 94.884 175.534 99.075 175.534 104.233C175.534 104.507 175.552 104.776 175.575 105.044H175.472C171.325 105.044 167.963 108.406 167.963 112.553C167.963 116.7 171.325 120.063 175.472 120.063H213.479C217.626 120.063 220.988 116.701 220.988 112.553C220.989 108.663 218.032 105.465 214.244 105.082Z" stroke="#FFE1D4" stroke-miterlimit="10"/>
<path d="M75.757 32.787C75.392 27.324 71.767 22.765 66.803 21.031C66.806 20.902 66.822 20.776 66.822 20.646C66.822 9.52 57.802 0.5 46.676 0.5C37.262 0.5 29.379 6.967 27.169 15.694C18.747 15.99 12.005 22.893 12.005 31.388C12.005 31.839 12.035 32.282 12.073 32.723H11.904C5.07398 32.723 -0.46402 38.26 -0.46402 45.09C-0.46402 51.92 5.07298 57.457 11.904 57.457H74.499C81.329 57.457 86.866 51.92 86.866 45.09C86.865 38.686 81.996 33.418 75.757 32.787Z" stroke="#FFE1D4" stroke-miterlimit="10"/>
</svg>
