<svg width="20" height="20" viewBox="0 0 20 20" fill="none" xmlns="http://www.w3.org/2000/svg">
<path d="M17.5 12.0939L13.8211 10.4447L13.807 10.4384C13.5679 10.3353 13.3067 10.2938 13.0474 10.3177C12.7881 10.3416 12.5389 10.4301 12.3227 10.5751C12.2923 10.5954 12.2631 10.6173 12.2352 10.6408L10.4922 12.1251C9.47657 11.5744 8.42735 10.5337 7.87579 9.53061L9.36485 7.7603C9.38879 7.73173 9.41096 7.70173 9.43126 7.67046C9.57249 7.45495 9.65824 7.20787 9.68087 6.9512C9.70349 6.69453 9.6623 6.43625 9.56094 6.19936C9.55854 6.19483 9.55645 6.19013 9.55469 6.1853L7.90626 2.50015C7.77094 2.19196 7.54001 1.93553 7.24763 1.76879C6.95525 1.60206 6.61696 1.53389 6.28282 1.57436C5.14873 1.72334 4.10765 2.28005 3.35402 3.1405C2.60039 4.00095 2.18573 5.10632 2.18751 6.25015C2.18751 12.6259 7.37422 17.8126 13.75 17.8126C14.8938 17.8144 15.9992 17.3998 16.8597 16.6461C17.7201 15.8925 18.2768 14.8514 18.4258 13.7173C18.4663 13.3832 18.3981 13.0449 18.2314 12.7525C18.0646 12.4601 17.8082 12.2292 17.5 12.0939ZM13.75 15.9376C11.1817 15.9345 8.71942 14.9129 6.90333 13.0968C5.08725 11.2807 4.06561 8.81848 4.06251 6.25015C4.06072 5.60288 4.28046 4.97448 4.68522 4.46938C5.08999 3.96428 5.6554 3.61288 6.28751 3.47358L7.75782 6.75483L6.26094 8.53765C6.23675 8.56648 6.21431 8.59674 6.19376 8.62827C6.04622 8.8537 5.95947 9.11346 5.94195 9.38231C5.92443 9.65116 5.97672 9.91997 6.09376 10.1626C6.82969 11.6689 8.3461 13.1751 9.86797 13.9126C10.1123 14.0285 10.3824 14.0789 10.6521 14.0591C10.9217 14.0392 11.1816 13.9497 11.4063 13.7994C11.4365 13.779 11.4654 13.7568 11.493 13.733L13.2453 12.2431L16.5266 13.7126C16.3873 14.3448 16.0359 14.9102 15.5308 15.3149C15.0257 15.7197 14.3973 15.9394 13.75 15.9376Z" fill="white"/>
</svg>
