<svg width="132" height="66" viewBox="0 0 132 66" fill="none" xmlns="http://www.w3.org/2000/svg">
<g clip-path="url(#clip0_121_957)">
<path d="M32.7125 3.68823V50.9663H24.3996V48.8074C21.9614 50.7227 18.9345 51.7332 15.8348 51.6667C13.7372 51.6592 11.6628 51.2268 9.73687 50.3957C7.81093 49.5645 6.07334 48.3518 4.62894 46.8306C3.18455 45.3095 2.0633 43.5115 1.33284 41.5452C0.602381 39.5788 0.27786 37.4849 0.378857 35.3897C0.257168 33.2842 0.566346 31.176 1.28748 29.1942C2.00861 27.2123 3.12652 25.3984 4.57283 23.8634C6.01913 22.3285 7.76341 21.1048 9.69894 20.2671C11.6345 19.4295 13.7206 18.9956 15.8295 18.992C18.8649 18.9343 21.8321 19.8948 24.2579 21.7202V3.68823H32.7125ZM24.5229 35.3871C24.5776 34.3173 24.4111 33.2477 24.0336 32.2453C23.6561 31.2428 23.0759 30.329 22.3291 29.5611C21.5823 28.7931 20.6851 28.1875 19.6936 27.7822C18.7021 27.3768 17.6376 27.1804 16.5667 27.2053C15.5107 27.2029 14.4654 27.4163 13.4948 27.8323C12.5242 28.2483 11.6488 28.8581 10.9223 29.6245C10.1958 30.3908 9.63341 31.2974 9.26971 32.2888C8.90601 33.2801 8.74863 34.3353 8.80722 35.3897C8.76096 36.4343 8.92763 37.4775 9.29708 38.4557C9.66654 39.434 10.2311 40.3269 10.9564 41.0801C11.6816 41.8334 12.5525 42.4313 13.5161 42.8375C14.4797 43.2437 15.5158 43.4497 16.5614 43.4429C17.6221 43.471 18.6774 43.2811 19.6618 42.8851C20.6462 42.489 21.5389 41.8952 22.2846 41.1404C23.0304 40.3855 23.6133 39.4857 23.9974 38.4966C24.3815 37.5074 24.5585 36.45 24.5176 35.3897M41.175 19.6846H49.6138V50.9637H41.175V19.6846ZM87.1677 19.6846V50.0429C87.1978 52.0483 86.8133 54.0383 86.0383 55.888C85.2632 57.7378 84.1144 59.4075 82.6637 60.7924C81.213 62.1773 79.4919 63.2476 77.6082 63.936C75.7244 64.6245 73.7188 64.9163 71.717 64.7932C68.5333 64.9437 65.388 64.0461 62.7632 62.2381C60.1383 60.4301 58.1786 57.8113 57.1844 54.7831L64.9386 51.8818C65.3384 53.338 66.2299 54.611 67.4616 55.4846C68.6934 56.3582 70.1895 56.7786 71.696 56.6744C72.6201 56.7424 73.5481 56.6133 74.4186 56.2956C75.289 55.9779 76.082 55.4788 76.745 54.8314C77.408 54.1841 77.9258 53.4032 78.2642 52.5406C78.6026 51.678 78.7538 50.7533 78.7078 49.8278V47.2781C76.4336 49.0776 73.6011 50.0243 70.7018 49.9537C68.707 49.954 66.7328 49.5511 64.8977 48.7693C63.0625 47.9875 61.4042 46.8429 60.0224 45.4043C58.6406 43.9656 57.5638 42.2626 56.8566 40.3974C56.1493 38.5322 55.8263 36.5434 55.9069 34.5503C55.817 32.556 56.1298 30.564 56.8267 28.6932C57.5235 26.8225 58.5902 25.1113 59.963 23.6619C61.3358 22.2125 62.9865 21.0545 64.8167 20.2571C66.6469 19.4597 68.619 19.0393 70.6152 19.0209C73.5974 18.9654 76.5008 19.9798 78.7996 21.8802V19.7108H87.1624V19.6846H87.1677ZM78.9597 34.566C78.986 33.5922 78.8169 32.6231 78.4625 31.7157C78.108 30.8083 77.5754 29.9812 76.896 29.2831C76.2166 28.585 75.4042 28.0301 74.5069 27.6511C73.6095 27.2721 72.6452 27.0768 71.6711 27.0766C70.697 27.0764 69.7327 27.2714 68.8352 27.6501C67.9376 28.0287 67.1251 28.5833 66.4454 29.2812C65.7658 29.9791 65.2329 30.806 64.8781 31.7133C64.5233 32.6205 64.3539 33.5896 64.3799 34.5634C64.4308 36.4629 65.2212 38.2676 66.5828 39.5931C67.9444 40.9186 69.7695 41.6603 71.6698 41.6603C73.57 41.6603 75.3952 40.9186 76.7567 39.5931C78.1183 38.2676 78.9087 36.4629 78.9597 34.5634M95.6065 19.6846H104.048V50.9637H95.6065V19.6846ZM121.996 19.6846H131.867V27.6906H121.991V39.2799C121.954 39.7737 122.024 40.2696 122.196 40.7338C122.369 41.198 122.639 41.6195 122.989 41.9696C123.339 42.3198 123.761 42.5902 124.225 42.7625C124.689 42.9349 125.185 43.005 125.679 42.9681H131.865V50.9742H123.908C122.548 51.0625 121.184 50.8626 119.906 50.3873C118.628 49.9121 117.465 49.1723 116.493 48.2164C115.52 47.2606 114.761 46.1101 114.264 44.8404C113.767 43.5708 113.544 42.2104 113.61 40.8486V27.6801H109.142V23.3465L117.324 13.221H121.993L121.996 19.6846ZM45.3747 3.74594H87.165V10.3459H45.3774L45.3747 3.74594Z" fill="black"/>
<path d="M104.05 7.03855L97.6733 0.000488281H95.6089V14.1238H97.6524L104.05 7.03855Z" fill="#FFBB00"/>
</g>
<defs>
<clipPath id="clip0_121_957">
<rect width="132" height="65.1024" fill="white"/>
</clipPath>
</defs>
</svg>
