<svg width="30" height="24" viewBox="0 0 30 24" fill="none" xmlns="http://www.w3.org/2000/svg">
<path d="M15.0023 6.80469C7.31691 6.80469 1.15625 9.10833 1.15625 11.9965C1.15625 14.8672 7.36767 17.1886 15.0023 17.1886C22.6371 17.1886 28.8486 14.8594 28.8486 11.9965C28.8486 9.1337 22.6371 6.80469 15.0023 6.80469Z" fill="#003478"/>
<path d="M20.4542 13.0972C20.4579 13.121 20.4891 13.1438 20.5193 13.1545C20.5305 13.1582 20.5359 13.1657 20.5243 13.1909C20.4381 13.3757 20.3588 13.4823 20.2508 13.6428C20.1513 13.7912 20.0393 13.907 19.9038 14.0183C19.6992 14.1875 19.4152 14.3717 19.1804 14.2479C19.0761 14.1938 19.031 14.0478 19.033 13.9297C19.038 13.5974 19.1858 13.2562 19.4588 12.921C19.7915 12.5113 20.1594 12.2988 20.4008 12.4149C20.6506 12.5341 20.5709 12.8233 20.4591 13.0503C20.4504 13.0679 20.4505 13.0828 20.4542 13.0972ZM23.1346 10.508C23.1526 10.4763 23.1337 10.4531 23.0936 10.4531C22.885 10.4531 22.6113 10.4536 22.3939 10.4536C22.3421 10.4536 22.3153 10.4598 22.291 10.5081C22.2107 10.6618 21.2328 12.1273 21.0508 12.4119C21.0201 12.4553 20.9827 12.4492 20.9784 12.3995C20.9599 12.2305 20.8139 12.0362 20.584 11.9432C20.4087 11.8721 20.2373 11.8593 20.0592 11.8829C19.7376 11.9261 19.451 12.0958 19.1991 12.2871C18.8194 12.5758 18.4919 12.9499 18.069 13.2263C17.8381 13.3768 17.522 13.508 17.3105 13.3121C17.119 13.1346 17.1407 12.7404 17.4336 12.4355C17.4644 12.4036 17.5014 12.4306 17.4956 12.4589C17.468 12.5968 17.5018 12.7339 17.6066 12.8301C17.7344 12.9446 17.9172 12.9576 18.0738 12.8811C18.2585 12.7896 18.367 12.6129 18.3987 12.4123C18.4476 12.1012 18.2081 11.8267 17.9084 11.8047C17.6649 11.7876 17.4315 11.8723 17.204 12.0601C17.0899 12.1547 17.0252 12.2246 16.9265 12.3649C16.9025 12.3994 16.8656 12.4029 16.8667 12.3519C16.8778 11.9535 16.7133 11.7294 16.3839 11.7221C16.1283 11.7159 15.8552 11.8547 15.6423 12.0244C15.409 12.2118 15.205 12.4601 14.9862 12.6935C14.959 12.7222 14.9353 12.7209 14.9276 12.6651C14.9214 12.4012 14.8547 12.1456 14.7326 11.964C14.6893 11.9009 14.5983 11.8696 14.5219 11.9122C14.4866 11.9316 14.3638 11.988 14.2744 12.06C14.2301 12.0966 14.2127 12.1494 14.2324 12.2172C14.3503 12.6115 14.3244 13.0599 14.1644 13.4385C14.0175 13.7853 13.732 14.0981 13.3965 14.204C13.1754 14.2741 12.9456 14.2397 12.8034 14.0438C12.6082 13.7733 12.687 13.3029 12.9781 12.9124C13.235 12.5685 13.6067 12.35 13.9773 12.2093C14.0209 12.1925 14.03 12.1645 14.0176 12.1275C13.9975 12.0665 13.9653 11.9835 13.9523 11.9457C13.9183 11.8551 13.8231 11.8405 13.7068 11.8531C13.4375 11.8845 13.1945 11.9767 12.9546 12.1053C12.3261 12.4418 12.0111 13.0931 11.873 13.4415C11.8065 13.6089 11.7496 13.7133 11.6762 13.8059C11.5771 13.9304 11.4527 14.0438 11.2253 14.2435C11.2048 14.2618 11.1894 14.3 11.2067 14.3355C11.2299 14.3836 11.3482 14.5506 11.3815 14.5655C11.4186 14.5837 11.4615 14.5581 11.4788 14.546C11.6379 14.4381 11.8283 14.2671 11.9214 14.1512C11.9541 14.1114 11.9877 14.1281 12.005 14.1884C12.092 14.4986 12.3196 14.7519 12.6344 14.8578C13.2107 15.0522 13.8083 14.7709 14.2594 14.2812C14.5462 13.97 14.6496 13.7698 14.7595 13.6338C14.9458 13.403 15.3131 12.8868 15.7507 12.5553C15.9112 12.4331 16.1011 12.3399 16.1966 12.4018C16.2732 12.4515 16.298 12.5669 16.175 12.7905C15.7289 13.6052 15.0725 14.5624 14.9521 14.7945C14.93 14.8347 14.9496 14.8664 14.9915 14.8664C15.2249 14.8653 15.4564 14.8658 15.6683 14.8658C15.7036 14.8646 15.7193 14.848 15.737 14.8231C16.0794 14.2872 16.4016 13.7771 16.7469 13.2497C16.7663 13.2186 16.7841 13.2423 16.7848 13.2559C16.7923 13.3783 16.822 13.5456 16.8947 13.6555C17.0253 13.8587 17.2103 13.946 17.4154 13.9473C17.5787 13.9498 17.6613 13.9244 17.8373 13.8587C17.9806 13.8055 18.0956 13.7358 18.1839 13.6727C18.2354 13.6368 18.2444 13.6968 18.2432 13.706C18.1639 14.1315 18.2618 14.6356 18.6846 14.8446C19.1906 15.0941 19.7466 14.7434 20.0665 14.4268C20.0978 14.3964 20.1314 14.3996 20.1346 14.4654C20.142 14.5862 20.196 14.7297 20.296 14.83C20.5641 15.0991 21.105 14.9924 21.6479 14.5723C21.9964 14.3032 22.3611 13.9232 22.6905 13.5207C22.7029 13.5051 22.7118 13.4801 22.688 13.4547C22.6379 13.4022 22.5653 13.3421 22.5156 13.2958C22.4929 13.2765 22.4596 13.2821 22.4405 13.2965C22.1028 13.6177 21.7989 13.9839 21.3596 14.2868C21.2114 14.3902 20.9753 14.4736 20.8692 14.33C20.8279 14.2742 20.8326 14.1972 20.8729 14.096C21.001 13.7766 23.0294 10.6901 23.1346 10.508Z" fill="white"/>
<path d="M13.5933 10.8891C13.602 10.9349 13.6198 10.9439 13.6406 10.94C13.7439 10.9193 13.8569 10.8344 13.9238 10.7359C13.9848 10.6466 14.0134 10.5177 13.9528 10.4661C13.8988 10.4196 13.8109 10.4328 13.7457 10.4904C13.6159 10.6051 13.5766 10.7677 13.5933 10.8891ZM8.42473 14.8634C7.66862 14.8684 7.00249 14.4014 6.92605 13.5925C6.88357 13.1443 7.01027 12.7448 7.26393 12.4157C7.48901 12.1224 7.86986 11.8788 8.19224 11.8192C8.29714 11.8001 8.4381 11.8118 8.49637 11.8817C8.58777 11.9881 8.56151 12.1049 8.47011 12.1515C8.22416 12.2771 7.92821 12.4921 7.78177 12.7857C7.663 13.0253 7.63899 13.314 7.82041 13.5891C8.12405 14.0475 8.97045 14.0601 9.75743 13.329C9.95233 13.1501 10.1267 12.9781 10.304 12.7745C10.6507 12.3782 10.7659 12.2338 11.2267 11.5947C11.2316 11.5872 11.2341 11.5776 11.2316 11.5729C11.2279 11.5642 11.2217 11.563 11.208 11.5617C10.9004 11.5704 10.6322 11.6619 10.3716 11.8567C10.2965 11.9114 10.1885 11.9038 10.1412 11.8317C10.0886 11.7502 10.1264 11.6441 10.2129 11.5842C10.6322 11.2926 11.0903 11.2397 11.5581 11.1608C11.5577 11.1608 11.5905 11.162 11.6173 11.1268C11.8093 10.8804 11.9543 10.6581 12.159 10.4089C12.3652 10.156 12.6316 9.92379 12.8352 9.74938C13.1193 9.50507 13.3015 9.42286 13.4867 9.3221C13.5355 9.29658 13.4805 9.26612 13.4656 9.26612C12.4317 9.0718 11.3571 8.82036 10.3303 9.20048C9.61917 9.46585 9.30756 10.0298 9.45745 10.4066C9.56409 10.6739 9.91561 10.7173 10.2447 10.5563C10.5181 10.4223 10.771 10.2065 10.9504 9.92861C11.0507 9.77429 11.2621 9.88564 11.1479 10.1536C10.8474 10.8598 10.2734 11.42 9.57418 11.4436C8.97912 11.463 8.59519 11.0252 8.59644 10.4851C8.59891 9.41989 9.78475 8.71819 11.031 8.61329C12.5319 8.48926 13.9535 8.88904 15.4437 9.0698C16.5855 9.20807 17.6801 9.21095 18.8278 8.94731C18.9634 8.91784 19.0586 9.00441 19.0498 9.14144C19.0386 9.33951 18.8852 9.53026 18.5072 9.73641C18.0773 9.97217 17.6276 10.0437 17.1579 10.0475C16.0222 10.0575 14.9643 9.61431 13.8696 9.37643C13.8708 9.42436 13.8834 9.48145 13.8433 9.51171C13.2369 9.95899 12.6887 10.4132 12.3216 11.0512C12.3093 11.0659 12.3155 11.0799 12.3374 11.0784C12.6561 11.0614 12.9427 11.0533 13.2403 11.0295C13.2923 11.0245 13.2943 11.0121 13.2897 10.9742C13.2633 10.7544 13.3276 10.5036 13.5211 10.3311C13.719 10.1536 13.9669 10.1334 14.1312 10.2613C14.318 10.4068 14.3015 10.6686 14.1993 10.865C14.0953 11.0642 13.9235 11.1707 13.7586 11.2225C13.7586 11.2225 13.7239 11.2299 13.7291 11.2614C13.7353 11.3116 13.9603 11.4362 13.9795 11.4693C13.9981 11.5009 13.9882 11.5498 13.9544 11.5874C13.9306 11.6146 13.8933 11.6401 13.8456 11.6392C13.8071 11.6385 13.7837 11.6251 13.7344 11.5985C13.6336 11.5439 13.5076 11.4541 13.4235 11.3482C13.3949 11.3124 13.3803 11.3117 13.3089 11.3157C12.9869 11.3342 12.4848 11.3828 12.1446 11.4253C12.0621 11.4352 12.05 11.4509 12.033 11.4795C11.4906 12.3739 10.9115 13.3384 10.2757 13.9841C9.5937 14.6765 9.02653 14.8587 8.42473 14.8634Z" fill="white"/>
<path d="M14.9984 7.65583C7.92805 7.65583 2.19699 9.60958 2.19699 12.0003C2.19699 14.3913 7.92805 16.3452 14.9984 16.3452C22.0686 16.3452 27.7993 14.3913 27.7993 12.0003C27.7993 9.60958 22.0686 7.65583 14.9984 7.65583ZM14.9984 16.7389C7.67066 16.7389 1.73047 14.6174 1.73047 12.0003C1.73047 9.38286 7.67066 7.26172 14.9984 7.26172C22.3254 7.26172 28.2652 9.38286 28.2652 12.0003C28.2652 14.6174 22.3254 16.7389 14.9984 16.7389Z" fill="white"/>
</svg>
