<svg width="317" height="193" viewBox="0 0 317 193" fill="none" xmlns="http://www.w3.org/2000/svg">
<g clip-path="url(#clip0_4485_2310)">
<path d="M53.816 192.175C53.816 192.175 24.7316 119.889 23.788 118.147C22.8378 116.404 27.2632 105.332 27.4227 104.86C27.5822 104.388 103.446 102.326 103.446 102.326L153.389 192.501" fill="#D4B8F5"/>
<path d="M53.816 192.175C53.816 192.175 24.7315 119.889 23.788 118.147C22.8378 116.404 27.2632 105.332 27.4227 104.86C27.5822 104.388 103.446 102.326 103.446 102.326L153.389 192.501" stroke="black" stroke-width="0.6" stroke-linecap="round" stroke-linejoin="round"/>
<path d="M64.0757 184.88L65.8232 188.691" stroke="black" stroke-width="0.6" stroke-linecap="round" stroke-linejoin="round"/>
<path d="M31.9278 114.875L62.1484 180.677" stroke="black" stroke-width="0.6" stroke-linecap="round" stroke-linejoin="round"/>
<path d="M28.0473 106.443L30.0806 110.865" stroke="black" stroke-width="0.6" stroke-linecap="round" stroke-linejoin="round"/>
<path d="M44.0147 91.573C44.0147 91.573 63.1385 88.4076 73.8898 89.8307C84.6345 91.2538 97.7913 92.0917 97.7913 92.0917C97.7913 92.0917 116.875 90.1499 117.194 91.573C117.513 92.9961 123.992 119.57 125.726 128.115C127.467 136.654 131.733 149.788 129.52 151.371C127.308 152.953 88.5815 161.492 88.1097 161.492C87.638 161.492 68.5141 167.663 66.6137 167.032C64.7199 166.4 63.2913 163.075 63.2913 163.075C63.2913 163.075 51.5964 139.819 47.9617 121.631C44.327 103.443 44.008 91.5797 44.008 91.5797L44.0147 91.573Z" fill="white" stroke="black" stroke-width="0.6" stroke-linecap="round" stroke-linejoin="round"/>
<path d="M66.813 106.602C65.9957 106.137 65.1916 105.711 64.4009 105.332" stroke="black" stroke-width="0.6" stroke-linecap="round" stroke-linejoin="round"/>
<path d="M81.4717 117.355C81.4717 117.355 76.096 112.601 70.2021 108.704" stroke="black" stroke-width="0.6" stroke-linecap="round" stroke-linejoin="round"/>
<path d="M67.564 101.222C67.564 101.222 72.7802 103.756 75.7837 106.443" stroke="black" stroke-width="0.6" stroke-linecap="round" stroke-linejoin="round"/>
<path d="M78.468 152.787C78.468 152.787 77.046 155.793 74.9928 158.167" stroke="black" stroke-width="0.6" stroke-linecap="round" stroke-linejoin="round"/>
<path d="M100.31 111.85C100.31 111.85 110.111 112.548 116.975 117.316C123.839 122.084 127.899 127.125 128.882 129.512C129.866 131.893 131.122 137.08 131.261 137.785C131.401 138.49 138.265 139.887 138.404 141.848C138.544 143.81 138.963 147.594 138.963 147.594L140.923 149.277C140.923 149.277 122.576 156.006 113.334 160.768C104.091 165.536 95.1267 171.142 95.1267 171.142C95.1267 171.142 87.9835 168.196 84.6212 162.171C81.2589 156.146 77.1989 153.34 77.0594 142.128C76.9199 130.916 75.2387 116.758 76.6408 114.377C78.0429 111.996 80.2822 110.872 80.2822 110.872C80.2822 110.872 96.3892 108.91 100.31 111.856V111.85Z" fill="#55268E" stroke="black" stroke-width="0.6" stroke-linecap="round" stroke-linejoin="round"/>
<path d="M137.388 150.64C137.388 150.64 132.451 147.162 131.354 144.422C130.258 141.675 129.341 135.271 128.61 132.345C127.879 129.419 125.135 124.658 122.762 122.65" stroke="black" stroke-width="0.6" stroke-linecap="round" stroke-linejoin="round"/>
<path d="M115.48 145.599C115.001 146.344 114.51 147.029 114.038 147.594" stroke="black" stroke-width="0.6" stroke-linecap="round" stroke-linejoin="round"/>
<path d="M120.337 136.103C120.337 136.103 118.669 140.073 116.649 143.644" stroke="black" stroke-width="0.6" stroke-linecap="round" stroke-linejoin="round"/>
<path d="M122.723 134.979C122.723 134.979 121.042 142.966 120.204 144.648" stroke="black" stroke-width="0.6" stroke-linecap="round" stroke-linejoin="round"/>
<path d="M102.13 75.6866C102.13 75.6866 107.871 83.5337 107.592 85.2162C107.313 86.8987 106.755 87.7366 107.034 88.5812C107.313 89.4191 110.676 90.9619 111.094 92.5047C111.513 94.0475 109.553 95.73 109.553 95.73C109.553 95.73 108.569 105.399 107.592 106.244C106.609 107.082 101.433 107.507 101.433 107.507C101.433 107.507 101.712 111.71 101.851 112.834C101.991 113.958 107.732 120.123 107.871 121.805C108.011 123.487 100.31 118.859 100.31 118.859L94.9871 112.555C94.9871 112.555 91.3458 110.314 90.2228 108.212C89.0998 106.111 88.4021 94.0542 92.3226 84.8039C96.243 75.5536 101.147 74.0108 102.124 75.6933L102.13 75.6866Z" fill="#FEDFC5" stroke="black" stroke-width="0.6" stroke-linecap="round" stroke-linejoin="round"/>
<path d="M108.165 99.3404C108.165 99.3404 105.832 100.001 103.332 99.3778" stroke="black" stroke-width="0.6" stroke-linecap="round" stroke-linejoin="round"/>
<path d="M104.529 89.17C104.529 89.17 103.129 88.4005 101.95 89.1211" stroke="black" stroke-width="0.6" stroke-linecap="round" stroke-linejoin="round"/>
<path d="M105.529 86.2727C105.529 86.2727 103.003 85.3909 101.249 86.1291" stroke="black" stroke-width="0.6" stroke-linecap="round" stroke-linejoin="round"/>
<path d="M101.433 107.507H97.6518L101.851 112.834L101.433 107.507Z" fill="black" stroke="black" stroke-width="0.6" stroke-linecap="round" stroke-linejoin="round"/>
<path d="M102.13 75.6867C102.13 75.6867 101.007 85.2162 97.7913 92.0858C94.5686 98.9553 93.027 101.057 93.027 101.057C93.027 101.057 93.027 106.523 94.7081 108.066C96.3892 109.609 98.2099 109.469 98.2099 109.469C98.2099 109.469 100.17 112.275 93.8709 113.113C87.5716 113.951 85.8904 111.012 83.6445 110.733C81.4052 110.453 80.2822 110.872 80.2822 110.872C80.2822 110.872 79.724 109.19 80.1426 107.368C80.5613 105.546 80.8403 104.142 80.8403 104.142C80.8403 104.142 76.6408 99.2346 76.7804 93.6286C76.9199 88.0226 75.2388 84.7973 78.322 78.207C81.4052 71.6168 97.6518 70.4996 100.728 70.3599C103.812 70.2203 104.23 70.4996 105.632 72.7407C107.034 74.9817 111.094 78.3467 111.094 80.8737C111.094 83.4008 107.034 88.5812 107.034 88.5812L107.592 85.2162C107.592 85.2162 104.23 79.4706 102.13 75.6867Z" fill="black" stroke="black" stroke-width="0.6" stroke-linecap="round" stroke-linejoin="round"/>
<g clip-path="url(#clip1_4485_2310)">
<path d="M201.889 89.8207C201.82 89.8207 201.744 89.8207 201.669 89.8091C200.664 89.7044 199.659 89.1114 198.77 88.1055C198.366 87.6462 197.788 87.3845 197.187 87.3845H167.229C166.564 87.3845 165.929 87.6404 165.427 88.1113C164.624 88.8672 163.394 89.7626 162.065 89.7626C160.379 89.7626 159.171 88.2509 158.721 86.7508L160.148 86.3147C160.384 87.0938 161.089 88.2625 162.065 88.2625C162.724 88.2625 163.555 87.8206 164.41 87.0124C165.184 86.2798 166.189 85.8786 167.229 85.8786H197.187C198.215 85.8786 199.197 86.3263 199.885 87.0996C200.329 87.6055 201.028 88.2218 201.825 88.309C202.622 88.3904 203.587 86.5008 203.968 85.1053L205.406 85.5065C205.285 85.96 204.159 89.8149 201.889 89.8149V89.8207Z" fill="#E0E0E0"/>
<path d="M201.889 89.8207C201.866 89.7684 202.472 89.9021 203.258 89.2568C204.032 88.6404 204.823 87.3206 205.343 85.4891L205.389 85.5763C204.938 85.4542 204.459 85.3205 203.951 85.1868L204.043 85.1344C203.893 85.6752 203.691 86.2275 203.419 86.7799C203.281 87.059 203.125 87.3322 202.94 87.5997C202.749 87.8613 202.541 88.1346 202.218 88.3148C202.062 88.4021 201.837 88.4311 201.669 88.3846C201.496 88.3497 201.323 88.2974 201.161 88.2218C200.832 88.0765 200.531 87.8613 200.26 87.6171C199.977 87.3787 199.758 87.0706 199.48 86.8438C199.209 86.6054 198.891 86.4078 198.545 86.2624C198.204 86.117 197.828 86.024 197.441 86.0008C197.06 85.9833 196.644 86.0008 196.24 85.9949C195.426 85.9949 194.582 85.9949 193.722 86.0008C191.995 86.0008 190.181 86.0066 188.293 86.0124C184.51 86.0124 180.409 86.024 176.083 86.0298C173.917 86.0298 171.699 86.0298 169.429 86.0298C168.863 86.0298 168.291 86.0298 167.719 86.0298C167.136 86.0182 166.593 86.0298 166.056 86.2101C165.525 86.3787 165.028 86.6578 164.606 87.0357C164.179 87.4311 163.711 87.8264 163.162 88.1055C162.851 88.2625 162.51 88.3846 162.14 88.4079C161.765 88.4369 161.395 88.28 161.112 88.0648C160.552 87.6171 160.205 87.0008 159.997 86.3554L160.182 86.4543C159.697 86.5996 159.223 86.745 158.756 86.8903L158.854 86.7043C159.085 87.4601 159.483 88.1637 160.026 88.7102C160.569 89.2568 161.291 89.6114 162.042 89.6056C162.793 89.6056 163.521 89.3149 164.156 88.9079C164.474 88.7044 164.78 88.4776 165.063 88.2276C165.334 87.9834 165.64 87.6869 165.998 87.5183C166.356 87.338 166.749 87.2392 167.148 87.2276C167.523 87.2276 167.899 87.2276 168.268 87.2276C169.007 87.2276 169.747 87.2276 170.469 87.2276C171.918 87.2276 173.339 87.2276 174.72 87.2276C180.247 87.2392 185.185 87.2508 189.321 87.2625C191.383 87.2683 193.248 87.2799 194.883 87.2857C195.697 87.2857 196.46 87.2915 197.158 87.2973C197.886 87.2973 198.504 87.6695 198.868 88.123C199.625 88.9777 200.422 89.4312 200.982 89.6114C201.265 89.7045 201.49 89.7452 201.64 89.7684C201.791 89.7859 201.871 89.7917 201.871 89.7975C201.871 89.7975 201.548 89.8382 200.965 89.6638C200.387 89.4951 199.567 89.0533 198.787 88.1927C198.429 87.7567 197.846 87.4194 197.158 87.4253C196.46 87.4253 195.703 87.4311 194.883 87.4369C193.248 87.4427 191.383 87.4485 189.321 87.4601C185.185 87.4718 180.241 87.4834 174.72 87.495C173.339 87.495 171.918 87.495 170.469 87.495C169.741 87.495 169.007 87.495 168.268 87.495C167.899 87.495 167.529 87.495 167.153 87.495C166.801 87.5008 166.449 87.5939 166.125 87.7567C165.796 87.9137 165.548 88.1579 165.247 88.4253C164.953 88.6811 164.641 88.9195 164.306 89.1347C163.642 89.5591 162.868 89.8789 162.036 89.8789C161.199 89.8847 160.396 89.4835 159.812 88.8963C159.223 88.309 158.808 87.5648 158.559 86.7624L158.513 86.6171L158.657 86.5706C159.125 86.4252 159.599 86.2798 160.084 86.1345L160.223 86.0938L160.269 86.2391C160.454 86.8264 160.789 87.4136 161.28 87.7916C161.522 87.9776 161.811 88.0939 162.111 88.0706C162.412 88.0532 162.723 87.9485 163.006 87.8032C163.515 87.5474 163.954 87.1811 164.387 86.7799C164.837 86.3787 165.375 86.0705 165.946 85.8903C166.512 85.6926 167.136 85.681 167.696 85.6926C168.268 85.6926 168.84 85.6926 169.406 85.6926C171.676 85.6926 173.894 85.6926 176.06 85.6926C180.386 85.6926 184.481 85.7042 188.27 85.71C190.164 85.71 191.978 85.7159 193.699 85.7217C194.559 85.7217 195.403 85.7217 196.217 85.7275C196.627 85.7333 197.02 85.7159 197.43 85.7391C197.84 85.7682 198.233 85.867 198.597 86.024C198.96 86.181 199.295 86.3903 199.584 86.6461C199.879 86.902 200.093 87.1985 200.358 87.4253C200.618 87.6578 200.901 87.8671 201.207 88.0009C201.508 88.123 201.848 88.2509 202.102 88.0997C202.634 87.7799 202.957 87.1752 203.235 86.652C203.506 86.1112 203.714 85.5647 203.864 85.0414L203.887 84.9658L203.962 84.9891C204.471 85.1344 204.95 85.2682 205.4 85.3961L205.47 85.4135L205.452 85.4775C204.909 87.3264 204.089 88.6463 203.281 89.2626C202.888 89.5882 202.501 89.687 202.253 89.7452C201.998 89.7684 201.866 89.7684 201.866 89.7684L201.889 89.8207Z" fill="#263238"/>
<path d="M182.817 73.1395H178.924V276.191H182.817V73.1395Z" fill="#E0E0E0"/>
<path d="M178.925 276.191C178.925 275.436 178.896 253.545 178.844 216.921C178.832 180.209 178.809 129.428 178.786 73.1395V73H178.925C180.149 73 181.477 73 182.806 73H182.956V73.1395C182.898 174.134 182.852 258.19 182.846 276.191V276.221H182.823C180.218 276.203 179.104 276.197 178.93 276.191C179.104 276.191 180.218 276.186 182.823 276.168L182.8 276.191C182.788 258.19 182.742 174.134 182.69 73.1395L182.829 73.2791H182.817C181.489 73.2791 180.161 73.2791 178.936 73.2791L179.075 73.1395C179.052 129.387 179.034 180.128 179.017 216.816C178.965 253.504 178.936 275.436 178.936 276.191H178.925Z" fill="#263238"/>
<path d="M178.924 97.2223C178.855 97.2223 178.797 93.7977 178.797 89.5766C178.797 85.3554 178.855 81.9308 178.924 81.9308C178.994 81.9308 179.051 85.3554 179.051 89.5766C179.051 93.7977 178.994 97.2223 178.924 97.2223Z" fill="#263238"/>
<path d="M169.984 93.1406H155.042C154.174 93.1406 153.471 93.8487 153.471 94.7221V118.956C153.471 119.829 154.174 120.537 155.042 120.537H169.984C170.851 120.537 171.555 119.829 171.555 118.956V94.7221C171.555 93.8487 170.851 93.1406 169.984 93.1406Z" fill="#F5F5F5"/>
<path d="M169.984 120.543C169.984 120.543 170.319 120.584 170.815 120.27C171.052 120.113 171.318 119.84 171.439 119.439C171.508 119.235 171.514 119.014 171.508 118.764C171.508 118.514 171.508 118.252 171.503 117.973C171.491 115.717 171.479 112.485 171.456 108.49C171.456 106.49 171.445 104.292 171.439 101.943C171.439 100.769 171.439 99.5479 171.433 98.2978C171.433 97.6699 171.433 97.0361 171.433 96.3907C171.433 96.071 171.433 95.7454 171.433 95.4198C171.422 95.1 171.451 94.7511 171.404 94.4604C171.3 93.8557 170.763 93.3557 170.145 93.2917C169.498 93.2743 168.8 93.2917 168.118 93.2859C166.743 93.2859 165.334 93.2859 163.907 93.2859C161.049 93.2859 158.086 93.2859 155.053 93.2859C154.354 93.2743 153.702 93.8441 153.632 94.536C153.604 95.2511 153.627 96.0303 153.615 96.7629C153.615 98.2513 153.615 99.7165 153.615 101.158C153.615 104.037 153.615 106.816 153.609 109.467C153.609 112.113 153.598 114.63 153.598 116.985C153.598 117.572 153.598 118.154 153.598 118.718C153.546 119.282 153.742 119.799 154.152 120.119C154.349 120.276 154.585 120.386 154.834 120.421C155.071 120.456 155.348 120.439 155.608 120.444C156.128 120.444 156.636 120.444 157.133 120.444C161.1 120.462 164.312 120.479 166.553 120.491C167.656 120.503 168.517 120.508 169.111 120.514C169.394 120.52 169.614 120.526 169.776 120.526C169.926 120.526 170.001 120.537 170.001 120.537C170.001 120.537 169.926 120.549 169.776 120.549C169.614 120.549 169.394 120.555 169.111 120.561C168.511 120.566 167.65 120.578 166.553 120.584C164.318 120.596 161.1 120.607 157.133 120.63C156.636 120.63 156.128 120.63 155.608 120.63C155.348 120.625 155.094 120.648 154.805 120.607C154.522 120.566 154.256 120.444 154.025 120.264C153.8 120.084 153.615 119.84 153.505 119.566C153.39 119.293 153.378 118.968 153.384 118.694C153.384 118.124 153.384 117.549 153.384 116.962C153.384 114.607 153.378 112.089 153.373 109.444C153.373 106.798 153.373 104.019 153.367 101.135C153.367 99.6932 153.367 98.2281 153.367 96.7396C153.373 95.9896 153.349 95.2628 153.384 94.472C153.471 93.6406 154.245 92.9661 155.076 92.9778C158.109 92.9778 161.072 92.9778 163.931 92.9778C165.363 92.9778 166.766 92.9778 168.141 92.9778C168.834 92.9778 169.498 92.9661 170.197 92.9894C170.931 93.065 171.555 93.658 171.676 94.3674C171.734 94.7337 171.699 95.0476 171.705 95.3732C171.705 95.6988 171.705 96.0244 171.705 96.3442C171.705 96.9896 171.705 97.6234 171.705 98.2513C171.705 99.5072 171.705 100.722 171.699 101.897C171.693 104.252 171.687 106.444 171.682 108.444C171.664 112.438 171.647 115.671 171.635 117.927C171.635 118.206 171.635 118.468 171.63 118.718C171.63 118.962 171.618 119.212 171.543 119.415C171.404 119.84 171.121 120.119 170.867 120.27C170.613 120.427 170.382 120.473 170.238 120.491C170.088 120.508 170.012 120.491 170.012 120.491L169.984 120.543Z" fill="#263238"/>
<path d="M168.644 104.862H156.826C156.147 104.862 155.596 105.417 155.596 106.101V117.2C155.596 117.884 156.147 118.439 156.826 118.439H168.644C169.323 118.439 169.874 117.884 169.874 117.2V106.101C169.874 105.417 169.323 104.862 168.644 104.862Z" fill="#F6462D"/>
<path d="M167.575 108.822H158.524V111.653H167.575V108.822Z" fill="white"/>
<path d="M163.48 94.7395C163.48 95.2977 163.029 95.757 162.469 95.757C161.909 95.757 161.458 95.3035 161.458 94.7395C161.458 94.1756 161.909 93.722 162.469 93.722C163.029 93.722 163.48 94.1756 163.48 94.7395Z" fill="#263238"/>
<path d="M162.81 95.0244C163.18 92.6173 163.122 90.1753 162.625 87.7857C162.539 87.367 161.903 87.5415 161.99 87.9601C162.458 90.2218 162.521 92.5592 162.175 94.8442C162.111 95.2628 162.747 95.4431 162.81 95.0186V95.0244Z" fill="#263238"/>
<path d="M209.634 93.1406H194.692C193.824 93.1406 193.121 93.8487 193.121 94.7221V118.956C193.121 119.829 193.824 120.537 194.692 120.537H209.634C210.502 120.537 211.205 119.829 211.205 118.956V94.7221C211.205 93.8487 210.502 93.1406 209.634 93.1406Z" fill="#F5F5F5"/>
<path d="M209.634 120.543C209.634 120.543 209.969 120.584 210.466 120.27C210.702 120.113 210.968 119.84 211.089 119.439C211.159 119.235 211.165 119.014 211.159 118.764C211.159 118.514 211.159 118.252 211.153 117.973C211.141 115.717 211.13 112.485 211.107 108.49C211.107 106.49 211.095 104.292 211.089 101.943C211.089 100.769 211.089 99.5479 211.084 98.2978C211.084 97.6699 211.084 97.0361 211.084 96.3907C211.084 96.071 211.084 95.7454 211.084 95.4198C211.072 95.1 211.101 94.7511 211.055 94.4604C210.951 93.8557 210.414 93.3557 209.796 93.2917C209.149 93.2743 208.45 93.2917 207.768 93.2859C206.394 93.2859 204.984 93.2859 203.558 93.2859C200.699 93.2859 197.736 93.2859 194.704 93.2859C194.005 93.2743 193.352 93.8441 193.283 94.536C193.254 95.2511 193.277 96.0303 193.266 96.7629C193.266 98.2513 193.266 99.7165 193.266 101.158C193.266 104.037 193.266 106.816 193.26 109.467C193.26 112.113 193.248 114.63 193.248 116.985C193.248 117.572 193.248 118.154 193.248 118.718C193.196 119.282 193.393 119.799 193.803 120.119C193.999 120.276 194.236 120.386 194.484 120.421C194.721 120.456 194.998 120.439 195.258 120.444C195.778 120.444 196.286 120.444 196.783 120.444C200.751 120.462 203.962 120.479 206.203 120.491C207.306 120.503 208.167 120.508 208.762 120.514C209.045 120.52 209.264 120.526 209.426 120.526C209.576 120.526 209.651 120.537 209.651 120.537C209.651 120.537 209.576 120.549 209.426 120.549C209.264 120.549 209.045 120.555 208.762 120.561C208.161 120.566 207.301 120.578 206.203 120.584C203.968 120.596 200.751 120.607 196.783 120.63C196.286 120.63 195.778 120.63 195.258 120.63C194.998 120.625 194.744 120.648 194.455 120.607C194.172 120.566 193.907 120.444 193.676 120.264C193.45 120.084 193.266 119.84 193.156 119.566C193.04 119.293 193.029 118.968 193.034 118.694C193.034 118.124 193.034 117.549 193.034 116.962C193.034 114.607 193.029 112.089 193.023 109.444C193.023 106.798 193.023 104.019 193.017 101.135C193.017 99.6932 193.017 98.2281 193.017 96.7396C193.023 95.9896 193 95.2628 193.034 94.472C193.121 93.6406 193.895 92.9661 194.727 92.9778C197.759 92.9778 200.722 92.9778 203.581 92.9778C205.013 92.9778 206.417 92.9778 207.792 92.9778C208.485 92.9778 209.149 92.9661 209.848 92.9894C210.581 93.065 211.205 93.658 211.326 94.3674C211.384 94.7337 211.349 95.0476 211.355 95.3732C211.355 95.6988 211.355 96.0244 211.355 96.3442C211.355 96.9896 211.355 97.6234 211.355 98.2513C211.355 99.5072 211.355 100.722 211.349 101.897C211.344 104.252 211.338 106.444 211.332 108.444C211.315 112.438 211.297 115.671 211.286 117.927C211.286 118.206 211.286 118.468 211.28 118.718C211.28 118.962 211.269 119.212 211.193 119.415C211.055 119.84 210.772 120.119 210.518 120.27C210.264 120.427 210.032 120.473 209.888 120.491C209.738 120.508 209.663 120.491 209.663 120.491L209.634 120.543Z" fill="#263238"/>
<path d="M208.294 104.862H196.477C195.797 104.862 195.247 105.417 195.247 106.101V117.2C195.247 117.884 195.797 118.439 196.477 118.439H208.294C208.973 118.439 209.524 117.884 209.524 117.2V106.101C209.524 105.417 208.973 104.862 208.294 104.862Z" fill="#E0E0E0"/>
<path d="M207.225 108.822H198.175V111.653H207.225V108.822Z" fill="white"/>
<path d="M203.13 94.7395C203.13 95.2977 202.68 95.757 202.12 95.757C201.559 95.757 201.109 95.3035 201.109 94.7395C201.109 94.1756 201.559 93.722 202.12 93.722C202.68 93.722 203.13 94.1756 203.13 94.7395Z" fill="#263238"/>
<path d="M202.461 95.0244C202.83 92.6173 202.772 90.1753 202.276 87.7857C202.189 87.367 201.554 87.5415 201.64 87.9601C202.108 90.2218 202.172 92.5592 201.825 94.8442C201.762 95.2628 202.397 95.4431 202.461 95.0186V95.0244Z" fill="#263238"/>
<path d="M207.878 102.955C207.994 103.06 205.868 105.234 203.165 107.816C201.814 109.107 200.578 110.264 199.671 111.089C199.22 111.502 198.845 111.834 198.585 112.054C198.325 112.275 198.175 112.392 198.163 112.38C198.152 112.368 198.273 112.223 198.516 111.973C198.799 111.688 199.139 111.345 199.538 110.944C200.41 110.083 201.629 108.903 202.975 107.612C205.319 105.38 206.919 103.862 207.878 102.949V102.955Z" fill="#263238"/>
<path d="M207.607 100.984C207.653 101.042 205.689 102.694 203.217 104.67C200.745 106.647 198.701 108.2 198.654 108.141C198.608 108.083 200.572 106.432 203.05 104.455C205.522 102.478 207.566 100.926 207.613 100.984H207.607Z" fill="#263238"/>
</g>
<path d="M70.6205 192.594C70.6205 192.594 68.8929 185.512 84.6012 173.588C100.31 161.664 134.491 146.808 143.295 146.635C152.099 146.462 159.694 151.47 159.694 151.47C159.694 151.47 169.708 145.079 176.094 148.358C182.48 151.643 186.28 156.304 187.663 158.206C189.045 160.108 194.221 165.635 194.221 165.635C194.221 165.635 206.653 163.041 215.106 169.438C223.565 175.829 227.013 192.501 227.013 192.501" fill="white"/>
<path d="M70.6205 192.594C70.6205 192.594 68.8929 185.512 84.6012 173.588C100.31 161.664 134.491 146.808 143.295 146.635C152.099 146.462 159.694 151.47 159.694 151.47C159.694 151.47 169.708 145.079 176.094 148.358C182.48 151.643 186.28 156.304 187.663 158.206C189.045 160.108 194.221 165.635 194.221 165.635C194.221 165.635 206.653 163.041 215.106 169.438C223.565 175.829 227.013 192.501 227.013 192.501" stroke="black" stroke-width="0.6" stroke-linecap="round" stroke-linejoin="round"/>
<path d="M111.267 170.429C110.662 171.054 110.104 171.706 109.632 172.378" stroke="black" stroke-width="0.6" stroke-linecap="round" stroke-linejoin="round"/>
<path d="M137.6 155.447L129.999 158.526L122.297 162.868C122.297 162.868 117.134 165.289 112.995 168.813" stroke="black" stroke-width="0.6" stroke-linecap="round" stroke-linejoin="round"/>
<path d="M139.674 155.101C139.674 155.101 156.937 152.68 159.701 151.47" stroke="black" stroke-width="0.6" stroke-linecap="round" stroke-linejoin="round"/>
<path d="M111.632 179.4C108.748 181.887 106.077 184.581 103.938 187.407" stroke="black" stroke-width="0.6" stroke-linecap="round" stroke-linejoin="round"/>
<path d="M136.391 163.566C136.391 163.566 124.111 169.285 113.613 177.744" stroke="black" stroke-width="0.6" stroke-linecap="round" stroke-linejoin="round"/>
<path d="M143.089 170.855C135.208 177.465 126.809 186.642 126.384 188.797" stroke="black" stroke-width="0.6" stroke-linecap="round" stroke-linejoin="round"/>
<path d="M156.937 157.176C156.937 157.176 156.591 160.98 147.787 167.197C146.75 167.929 145.667 168.753 144.564 169.645" stroke="black" stroke-width="0.6" stroke-linecap="round" stroke-linejoin="round"/>
<path d="M148.272 180.896C143.687 183.776 139.647 186.509 137.773 188.271" stroke="black" stroke-width="0.6" stroke-linecap="round" stroke-linejoin="round"/>
<path d="M194.221 165.641L179.968 167.31C172.698 168.162 165.681 170.509 159.356 174.207C156.605 175.816 153.568 177.625 150.631 179.427" stroke="black" stroke-width="0.6" stroke-linecap="round" stroke-linejoin="round"/>
<path d="M207.292 192.668V158.627C207.292 155.587 209.75 153.127 212.787 153.127H286.571C289.608 153.127 292.066 155.587 292.066 158.627V192.668M279.468 160.322C282.166 160.322 284.398 162.264 284.87 164.824H287.9V162.025C287.9 158.986 285.442 156.525 282.405 156.525H279.089L277.235 160.322H279.474H279.468ZM233.114 160.322H266.138L267.527 156.525H231.731L233.12 160.322H233.114ZM211.465 164.824H214.495C214.966 162.264 217.199 160.322 219.897 160.322H222.03L220.176 156.525H216.967C213.93 156.525 211.471 158.986 211.471 162.025V164.824H211.465Z" fill="#C4C4C4"/>
<path d="M207.292 192.668V158.627C207.292 155.587 209.75 153.127 212.787 153.127H286.571C289.608 153.127 292.066 155.587 292.066 158.627V192.668M279.468 160.322C282.166 160.322 284.398 162.264 284.87 164.824H287.9V162.025C287.9 158.986 285.442 156.525 282.405 156.525H279.089L277.235 160.322H279.474H279.468ZM233.114 160.322H266.138L267.527 156.525H231.731L233.12 160.322H233.114ZM211.465 164.824H214.495C214.966 162.264 217.199 160.322 219.897 160.322H222.03L220.176 156.525H216.967C213.93 156.525 211.471 158.986 211.471 162.025V164.824H211.465Z" stroke="black" stroke-width="0.6" stroke-linecap="round" stroke-linejoin="round"/>
<path d="M209.225 192.668V158.627C209.225 155.587 211.684 153.127 214.721 153.127H288.505C291.541 153.127 294 155.587 294 158.627V192.668M281.401 160.322C284.099 160.322 286.332 162.264 286.804 164.824H289.834V162.025C289.834 158.986 287.375 156.525 284.338 156.525H281.023L279.169 160.322H281.408H281.401ZM235.047 160.322H268.072L269.461 156.525H233.665L235.054 160.322H235.047ZM213.392 164.824H216.422C216.893 162.264 219.126 160.322 221.824 160.322H223.957L222.103 156.525H218.894C215.857 156.525 213.398 158.986 213.398 162.025V164.824H213.392Z" fill="#C4C4C4"/>
<path d="M209.225 192.668V158.627C209.225 155.587 211.684 153.127 214.721 153.127H288.505C291.541 153.127 294 155.587 294 158.627V192.668M281.401 160.322C284.099 160.322 286.332 162.264 286.804 164.824H289.834V162.025C289.834 158.986 287.375 156.525 284.338 156.525H281.023L279.169 160.322H281.408H281.401ZM235.047 160.322H268.072L269.461 156.525H233.665L235.054 160.322H235.047ZM213.392 164.824H216.422C216.893 162.264 219.126 160.322 221.824 160.322H223.957L222.103 156.525H218.894C215.857 156.525 213.398 158.986 213.398 162.025V164.824H213.392Z" stroke="black" stroke-width="0.6" stroke-linecap="round" stroke-linejoin="round"/>
<path d="M228.974 174.101H280.192V187.614H228.974V174.101Z" fill="#DEDEDE" stroke="black" stroke-width="0.6" stroke-linecap="round" stroke-linejoin="round"/>
<path d="M93.0273 167.916C93.0273 167.916 94.1503 169.039 95.6853 167.636C97.2202 166.233 101.008 160.068 101.566 158.945C102.124 157.821 99.1871 157.402 97.2269 158.386C95.2666 159.37 91.6253 164.69 93.0273 167.916Z" fill="black" stroke="black" stroke-linecap="round" stroke-linejoin="round"/>
<path d="M90.2297 117.036C90.2297 117.036 97.0938 131.752 99.6122 134.698C102.131 137.644 105.912 138.343 105.772 139.746C105.632 141.149 104.37 144.374 104.649 144.933C104.928 145.491 107.453 147.453 107.453 147.453L129.999 158.526L122.298 162.868L98.4892 160.062L94.0106 165.109L93.0272 167.916C93.0272 167.916 84.9072 162.589 82.5217 157.541C80.1429 152.494 79.1594 142.825 79.1594 142.825C79.1594 142.825 77.8969 138.762 77.6178 137.219C77.3388 135.676 75.5181 120.82 76.0763 117.594C76.6344 114.369 78.7342 111.43 80.2758 110.864C81.8174 110.306 87.0004 111.988 88.6815 113.95" fill="#55268E"/>
<path d="M90.2297 117.036C90.2297 117.036 97.0938 131.752 99.6122 134.698C102.131 137.644 105.912 138.343 105.772 139.746C105.632 141.149 104.37 144.374 104.649 144.933C104.928 145.491 107.453 147.453 107.453 147.453L129.999 158.526L122.298 162.868L98.4892 160.062L94.0106 165.109L93.0272 167.916C93.0272 167.916 84.9072 162.589 82.5217 157.541C80.1429 152.494 79.1594 142.825 79.1594 142.825C79.1594 142.825 77.8969 138.762 77.6178 137.219C77.3388 135.676 75.5181 120.82 76.0763 117.594C76.6344 114.369 78.7342 111.43 80.2758 110.864C81.8174 110.306 87.0004 111.988 88.6815 113.95" stroke="black" stroke-width="0.6" stroke-linecap="round" stroke-linejoin="round"/>
<path d="M92.5288 154.855C92.0504 155.719 91.645 156.617 91.346 157.548" stroke="black" stroke-linecap="round" stroke-linejoin="round"/>
<path d="M102.975 144.514C102.975 144.514 97.5591 147.799 93.9509 152.674" stroke="black" stroke-linecap="round" stroke-linejoin="round"/>
<path d="M108.304 147.872L129.999 158.526L122.298 162.868L98.4892 160.062C98.4892 160.062 101.792 151.656 108.304 147.865V147.872Z" fill="#FEDFC5" stroke="black" stroke-width="0.6" stroke-linecap="round" stroke-linejoin="round"/>
<path d="M92.9409 147.945C92.1236 148.723 91.4192 149.634 90.9209 150.678" stroke="black" stroke-linecap="round" stroke-linejoin="round"/>
<path d="M100.729 143.809C100.729 143.809 97.446 144.614 94.5422 146.642" stroke="black" stroke-linecap="round" stroke-linejoin="round"/>
</g>
<defs>
<clipPath id="clip0_4485_2310">
<rect width="286" height="123" fill="white" transform="matrix(-1 0 0 1 310 70)"/>
</clipPath>
<clipPath id="clip1_4485_2310">
<rect width="58" height="210" fill="white" transform="translate(153.332 73)"/>
</clipPath>
</defs>
</svg>
