<svg width="55" height="82" viewBox="0 0 55 82" fill="none" xmlns="http://www.w3.org/2000/svg">
<ellipse cx="2.99728" cy="2.85605" rx="2.99728" ry="2.85605" fill="#44226E"/>
<ellipse cx="23.3789" cy="2.85605" rx="2.99728" ry="2.85605" fill="#44226E"/>
<ellipse cx="43.7612" cy="2.85605" rx="2.99728" ry="2.85605" fill="#44226E"/>
<ellipse cx="2.99728" cy="21.7566" rx="2.99728" ry="2.85605" fill="#44226E"/>
<ellipse cx="23.3789" cy="21.7566" rx="2.99728" ry="2.85605" fill="#44226E"/>
<ellipse cx="43.7612" cy="21.7566" rx="2.99728" ry="2.85605" fill="#44226E"/>
<ellipse cx="2.99728" cy="40.6573" rx="2.99728" ry="2.85605" fill="#44226E"/>
<ellipse cx="23.3789" cy="40.6573" rx="2.99728" ry="2.85605" fill="#44226E"/>
<ellipse cx="43.7612" cy="40.6573" rx="2.99728" ry="2.85605" fill="#44226E"/>
<ellipse cx="2.99728" cy="59.5578" rx="2.99728" ry="2.85605" fill="#44226E"/>
<ellipse cx="23.3789" cy="59.5578" rx="2.99728" ry="2.85605" fill="#44226E"/>
<ellipse cx="43.7612" cy="59.5578" rx="2.99728" ry="2.85605" fill="#44226E"/>
<ellipse cx="2.99728" cy="78.4547" rx="2.99728" ry="2.85605" fill="#44226E"/>
<ellipse cx="23.3789" cy="78.4547" rx="2.99728" ry="2.85605" fill="#44226E"/>
<ellipse cx="43.7612" cy="78.4547" rx="2.99728" ry="2.85605" fill="#44226E"/>
</svg>
