<svg width="24" height="24" viewBox="0 0 24 24" fill="none" xmlns="http://www.w3.org/2000/svg">
<path fill-rule="evenodd" clip-rule="evenodd" d="M7.84818 7.07455C12.0387 2.88407 17.1148 1.81741 19.191 4.64598C21.2196 7.51264 19.4101 13.2555 15.2196 17.4079C11.0291 21.5984 5.90532 22.7031 3.87675 19.8365C1.83866 16.9698 3.61008 11.2269 7.84818 7.07455Z" fill="#EF8022"/>
<path fill-rule="evenodd" clip-rule="evenodd" d="M10.6283 4.82872C10.1426 5.1811 9.70449 5.5811 9.21878 6.01919C5.54259 9.68586 3.99973 14.6763 5.80925 17.143C7.70449 19.6573 12.2093 18.7811 16.0093 15.0668C17.9997 13.0763 19.3616 10.7811 19.9426 8.66681C20.1235 7.12395 19.895 5.70491 19.1902 4.64776C17.5521 2.44776 14.0664 2.61919 10.6283 4.82872Z" fill="#AC2930"/>
<path fill-rule="evenodd" clip-rule="evenodd" d="M15.7048 4.69704C16.1905 5.23038 15.8858 6.28752 15.0382 7.12561C14.2001 7.96371 13.0953 8.23038 12.6096 7.79228C12.1239 7.25895 12.3905 6.2018 13.2286 5.31609C14.1144 4.47799 15.2191 4.25895 15.7048 4.69704ZM12.6953 19.4875C10.7525 20.9923 8.67626 21.7351 6.69531 21.3828C7.53341 21.4304 8.20007 20.497 8.7715 19.2685C9.34293 17.9923 9.65722 16.8399 9.96198 15.7351C10.3144 13.9732 10.362 12.7351 10.1429 12.4209C9.83817 12.0209 9.08579 12.1161 8.20007 12.6018C7.76198 12.8685 7.22865 12.6875 7.89531 11.897C8.56198 11.1066 11.162 9.16371 12.1334 8.89704C13.1525 8.59228 14.3429 8.98276 13.9429 10.1351C13.6286 10.9637 10.0096 20.5066 12.6953 19.4875Z" fill="white"/>
</svg>
