<svg width="32" height="32" viewBox="0 0 32 32" fill="none" xmlns="http://www.w3.org/2000/svg">
<path d="M4 13.8902C4 9.62673 4 7.49501 4.50336 6.77785C5.00671 6.06069 7.01109 5.37458 11.0199 4.00236L11.7836 3.74093C13.8733 3.02562 14.9181 2.66797 16 2.66797C17.0819 2.66797 18.1267 3.02562 20.2164 3.74093L20.9801 4.00236C24.9889 5.37458 26.9933 6.06069 27.4967 6.77785C28 7.49501 28 9.62673 28 13.8902C28 14.5341 28 15.2325 28 15.9898C28 23.5072 22.348 27.1553 18.8019 28.7044C17.84 29.1245 17.3591 29.3346 16 29.3346C14.6409 29.3346 14.16 29.1245 13.1981 28.7044C9.65195 27.1553 4 23.5072 4 15.9898C4 15.2325 4 14.5341 4 13.8902Z" stroke="#44226E" stroke-width="2"/>
<path d="M12.668 16.532L14.5728 18.6654L19.3346 13.332" stroke="url(#paint0_linear_70562_8347)" stroke-width="2" stroke-linecap="round" stroke-linejoin="round"/>
<defs>
<linearGradient id="paint0_linear_70562_8347" x1="12.3705" y1="14.2812" x2="17.0421" y2="20.0035" gradientUnits="userSpaceOnUse">
<stop stop-color="#FFB421"/>
<stop offset="1" stop-color="#FF7800"/>
</linearGradient>
</defs>
</svg>
