<svg width="36" height="36" viewBox="0 0 36 36" fill="none" xmlns="http://www.w3.org/2000/svg">
<path d="M28.8188 13.2672C28.843 13.3373 28.8531 13.4116 28.8485 13.4857C28.8438 13.5598 28.8246 13.6323 28.7918 13.6989C28.759 13.7655 28.7134 13.825 28.6575 13.8739C28.6016 13.9228 28.5366 13.9601 28.4662 13.9838C28.3959 14.0074 28.3215 14.0169 28.2474 14.0116C28.1734 14.0064 28.1011 13.9865 28.0347 13.9532C27.9684 13.9199 27.9093 13.8737 27.8609 13.8175C27.8124 13.7612 27.7756 13.6959 27.7526 13.6253C26.4479 10.3877 27.7559 8.21291 28.8397 7.08239C28.2947 6.9975 27.7875 6.75163 27.3832 6.37636C26.979 6.00108 26.6961 5.51354 26.571 4.97633C21.4673 6.31665 18.9586 4.64673 17.9989 3.68762C17.0387 4.64727 14.5305 6.3161 9.4268 4.97627C9.3011 5.51319 9.01807 6.00041 8.61393 6.37559C8.2098 6.75078 7.70292 6.99687 7.15815 7.08239C8.24415 8.21508 9.55537 10.3964 8.23776 13.6445C7.55127 14.6671 3.52825 25.1203 11.3912 29.0534L17.9989 32.5516C19.5214 31.6482 25.503 28.8573 26.6473 27.6367C30.5025 24.0063 29.5505 18.7076 28.6403 15.872C28.6177 15.8017 28.6092 15.7276 28.6152 15.654C28.6213 15.5804 28.6418 15.5087 28.6755 15.443C28.7093 15.3773 28.7557 15.3189 28.812 15.2712C28.8683 15.2234 28.9335 15.1872 29.0038 15.1646C29.0742 15.142 29.1482 15.1335 29.2218 15.1395C29.2955 15.1456 29.3672 15.1661 29.4328 15.1998C29.4985 15.2336 29.5569 15.28 29.6047 15.3363C29.6525 15.3926 29.6887 15.4578 29.7113 15.5281C31.17 19.5416 31.3938 26.921 25.1384 30.0444L18.262 33.6852C18.181 33.7282 18.0906 33.7506 17.9989 33.7506C17.9072 33.7506 17.8169 33.7282 17.7358 33.6852L10.8624 30.046C2.11545 25.6074 6.4897 14.2716 7.21583 13.1765C8.84345 9.15826 5.62061 7.21697 5.48221 7.13624C5.37714 7.07215 5.29583 6.97556 5.25058 6.86111C5.20533 6.74666 5.19862 6.62058 5.23146 6.50197C5.2643 6.38336 5.3349 6.27869 5.43257 6.2038C5.53024 6.12892 5.64965 6.08791 5.77271 6.08698C7.26961 6.16204 8.483 5.47808 8.35675 4.3199C8.34654 4.22723 8.35923 4.13347 8.3937 4.04685C8.42818 3.96023 8.48339 3.88339 8.55448 3.82308C8.62558 3.76277 8.71039 3.72084 8.80147 3.70095C8.89255 3.68106 8.98713 3.68383 9.07689 3.70902C15.5264 5.65195 17.499 2.55271 17.5182 2.52085C17.5721 2.44329 17.644 2.37992 17.7277 2.33615C17.8114 2.29239 17.9044 2.26953 17.9989 2.26953C18.0933 2.26953 18.1864 2.29239 18.2701 2.33615C18.3538 2.37992 18.4257 2.44329 18.4795 2.52085C18.5576 2.645 20.5351 5.63273 26.9209 3.70904C27.0112 3.68272 27.1066 3.67932 27.1985 3.69913C27.2904 3.71894 27.376 3.76135 27.4474 3.82252C27.5188 3.88369 27.5739 3.96169 27.6076 4.04947C27.6413 4.13726 27.6527 4.23207 27.6406 4.32532C27.5222 5.46828 28.7136 6.16695 30.225 6.08705C30.3483 6.08782 30.468 6.12885 30.5659 6.2039C30.6637 6.27895 30.7344 6.3839 30.7671 6.5028C30.7998 6.6217 30.7928 6.74802 30.7471 6.86256C30.7014 6.9771 30.6195 7.07358 30.514 7.13732C30.3663 7.19312 27.1312 9.24778 28.8188 13.2672ZM24.488 9.88448C16.8821 6.39522 11.7796 9.7856 11.5664 9.93173C11.4436 10.0161 11.3593 10.1457 11.332 10.2921C11.3047 10.4385 11.3366 10.5898 11.4207 10.7128C11.5048 10.8357 11.6342 10.9203 11.7806 10.9479C11.927 10.9755 12.0783 10.9439 12.2014 10.8601C12.2487 10.8282 16.9849 7.67843 24.0189 10.9073C24.1545 10.9695 24.3093 10.9753 24.4492 10.9234C24.5891 10.8715 24.7026 10.7661 24.7648 10.6305C24.8271 10.4948 24.8328 10.34 24.7809 10.2001C24.729 10.0602 24.6236 9.94669 24.488 9.88448ZM21.0916 11.6357C21.046 11.7777 21.0587 11.9321 21.1269 12.0648C21.1951 12.1974 21.3132 12.2976 21.4552 12.3432C22.7382 12.7666 23.9554 13.3683 25.0708 14.1307C25.1321 14.1724 25.2011 14.2016 25.2737 14.2166C25.3463 14.2316 25.4212 14.2321 25.494 14.218C25.5668 14.2039 25.6362 14.1756 25.698 14.1347C25.7598 14.0937 25.8129 14.0409 25.8543 13.9794C25.8956 13.9178 25.9244 13.8487 25.9389 13.776C25.9535 13.7032 25.9535 13.6284 25.939 13.5556C25.9245 13.4829 25.8957 13.4138 25.8544 13.3522C25.813 13.2906 25.7599 13.2378 25.6981 13.1969C24.495 12.3758 23.1825 11.7278 21.7991 11.2721C21.657 11.2266 21.5028 11.2393 21.3701 11.3075C21.2375 11.3757 21.1373 11.4937 21.0916 11.6357ZM10.3283 14.0307C10.4256 14.1435 10.5637 14.213 10.7123 14.2242C10.8609 14.2353 11.0078 14.187 11.1209 14.09C13.4562 12.3111 16.3914 11.5093 19.3068 11.8538C19.4549 11.8724 19.6042 11.8315 19.7221 11.74C19.8399 11.6485 19.9166 11.514 19.9353 11.366C19.9539 11.2179 19.913 11.0686 19.8215 10.9507C19.73 10.8329 19.5955 10.7562 19.4475 10.7375C17.8468 10.5383 16.2226 10.6566 14.6678 11.0857C13.1129 11.5147 11.6579 12.2461 10.3859 13.238C10.2733 13.3356 10.2039 13.4738 10.1931 13.6224C10.1823 13.771 10.2309 13.9179 10.3283 14.0307ZM25.7602 21.1301C27.2021 18.3404 23.9086 14.3118 21.4756 13.288C20.1933 12.7177 18.7917 12.4672 17.3913 12.5582C15.9908 12.6492 14.6334 13.0789 13.4357 13.8104C7.83875 17.6957 11.3395 25.2818 11.3753 25.3582C11.4391 25.4931 11.5539 25.5971 11.6944 25.6474C11.8349 25.6976 11.9896 25.69 12.1245 25.6262C12.2594 25.5624 12.3635 25.4476 12.4137 25.3071C12.464 25.1666 12.4564 25.0119 12.3926 24.8769C12.3607 24.8094 9.25434 18.0825 14.0647 14.7426C16.6968 12.9774 22.5867 12.8717 24.733 18.4555C24.9051 18.787 24.9976 19.1541 25.003 19.5276C25.0085 19.9011 24.9267 20.2707 24.7642 20.6071C24.5689 20.9677 24.2736 21.2642 23.9138 21.461C23.554 21.6578 23.1451 21.7466 22.7361 21.7166C22.3271 21.6867 21.9354 21.5393 21.6081 21.2922C21.2808 21.0451 21.0319 20.7088 20.8911 20.3236L20.4423 19.0558C19.0139 15.3055 13.4923 17.0026 14.3976 20.9016C14.7613 22.4779 15.574 23.915 16.7375 25.039C17.9009 26.1629 19.3652 26.9256 20.9532 27.2346C21.098 27.2646 21.2489 27.2362 21.373 27.1557C21.4972 27.0752 21.5846 26.9491 21.6164 26.8046C21.6482 26.6601 21.6218 26.5089 21.5429 26.3838C21.4639 26.2586 21.3389 26.1696 21.1948 26.136C19.8123 25.8666 18.5375 25.2024 17.5246 24.2238C16.5117 23.2451 15.8041 21.9938 15.4875 20.6214C15.4194 20.3601 15.4042 20.0878 15.4429 19.8205C15.4816 19.5533 15.5733 19.2964 15.7127 19.0652C15.9143 18.7375 16.204 18.4732 16.5488 18.3025C16.8935 18.1318 17.2793 18.0615 17.6621 18.0998C18.0449 18.138 18.4092 18.2832 18.7134 18.5187C19.0175 18.7542 19.2493 19.0706 19.3821 19.4316L19.8309 20.6994C20.0455 21.29 20.4265 21.806 20.9277 22.185C21.429 22.564 22.0293 22.7899 22.656 22.8354C23.2828 22.8809 23.9094 22.7442 24.4602 22.4416C25.011 22.139 25.4625 21.6835 25.7602 21.1301ZM15.9324 16.3604C16.0664 16.2983 16.1707 16.186 16.2227 16.0477C16.2747 15.9094 16.2702 15.7562 16.2101 15.6212C16.1501 15.4862 16.0394 15.3802 15.902 15.3261C15.7645 15.272 15.6112 15.2741 15.4753 15.332C14.1636 15.9154 12.0092 17.5073 12.3272 21.636C12.3486 21.8266 12.9111 26.3239 17.3271 28.0531C17.4654 28.105 17.6186 28.1003 17.7535 28.0402C17.8884 27.98 17.9942 27.8691 18.0481 27.7316C18.1019 27.594 18.0994 27.4408 18.0412 27.305C17.983 27.1693 17.8736 27.0619 17.7369 27.0061C13.9636 25.5279 13.4637 21.6706 13.4467 21.5294C13.1973 18.2813 14.6607 16.9256 15.9324 16.3604ZM22.4885 20.1671C22.4954 20.3146 22.56 20.4534 22.6684 20.5536C22.7768 20.6538 22.9202 20.7074 23.0677 20.7028C23.2153 20.6982 23.3551 20.6357 23.457 20.5289C23.5589 20.4221 23.6147 20.2795 23.6124 20.1319C23.6112 20.082 23.3932 15.159 17.9863 14.8459C17.9125 14.8416 17.8387 14.8519 17.7689 14.8762C17.6992 14.9005 17.6349 14.9383 17.5798 14.9874C17.4684 15.0866 17.401 15.226 17.3924 15.3749C17.3838 15.5238 17.4347 15.67 17.534 15.7813C17.6332 15.8927 17.7725 15.9601 17.9214 15.9687C22.2869 16.2219 22.4819 20.0084 22.4885 20.1671ZM18.1895 19.8035C18.1659 19.6576 18.0858 19.5268 17.9665 19.4395C17.8472 19.3522 17.6983 19.3153 17.5521 19.3369C17.4059 19.3585 17.274 19.4368 17.185 19.5548C17.096 19.6729 17.0571 19.8212 17.0766 19.9677C17.0838 20.0166 17.8588 24.9028 23.4619 25.4164C23.5354 25.4231 23.6096 25.4152 23.6802 25.3933C23.7507 25.3713 23.8162 25.3357 23.873 25.2884C23.9298 25.2411 23.9767 25.1831 24.011 25.1177C24.0454 25.0523 24.0665 24.9807 24.0732 24.9072C24.08 24.8336 24.0721 24.7594 24.0501 24.6888C24.0282 24.6183 23.9925 24.5528 23.9453 24.496C23.898 24.4392 23.84 24.3923 23.7746 24.358C23.7091 24.3236 23.6376 24.3025 23.564 24.2958C18.8635 23.8651 18.2148 19.971 18.1895 19.8035Z" fill="#44226E"/>
</svg>
