<svg width="317" height="194" viewBox="0 0 317 194" fill="none" xmlns="http://www.w3.org/2000/svg">
<path d="M249.061 41.5C251.212 41.5 253.298 42.2071 257.683 43.708L259.273 44.2529C263.455 45.6845 266.572 46.7516 268.774 47.6465C269.875 48.0937 270.732 48.4917 271.372 48.8633C272.019 49.2389 272.402 49.5643 272.603 49.8496C272.804 50.137 272.984 50.6126 273.127 51.3535C273.268 52.0862 273.366 53.0329 273.431 54.2275C273.561 56.6179 273.561 59.9324 273.561 64.3799V68.7539C273.561 84.1063 262.031 91.5805 254.697 94.7842C253.688 95.2249 252.974 95.5361 252.165 95.7432C251.363 95.9483 250.45 96.0557 249.061 96.0557C247.672 96.0557 246.758 95.9483 245.956 95.7432C245.147 95.5361 244.432 95.225 243.423 94.7842H243.424C236.09 91.5805 224.561 84.1064 224.561 68.7539V64.3799L224.562 61.2529C224.569 58.3326 224.593 56.0202 224.69 54.2275C224.755 53.0329 224.853 52.0862 224.994 51.3535C225.137 50.6126 225.317 50.137 225.519 49.8496C225.719 49.5642 226.103 49.239 226.75 48.8633C227.39 48.4917 228.246 48.0937 229.347 47.6465C231.549 46.7516 234.666 45.6845 238.848 44.2529L240.438 43.708C244.823 42.207 246.909 41.5 249.061 41.5ZM257.726 61.2949C256.661 60.3448 255.028 60.4377 254.078 61.502L246.084 70.4541L244.043 68.168C243.093 67.104 241.46 67.0121 240.396 67.9619C239.331 68.9122 239.239 70.5451 240.189 71.6094L244.157 76.0537C244.647 76.6027 245.348 76.9169 246.084 76.917C246.82 76.917 247.522 76.6028 248.012 76.0537L257.932 64.9424H257.933C258.882 63.8781 258.79 62.2451 257.726 61.2949Z" fill="#EDDEFF" stroke="#55268E"/>
<g clip-path="url(#clip0_902_5903)">
<path d="M38.0898 165.372L112.739 179.467L146.174 178.458C146.174 178.458 146.617 161.623 138.42 152.759C130.223 143.896 117.816 145.671 113.605 149.215C109.395 152.759 104.3 165.609 104.3 165.609L60.4317 159.181C60.4317 159.181 53.7859 143.672 45.3648 141.903C36.9438 140.128 32.5838 157.157 38.0898 165.366V165.372Z" fill="black" stroke="black" stroke-width="0.622858" stroke-miterlimit="10"/>
<path d="M180.263 126.711C180.263 126.711 180.581 123.747 181.64 123.641C182.699 123.535 188.529 125.335 188.635 127.241C188.741 129.147 187.999 129.359 186.835 129.465C185.67 129.57 183.446 129.676 183.446 129.676L180.27 126.711H180.263Z" fill="#44226E" stroke="black" stroke-width="0.622858" stroke-miterlimit="10"/>
<path d="M140.556 153.793L133.069 154.148V155.793C126.461 159.15 121.839 166.307 121.839 174.385C121.839 182.463 126.461 189.19 133.069 191.918V193.563L140.556 193.208C150.889 192.722 159.267 183.497 159.267 172.616C159.267 161.735 150.889 153.307 140.556 153.793Z" fill="black" stroke="black" stroke-width="0.622858" stroke-miterlimit="10"/>
<path d="M133.069 193.563C143.403 193.563 151.78 184.74 151.78 173.856C151.78 162.972 143.403 154.148 133.069 154.148C122.736 154.148 114.359 162.972 114.359 173.856C114.359 184.74 122.736 193.563 133.069 193.563Z" fill="black" stroke="black" stroke-width="0.622858" stroke-miterlimit="10"/>
<path d="M133.069 188.742C140.875 188.742 147.202 182.077 147.202 173.856C147.202 165.634 140.875 158.969 133.069 158.969C125.264 158.969 118.937 165.634 118.937 173.856C118.937 182.077 125.264 188.742 133.069 188.742Z" fill="white" stroke="black" stroke-width="0.622858" stroke-miterlimit="10"/>
<path d="M133.069 177.518C134.992 177.518 136.551 175.878 136.551 173.856C136.551 171.833 134.992 170.193 133.069 170.193C131.146 170.193 129.588 171.833 129.588 173.856C129.588 175.878 131.146 177.518 133.069 177.518Z" fill="white" stroke="black" stroke-width="0.622858" stroke-miterlimit="10"/>
<path d="M54.0289 146.051H46.947V152.479C45.7324 155.357 45.0037 158.994 45.0037 162.949C45.0037 166.905 45.7324 170.542 46.947 173.42V179.848H54.0289C59.018 179.848 63.0603 172.28 63.0603 162.943C63.0603 153.607 59.018 146.039 54.0289 146.039V146.051Z" fill="black" stroke="black" stroke-width="0.622858" stroke-miterlimit="10"/>
<path d="M46.947 179.86C51.9349 179.86 55.9784 172.292 55.9784 162.956C55.9784 153.62 51.9349 146.051 46.947 146.051C41.959 146.051 37.9155 153.62 37.9155 162.956C37.9155 172.292 41.959 179.86 46.947 179.86Z" fill="black" stroke="black" stroke-width="0.622858" stroke-miterlimit="10"/>
<path d="M46.0625 175.724C49.3408 175.724 51.9984 170.007 51.9984 162.956C51.9984 155.904 49.3408 150.187 46.0625 150.187C42.7843 150.187 40.1267 155.904 40.1267 162.956C40.1267 170.007 42.7843 175.724 46.0625 175.724Z" fill="white" stroke="black" stroke-width="0.622858" stroke-miterlimit="10"/>
<path d="M46.0626 166.101C46.871 166.101 47.5263 164.693 47.5263 162.955C47.5263 161.218 46.871 159.81 46.0626 159.81C45.2542 159.81 44.5989 161.218 44.5989 162.955C44.5989 164.693 45.2542 166.101 46.0626 166.101Z" fill="white" stroke="black" stroke-width="0.622858" stroke-miterlimit="10"/>
<path d="M209.363 146.176L201.876 146.531C191.543 146.531 183.166 155.357 183.166 166.238C183.166 177.119 191.543 185.945 201.876 185.945C202.406 185.945 202.929 185.914 203.446 185.87L209.357 185.59C219.69 185.104 228.068 175.88 228.068 164.999C228.068 154.117 219.69 145.69 209.357 146.176H209.363Z" fill="black" stroke="black" stroke-width="0.622858" stroke-miterlimit="10"/>
<path d="M185.944 130.854C185.944 130.854 173.574 121.361 168.111 117.045C162.649 112.728 154.303 108.991 152.434 108.269C150.565 107.546 131.867 105.97 119.211 105.534C106.554 105.105 87.4263 105.678 78.2204 107.26C69.0146 108.842 60.5313 114.161 59.5223 114.74C58.5132 115.313 46.7225 122.794 44.9972 123.66C43.2719 124.525 39.0987 125.671 37.8032 127.69C36.5077 129.708 35.9346 135.17 34.066 140.346C32.1975 145.522 31.911 160.053 33.057 161.922C34.2093 163.79 38.0897 165.372 38.0897 165.372C38.0897 165.372 33.4868 151.42 40.2448 145.808C47.0028 140.196 53.4743 150.841 55.2058 159.038C56.9312 167.235 56.7879 169.969 56.7879 169.969L112.739 179.461C112.739 179.461 111.3 162.632 118.351 154.578C125.402 146.525 133.312 150.119 137.915 158.608C142.518 167.091 143.378 181.48 145.109 182.918C146.834 184.357 161.216 185.653 173.729 185.073C186.243 184.5 226.803 181.193 230.976 179.175C235.149 177.163 235.723 176.727 235.436 172.703C235.149 168.674 233.854 159.181 232.129 153.862C230.403 148.543 230.26 146.525 224.935 142.215C219.615 137.898 212.135 136.316 204.368 133.874C196.601 131.427 185.956 130.854 185.956 130.854H185.944Z" fill="#55268E" stroke="black" stroke-width="0.622858" stroke-miterlimit="10"/>
<path d="M185.944 130.853C185.944 130.853 173.574 121.361 168.111 117.045C164.692 114.348 160.151 111.875 156.775 110.224C149.158 109.988 119.809 109.203 105.115 110.573C105.115 110.573 114.178 126.537 115.76 132.149C115.76 132.149 168.834 132.865 185.95 130.853H185.944Z" fill="white"/>
<path d="M112.129 133.6C112.129 133.6 103.122 114.846 101.11 113.146C99.0986 111.451 90.4097 110.287 87.4387 110.181C84.4739 110.075 72.9199 112.087 68.155 113.146C63.3839 114.204 50.5655 122.576 50.7773 124.058C50.989 125.54 53.7421 128.088 54.3774 128.406C55.0127 128.723 112.129 133.6 112.129 133.6Z" fill="white" stroke="black" stroke-width="0.622858" stroke-miterlimit="10"/>
<path d="M77.2738 130.573C78.8123 130.71 80.3694 130.847 81.9328 130.984C82.7238 125.46 84.2436 117.294 86.9655 110.181C86.2554 110.2 85.2588 110.287 84.0816 110.424C81.9888 114.068 78.6192 121.131 77.2676 130.58L77.2738 130.573Z" fill="black" stroke="black" stroke-width="0.622858" stroke-miterlimit="10"/>
<path d="M66.3674 113.725C65.2961 114.148 64.0566 114.734 62.7548 115.425C59.7838 119.779 56.2148 125.908 54.7449 128.474C55.4549 128.568 57.1429 128.742 59.5284 128.966C59.6904 127.988 59.9831 126.537 60.5188 124.382C61.4219 120.776 64.4116 116.353 66.3674 113.725Z" fill="black" stroke="black" stroke-width="0.622858" stroke-miterlimit="10"/>
<path d="M98.3513 132.722C98.3513 132.722 101.802 136.459 103.097 136.752C104.393 137.039 108.13 136.036 107.557 135.027C106.984 134.018 103.82 132.579 103.82 132.579L98.3575 132.722H98.3513Z" fill="black" stroke="black" stroke-width="0.622858" stroke-miterlimit="10"/>
<path d="M105.402 133.874C105.402 133.874 105.545 130.997 104.393 128.985C103.241 126.973 100.942 125.248 99.79 125.248C98.6377 125.248 91.3067 125.534 90.5841 127.403C89.8679 129.271 90.4409 131.576 92.7392 132.722C95.0376 133.874 104.679 133.731 105.396 133.874H105.402Z" fill="#44226E" stroke="black" stroke-width="0.622858" stroke-miterlimit="10"/>
<path d="M85.5265 138.471L77.5789 137.624L77.6847 139.212L84.5735 140.171L85.5265 138.471Z" fill="white" stroke="black" stroke-width="0.622858" stroke-miterlimit="10"/>
<path d="M59.0366 136.142L58.4013 137.73L52.889 136.989L52.2537 135.506L59.0366 136.142Z" fill="white" stroke="black" stroke-width="0.622858" stroke-miterlimit="10"/>
<path d="M76.2087 158.589C76.3146 161.704 76.4143 163.909 76.4143 163.909" stroke="black" stroke-width="0.622858" stroke-miterlimit="10"/>
<path d="M77.7908 131.9C77.7908 131.9 76.5202 134.653 76.0967 141.224C75.8787 144.556 75.9659 150.349 76.0967 155.244" stroke="black" stroke-width="0.622858" stroke-miterlimit="10"/>
<path d="M111.824 144.806C111.307 149.496 110.802 155.326 110.858 159.879C110.964 168.991 110.858 175.033 110.858 175.033" stroke="black" stroke-width="0.622858" stroke-miterlimit="10"/>
<path d="M112.87 136.565C112.87 136.565 112.546 138.726 112.16 141.903" stroke="black" stroke-width="0.622858" stroke-miterlimit="10"/>
<path d="M97.959 173.102C104.044 174.161 108.523 174.927 108.523 174.927" stroke="black" stroke-width="0.622858" stroke-miterlimit="10"/>
<path d="M58.5071 159.985C58.5071 159.985 59.8836 165.391 65.5018 166.979C68.8465 167.926 83.465 170.561 94.745 172.541" stroke="black" stroke-width="0.622858" stroke-miterlimit="10"/>
<path d="M53.3124 129.147C53.3124 129.147 50.2417 132.641 50.0299 134.024C49.8181 135.407 50.3476 141.548 51.4064 144.195C52.4653 146.842 55.754 155.213 55.754 155.213" stroke="black" stroke-width="0.622858" stroke-miterlimit="10"/>
<path d="M37.7346 130.418C37.7346 130.418 35.1934 130.523 34.7698 131.794C34.3463 133.065 34.0286 137.942 34.7698 137.836C35.511 137.73 39.435 132.429 39.3291 131.476C39.2233 130.523 37.7408 130.418 37.7408 130.418H37.7346Z" fill="white" stroke="black" stroke-width="0.622858" stroke-miterlimit="10"/>
<path d="M222.973 153.519C222.973 153.519 202.942 155.214 197.118 155.002C191.288 154.79 188.006 154.472 187.264 154.155C186.523 153.837 185.994 153.519 185.994 153.519C185.994 153.519 183.452 150.872 180.375 150.555C177.299 150.237 149.114 145.995 145.938 146.525C142.761 147.054 140.108 148.748 142.02 150.337C143.926 151.925 146.367 154.684 148.062 155.214C149.756 155.743 185.153 159.667 185.153 159.667C185.153 159.667 190.665 162.526 195.748 162.526C200.83 162.526 221.391 160.832 222.979 160.302C224.567 159.773 226.156 156.272 227.962 154.896C229.768 153.519 231.35 151.613 231.35 151.613C231.35 151.613 229.762 146.842 229.444 146.525C229.127 146.207 228.703 145.783 228.703 145.783C228.703 145.783 224.355 148.642 224.038 149.919C223.72 151.19 222.979 153.519 222.979 153.519H222.973Z" fill="black" stroke="black" stroke-width="0.622858" stroke-miterlimit="10"/>
<path d="M183.234 154.472L179.634 157.543C179.634 157.543 148.797 154.366 147.632 153.943C146.467 153.519 143.39 150.449 143.178 149.489C142.967 148.537 144.873 147.266 145.614 147.266C146.355 147.266 178.993 151.613 179.84 151.719C180.687 151.825 183.228 154.472 183.228 154.472H183.234Z" fill="white" stroke="black" stroke-width="0.622858" stroke-miterlimit="10"/>
<path d="M228.591 146.948C228.591 146.948 225.944 148.325 225.097 149.489C224.249 150.654 223.085 154.366 223.932 154.578C224.779 154.79 226.473 154.79 226.791 154.684C227.108 154.578 230.603 151.402 230.603 151.402C230.603 151.402 229.332 147.696 228.591 146.948Z" fill="white" stroke="black" stroke-width="0.622858" stroke-miterlimit="10"/>
<path d="M232.615 177.045C233.281 176.584 234.346 175.961 235.393 175.375C235.511 174.696 235.505 173.849 235.424 172.71C235.274 170.635 234.857 167.11 234.253 163.454L233.038 163.485C233.038 163.485 232.509 163.591 232.403 164.332C232.297 165.073 232.085 174.927 232.085 174.927C232.085 174.927 231.238 175.986 230.709 175.774C230.179 175.562 230.285 165.603 229.014 165.073C227.744 164.544 191.712 166.556 189.594 166.873C187.476 167.191 179.634 179.592 178.787 179.91C177.94 180.227 168.722 178.639 167.451 178.533C166.181 178.427 174.446 166.767 174.446 166.767C174.446 166.767 162.468 166.873 158.445 167.509C154.415 168.144 151.132 176.939 151.132 176.939C151.132 176.939 151.344 177.468 155.692 178.739C160.039 180.009 179.323 181.809 180.911 181.915C182.12 181.996 179.541 183.902 178.227 184.824C182.2 184.581 187.295 184.214 192.752 183.771L223.346 180.688C225.994 180.321 228.13 179.966 229.519 179.629C230.198 178.988 231.456 177.842 232.621 177.045H232.615Z" fill="black" stroke="black" stroke-width="0.622858" stroke-miterlimit="10"/>
<path d="M217.461 172.803L202.73 173.444V164.756L217.461 164.114V172.803Z" fill="white" stroke="black" stroke-width="0.622858" stroke-miterlimit="10"/>
<path d="M217.959 144.139C223.396 143.778 224.356 142.918 224.356 142.918" stroke="black" stroke-width="0.622858" stroke-miterlimit="10"/>
<path d="M136.807 141.66C144.916 143.142 154.465 144.768 156.003 144.83C158.364 144.924 200.114 144.6 213.537 144.301" stroke="black" stroke-width="0.622858" stroke-miterlimit="10"/>
<path d="M124.418 133.177C124.418 133.177 122.935 133.494 122.935 134.871C122.935 136.247 123.253 138.683 125.053 139.324C125.663 139.542 129.139 140.234 133.555 141.062" stroke="black" stroke-width="0.622858" stroke-miterlimit="10"/>
<path d="M215.978 153.052C215.978 155.238 212.615 157.014 208.46 157.014C204.306 157.014 200.942 155.238 200.942 153.052C200.942 150.866 204.306 149.091 208.46 149.091C212.615 149.091 215.978 150.866 215.978 153.052Z" fill="url(#paint0_linear_902_5903)" stroke="black" stroke-width="0.622858" stroke-miterlimit="10"/>
<path d="M168.971 117.724C168.672 117.487 168.379 117.256 168.111 117.045C165.963 115.351 163.371 113.744 160.905 112.373L149.855 132.218C153.954 132.18 158.108 132.124 162.126 132.043L168.971 117.724Z" fill="white"/>
<path d="M136.719 109.82L118.912 132.18C123.446 132.224 132.391 132.292 142.487 132.261L156.215 110.206C152.565 110.094 145.14 109.894 136.726 109.82H136.719Z" fill="white"/>
<path d="M185.944 130.853C185.944 130.853 173.574 121.361 168.111 117.045C164.692 114.348 160.151 111.875 156.775 110.224C149.158 109.988 119.809 109.203 105.115 110.573C105.115 110.573 114.178 126.537 115.76 132.149C115.76 132.149 168.834 132.865 185.95 130.853H185.944Z" stroke="black" stroke-width="0.622858" stroke-miterlimit="10"/>
</g>
<defs>
<linearGradient id="paint0_linear_902_5903" x1="215.978" y1="149.091" x2="200.189" y2="151.102" gradientUnits="userSpaceOnUse">
<stop stop-color="#FFC837"/>
<stop offset="1" stop-color="#F6462D"/>
</linearGradient>
<clipPath id="clip0_902_5903">
<rect width="203.737" height="98" fill="white" transform="translate(32.0605 96)"/>
</clipPath>
</defs>
</svg>
