<svg width="317" height="193" viewBox="0 0 317 193" fill="none" xmlns="http://www.w3.org/2000/svg">
<g clip-path="url(#clip0_4485_2404)">
<path d="M40.7983 94.5049C40.7983 94.5049 44.5889 94.7085 45.2105 94.8752C45.8322 95.0418 48.6552 95.227 48.6552 95.227C48.6552 95.227 45.0423 98.6245 44.7572 98.7355C44.4767 98.8466 44.0234 98.7911 42.8923 98.0644C41.7612 97.3377 40.7983 94.5002 40.7983 94.5002V94.5049Z" fill="black" stroke="black" stroke-width="0.6" stroke-linecap="round" stroke-linejoin="round"/>
<path d="M83.8407 192.769H95.3993L89.4728 168.713L87.2713 151.971L78.8816 151.901L79.8117 177.327L83.8407 192.769Z" fill="#FFE5D2" stroke="black" stroke-width="0.6" stroke-miterlimit="10"/>
<path d="M83.4854 122.842L87.2713 151.971H80.5735C80.5735 151.971 81.5924 121.977 83.4854 122.842Z" fill="white" stroke="black" stroke-width="0.6" stroke-miterlimit="10"/>
<path d="M28.2581 172.675L30.7773 192.769H86.9489L81.9851 162.085L82.6021 140.047C82.6021 140.047 83.8313 121.416 83.4621 118.616C83.0929 115.816 82.4105 114.247 81.4944 113.381C74.8761 107.127 66.7481 103.401 65.8226 101.939C64.8972 100.476 62.0694 99.4993 62.0694 99.4993L50.88 99.379L42.78 97.2683L40.7983 94.5095C40.7983 94.5095 37.6013 98.6476 37.4798 99.0133C37.3583 99.379 25.1826 112.775 24.5703 116.427C23.9534 120.079 24.3226 131.771 24.5703 139.806C24.818 147.842 28.2581 172.684 28.2581 172.684V172.675Z" fill="white" stroke="black" stroke-width="0.6" stroke-linecap="round" stroke-linejoin="round"/>
<path d="M32.5347 188.121L54.563 171.453" stroke="black" stroke-width="0.6" stroke-miterlimit="10"/>
<path d="M51.3428 171.578L40.8264 179.665" stroke="black" stroke-width="0.6" stroke-miterlimit="10"/>
<path d="M46.6828 84.5947L47.225 94.6576L42.78 97.2636C42.78 97.2636 48.5851 101.753 51.1277 105.35C53.6657 108.942 59.9288 116.042 63.1024 115.774C66.276 115.505 66.9116 108.405 66.4583 105.979C66.0049 103.554 65.8226 101.939 65.8226 101.939L65.458 100.68C65.458 100.68 60.1952 99.5131 57.8395 97.7126C55.4792 95.9166 48.0429 84.5067 47.5895 84.2383C47.1362 83.9698 46.6828 84.5993 46.6828 84.5993V84.5947Z" fill="#FFE5D2" stroke="black" stroke-width="0.6" stroke-miterlimit="10"/>
<path d="M47.2249 94.6576V98.3421" stroke="black" stroke-width="0.6" stroke-miterlimit="10"/>
<path d="M65.8225 101.934C65.8225 101.934 64.4624 105.169 64.4624 105.975C64.4624 106.78 64.6447 109.391 65.2803 110.377" stroke="black" stroke-width="0.6" stroke-miterlimit="10"/>
<path d="M74.3527 71.9258C74.3527 71.9258 74.9883 77.0452 74.8949 78.2163C74.8061 79.3827 74.0769 83.7847 73.8946 85.1363C73.7123 86.4832 73.6235 88.7282 73.0767 90.5287C72.5298 92.3293 69.3562 98.1662 68.9029 99.0642C68.4495 99.9621 67.6315 101.309 65.818 101.939C64.0046 102.568 60.1953 101.49 59.0128 101.041C57.8349 100.592 51.3008 94.3938 49.8518 92.8663C48.3982 91.3388 46.9493 85.8583 46.9493 85.8583C46.9493 85.8583 45.1358 84.9604 43.4999 82.8913C41.8687 80.8269 41.1396 78.1283 41.5042 76.6934C41.8687 75.2539 42.1912 74.0087 43.2522 73.8236C44.3179 73.6384 45.678 73.9069 46.1314 74.0874C46.5847 74.268 44.5002 66.6305 44.5002 66.6305C44.5002 66.6305 51.3054 62.3165 58.6529 62.2286C66.0003 62.1406 73.7123 68.4265 74.348 71.9304L74.3527 71.9258Z" fill="#FFE5D2" stroke="black" stroke-width="0.6" stroke-miterlimit="10"/>
<path d="M46.2248 77.1193C46.2248 77.1193 45.9771 80.1742 46.8417 80.1742C47.7064 80.1742 48.2019 79.3179 48.2019 79.3179L48.6973 77.6053L52.5253 75.2817L52.156 67.8201L59.0688 70.2641L62.7752 70.7547C62.7752 70.7547 56.2317 72.3424 57.2179 72.833C58.2041 73.3237 61.0459 74.18 64.3784 74.055C67.7109 73.9347 71.2912 72.2221 71.2912 72.2221C71.2912 72.2221 70.4265 74.3004 71.2912 74.055C72.1559 73.8097 75.7361 72.0971 77.3439 70.1437C78.9471 68.1858 77.3439 65.1308 75.7408 62.6822C74.1376 60.2382 69.9357 53.633 65.617 52.286C61.2936 50.9391 54.1331 51.675 51.7868 53.022C49.4405 54.369 42.0323 63.9042 41.7845 65.7418C41.5368 67.5748 43.2662 73.8143 43.2662 73.8143C43.2662 73.8143 46.5987 76.0176 46.2295 77.1146L46.2248 77.1193Z" fill="black" stroke="black" stroke-width="0.6" stroke-miterlimit="10"/>
<path d="M69.0009 80.1049L68.0942 84.5068C68.0942 84.5068 68.9121 91.7832 68.9121 92.1442C68.9121 92.5053 68.0942 93.4033 66.463 93.3107C64.8318 93.2227 63.8315 92.5007 63.8315 92.5007" stroke="black" stroke-width="0.6" stroke-miterlimit="10"/>
<path d="M69.7256 79.7437C69.7256 79.7437 72.5393 78.6652 73.8059 79.5632" stroke="black" stroke-width="0.6" stroke-miterlimit="10"/>
<path d="M63.9205 80.1928C63.9205 80.1928 60.3823 78.5773 57.1152 80.1048" stroke="black" stroke-width="0.6" stroke-miterlimit="10"/>
<path d="M59.8354 94.3892C59.8354 94.3892 61.3779 95.3797 62.738 95.8287C64.0981 96.2777 67.0006 96.0092 67.2717 95.9166" stroke="black" stroke-width="0.6" stroke-miterlimit="10"/>
<path d="M60.5603 82.9226C60.6853 82.9228 60.8294 82.9956 60.9548 83.1755C61.0797 83.3547 61.1667 83.6182 61.1667 83.9236C61.1667 84.229 61.0797 84.4925 60.9548 84.6716C60.8294 84.8516 60.6853 84.9244 60.5603 84.9246C60.4352 84.9246 60.2904 84.8518 60.1648 84.6716C60.0399 84.4925 59.9529 84.229 59.9529 83.9236C59.9529 83.6182 60.04 83.3547 60.1648 83.1755C60.2904 82.9954 60.4352 82.9226 60.5603 82.9226Z" fill="black" stroke="black" stroke-width="0.6"/>
<path d="M70.8149 82.7838C70.9393 82.784 71.0838 82.8564 71.2095 83.0367C71.3345 83.2161 71.4214 83.48 71.4214 83.7848C71.4214 84.0896 71.3345 84.3535 71.2095 84.5328C71.0838 84.713 70.9393 84.7856 70.8149 84.7858C70.6905 84.7858 70.5453 84.7133 70.4194 84.5328C70.2944 84.3535 70.2075 84.0896 70.2075 83.7848C70.2075 83.48 70.2944 83.2161 70.4194 83.0367C70.5453 82.8562 70.6904 82.7838 70.8149 82.7838Z" fill="black" stroke="black" stroke-width="0.6"/>
<path d="M114.376 140.167C114.376 140.167 98.5123 137.686 96.8437 137.099C95.1751 136.511 91.2396 134.145 91.2396 134.145C91.2396 134.145 82.6536 124.578 81.9385 124.106C81.2233 123.634 75.4978 125.994 74.6658 126.466C73.8292 126.938 70.8518 129.299 70.7303 129.892C70.6088 130.484 71.4454 132.137 71.4454 132.137C71.4454 132.137 79.5547 139.339 80.5082 139.695C81.4617 140.052 90.4077 142.528 90.4077 142.528C90.4077 142.528 112.113 153.748 113.184 154.577C114.254 155.405 119.148 157.058 120.938 157.058C122.728 157.058 124.757 155.641 124.757 155.641L122.49 142.176L114.38 140.167H114.376Z" fill="#FFDFD4" stroke="black" stroke-width="0.6" stroke-miterlimit="10"/>
<path d="M74.2731 127.809L61.158 143.977L63.7053 150.328L76.0679 152.758L84.3688 134.349L78.4235 128.461L74.2731 127.809Z" fill="#801000" stroke="black" stroke-width="0.6" stroke-miterlimit="10"/>
<path d="M116.512 142.954C118.886 144.384 121.256 145.611 121.256 145.611L123.938 176.975L124.139 192.769H189.673C188.687 189.871 184.031 176.29 182.741 174.013C181.297 171.458 177.895 156.646 177.895 156.646L179.647 133.354C179.647 133.354 182.508 108.604 182.508 108.192C182.508 107.78 182.068 104.059 182.068 104.059C182.068 104.059 158.596 90.5426 155.707 90.1353C152.819 89.728 151.174 90.9546 149.935 91.0564C148.696 91.1583 139.414 91.7739 136.937 92.7922C135.161 93.5236 126.374 97.2034 121.55 99.2215C119.592 100.041 118.269 101.874 118.11 103.971L115.684 136.006C115.684 136.006 113.623 136.515 113.623 137.029C113.623 137.543 113.109 139.584 113.109 139.584C113.109 139.584 114.142 141.524 116.512 142.954Z" fill="#55268E" stroke="black" stroke-width="0.6" stroke-miterlimit="10"/>
<path d="M176.095 177.957C177.707 177.776 178.745 177.665 178.834 177.665" stroke="black" stroke-width="0.6" stroke-miterlimit="10"/>
<path d="M153.74 180.489C153.74 180.489 167.158 178.952 174.375 178.146" stroke="black" stroke-width="0.6" stroke-miterlimit="10"/>
<path d="M154.455 182.465L154.74 183.738L178.404 180.771" stroke="black" stroke-width="0.6" stroke-miterlimit="10"/>
<path d="M132.254 129.743C134.458 129.743 136.245 127.903 136.245 125.633C136.245 123.363 134.458 121.523 132.254 121.523C130.049 121.523 128.262 123.363 128.262 125.633C128.262 127.903 130.049 129.743 132.254 129.743Z" fill="#FEB707" stroke="black" stroke-width="0.6" stroke-miterlimit="10"/>
<path d="M134.95 125.633C134.95 127.17 133.74 128.415 132.249 128.415C130.758 128.415 129.547 127.17 129.547 125.633C129.547 124.096 130.758 122.851 132.249 122.851C133.74 122.851 134.95 124.096 134.95 125.633Z" fill="#FEB707" stroke="black" stroke-width="0.6" stroke-miterlimit="10"/>
<path d="M138.694 91.0564C138.694 91.0564 132.31 109.502 131.562 126.156" stroke="black" stroke-width="0.6" stroke-miterlimit="10" stroke-linecap="round"/>
<path d="M143.429 111.742L136.45 119.144" stroke="black" stroke-width="0.6" stroke-miterlimit="10"/>
<path d="M162.559 101.059C163.017 100.129 163.316 99.3419 163.354 98.8142" stroke="black" stroke-width="0.6" stroke-miterlimit="10"/>
<path d="M143.354 124.305C147.275 120.231 153.782 113.464 155.09 112.039C156.343 110.668 159.465 106.456 161.494 103.017" stroke="black" stroke-width="0.6" stroke-miterlimit="10"/>
<path d="M140.339 127.434C140.339 127.434 141.092 126.656 142.256 125.443" stroke="black" stroke-width="0.6" stroke-miterlimit="10"/>
<path d="M157.366 91.4592C157.366 91.4592 155.791 87.7423 155.646 86.2472C155.502 84.7521 155.502 79.3318 155.502 79.3318C146.434 78.619 136.212 87.1035 136.212 87.1035L138.802 93.019L138.923 93.7874C138.844 95.6667 138.909 99.1058 140.035 102.855C141.727 108.479 144.321 111.145 144.321 111.145C144.321 111.145 152.412 103.614 156.478 98.0181C158.544 95.176 157.362 91.4545 157.362 91.4545L157.366 91.4592Z" fill="#FFDFD4" stroke="black" stroke-width="0.6" stroke-miterlimit="10"/>
<path d="M149.94 91.0519C149.94 91.0519 145.378 95.8056 143.985 97.4164C142.592 99.0272 139.919 101.906 139.919 101.906C139.919 101.906 139.054 98.5134 138.989 96.1528C138.923 93.7921 139.451 91.5518 139.451 91.5518L149.94 91.0565V91.0519Z" fill="#DAA78A"/>
<path d="M121.106 144.31C121.106 144.31 120.307 132.567 119.91 131.382C119.512 130.197 119.91 112.038 121.204 105.327" stroke="black" stroke-width="0.6" stroke-miterlimit="10"/>
<path d="M133.773 50.6058C133.773 50.6058 129.734 56.3871 128.641 57.9747C127.547 59.5624 125.803 59.0347 126.112 61.7055C126.42 64.3763 128.584 69.2041 131.333 70.0049C134.081 70.8056 136.61 70.0558 136.61 70.0558C136.61 70.0558 151.907 76.3648 152.922 77.7488C153.936 79.1327 154.918 82.558 154.918 82.558C154.918 82.558 158.853 82.2942 160.134 81.8359C161.414 81.3777 163.176 79.9474 163.176 79.9474L161.872 79.3827C161.872 79.3827 164.284 78.2764 164.574 78.0542C164.868 77.8321 165.985 77.2674 165.985 77.2674L163.849 74.6567L163.382 71.8841C163.382 71.8841 164.396 67.2276 164.976 63.7977C165.555 60.3724 164.635 55.9335 162.167 53.7996C159.699 51.6658 149.697 47.1111 144.481 47.236C139.264 47.361 134.455 50.0827 133.773 50.6058Z" fill="black" stroke="black" stroke-width="0.6" stroke-miterlimit="10"/>
<path d="M152.459 89.5845C152.459 89.5845 145.663 95.4723 142.27 95.301C138.881 95.1297 134.955 87.8163 134.446 86.6128C133.936 85.4094 132.062 80.1326 131.964 78.781C131.866 77.4294 131.15 69.4957 131.314 68.3663C131.478 67.2323 135.282 61.1223 135.282 61.1223C135.282 61.1223 137.044 65.1401 138.9 67.1582C140.755 69.1763 144.724 70.0789 144.724 70.0789L143.938 68.0793C143.938 68.0793 147.304 70.4492 149.033 70.6344C150.762 70.8195 152.861 71.1389 152.861 71.1389C152.861 71.1389 154.539 73.7125 154.964 74.143C155.39 74.5735 156.637 74.0319 156.637 74.0319C156.637 74.0319 159.157 71.4259 160.615 72.1573C162.069 72.8886 160.844 77.3553 159.788 79.2531C158.736 81.1509 156.474 82.6367 156.474 82.6367L155.46 82.9098C155.46 82.9098 154.366 86.4323 153.833 87.4321" fill="#FFDFD4"/>
<path d="M152.459 89.5845C152.459 89.5845 145.663 95.4723 142.27 95.301C138.881 95.1297 134.955 87.8163 134.446 86.6128C133.936 85.4094 132.062 80.1326 131.964 78.781C131.866 77.4294 131.15 69.4957 131.314 68.3663C131.478 67.2323 135.282 61.1223 135.282 61.1223C135.282 61.1223 137.044 65.1401 138.9 67.1582C140.755 69.1763 144.724 70.0789 144.724 70.0789L143.938 68.0793C143.938 68.0793 147.304 70.4492 149.033 70.6344C150.762 70.8195 152.861 71.1389 152.861 71.1389C152.861 71.1389 154.539 73.7125 154.964 74.143C155.39 74.5735 156.637 74.0319 156.637 74.0319C156.637 74.0319 159.157 71.4259 160.615 72.1573C162.069 72.8886 160.844 77.3553 159.788 79.2531C158.736 81.1509 156.474 82.6367 156.474 82.6367L155.46 82.9098C155.46 82.9098 154.366 86.4323 153.833 87.4321" stroke="black" stroke-width="0.6" stroke-miterlimit="10"/>
<path d="M138.638 81.6138C138.638 81.6138 138.376 83.0441 138.905 83.8448C139.433 84.6502 141.349 83.8171 141.349 83.8171C141.349 83.8171 141.886 84.1596 142.517 83.8448C143.148 83.5301 142.845 82.9237 142.845 82.9237" stroke="black" stroke-width="0.6" stroke-miterlimit="10"/>
<path d="M138.624 86.3721C138.624 86.3721 139.26 87.1775 141.419 87.409C143.578 87.6404 146.215 85.8306 146.215 85.8306" stroke="black" stroke-width="0.6" stroke-miterlimit="10"/>
<path d="M138.306 72.5924C138.306 72.5924 137.091 71.8008 135.516 71.8795C133.941 71.9582 133.455 72.273 133.455 72.273" stroke="black" stroke-width="0.6" stroke-miterlimit="10"/>
<path d="M143.102 73.2126C143.102 73.2126 146.163 72.8006 147.902 72.9256C149.636 73.0506 150.837 73.8513 150.837 73.8513" stroke="black" stroke-width="0.6" stroke-miterlimit="10"/>
<path d="M160.62 74.8234C160.62 74.8234 160.152 73.2404 159.129 73.7311C158.105 74.2217 156.829 76.4666 156.829 76.4666C156.829 76.4666 157.511 77.1332 157.343 77.7118C157.175 78.2904 156.128 78.943 156.128 78.943" stroke="black" stroke-width="0.6" stroke-miterlimit="10"/>
<path d="M156.829 76.462C156.829 76.462 158.535 75.4529 159.39 76.138" stroke="black" stroke-width="0.6" stroke-miterlimit="10"/>
<path d="M135.731 75.2849C135.849 75.2774 135.996 75.3416 136.134 75.5349C136.254 75.7024 136.346 75.9443 136.375 76.2312L136.384 76.3572C136.394 76.698 136.313 77.0008 136.187 77.2126C136.059 77.4286 135.909 77.5154 135.787 77.5232C135.669 77.5307 135.521 77.4665 135.383 77.2732C135.247 77.0818 135.146 76.7926 135.133 76.4509C135.123 76.1102 135.205 75.8073 135.331 75.5955C135.459 75.3796 135.609 75.2928 135.731 75.2849Z" fill="#263238" stroke="black" stroke-width="0.6"/>
<path d="M145.159 76.1971C145.276 76.1973 145.418 76.2707 145.542 76.4725C145.665 76.6721 145.747 76.9666 145.737 77.3075C145.725 77.6516 145.623 77.9501 145.484 78.1542C145.342 78.3618 145.187 78.4392 145.065 78.4393C144.948 78.4393 144.806 78.3667 144.681 78.1649C144.558 77.9653 144.476 77.6703 144.486 77.329C144.498 76.9849 144.599 76.6864 144.739 76.4823C144.881 76.2745 145.037 76.1971 145.159 76.1971Z" fill="#263238" stroke="black" stroke-width="0.6"/>
<path d="M138.596 73.782L139.063 76.3695L138.928 80.253" stroke="black" stroke-width="0.6" stroke-miterlimit="10"/>
<path d="M157.703 110.525C156.815 114.612 156.044 117.829 156.044 117.829" stroke="black" stroke-width="0.6" stroke-miterlimit="10" stroke-linecap="round"/>
<path d="M157.212 90.3204C157.212 90.3204 159.661 90.8481 160.297 94.116C160.68 96.0879 159.054 104.313 157.698 110.53" stroke="black" stroke-width="0.6" stroke-miterlimit="10" stroke-linecap="round"/>
<path d="M148.168 148.147C148.131 148.147 148.098 148.147 148.061 148.138C147.705 148.083 146.453 147.833 145.298 146.842C145.004 146.592 144.971 146.152 145.224 145.861C145.476 145.569 145.92 145.537 146.215 145.787C146.906 146.379 147.734 146.675 148.271 146.759C148.654 146.819 148.916 147.171 148.855 147.55C148.804 147.893 148.505 148.138 148.164 148.138L148.168 148.147Z" fill="#FEB707" stroke="black" stroke-width="0.6" stroke-miterlimit="10"/>
<path d="M145.756 146.782C145.649 146.782 145.541 146.745 145.453 146.671C144.392 145.764 143.256 144.051 143.877 141.038C144.826 136.437 148.112 124.888 148.145 124.772C148.215 124.527 148.477 124.383 148.72 124.453C148.967 124.522 149.112 124.777 149.042 125.022C149.009 125.138 145.738 136.654 144.794 141.223C144.368 143.287 144.794 144.884 146.065 145.972C146.261 146.138 146.28 146.43 146.112 146.625C146.018 146.731 145.887 146.787 145.756 146.787V146.782Z" fill="#FEB707" stroke="black" stroke-width="0.6" stroke-miterlimit="10"/>
<path d="M148.865 146.666C147.939 146.666 146.925 146.444 145.78 145.99C145.42 145.847 145.247 145.444 145.387 145.088C145.532 144.731 145.939 144.56 146.299 144.699C147.327 145.106 148.234 145.296 149.01 145.273C149.397 145.254 149.72 145.56 149.734 145.944C149.748 146.328 149.444 146.648 149.056 146.661C148.991 146.661 148.93 146.661 148.865 146.661V146.666Z" fill="#FEB707" stroke="black" stroke-width="0.6" stroke-miterlimit="10"/>
<path d="M149.028 146.43C148.776 146.43 148.57 146.231 148.561 145.981C148.552 145.727 148.752 145.514 149.01 145.504C150.655 145.449 151.8 144.449 152.51 142.449C153.87 138.608 157.362 126.263 157.399 126.138C157.469 125.892 157.731 125.749 157.974 125.818C158.222 125.888 158.367 126.142 158.297 126.388C158.259 126.513 154.763 138.885 153.389 142.755C152.548 145.125 151.085 146.361 149.038 146.43C149.033 146.43 149.028 146.43 149.019 146.43H149.028Z" fill="#FEB707" stroke="black" stroke-width="0.6" stroke-miterlimit="10"/>
<path d="M148.271 125.841C148.271 125.841 150.505 119.519 151.996 118.25C153.487 116.987 157.53 118.144 158.381 119.407C159.231 120.671 157.212 128.471 157.212 128.471" stroke="black" stroke-width="0.6" stroke-miterlimit="10" stroke-linecap="round"/>
<path d="M85.0325 128.744C85.0325 128.744 79.3724 127.341 78.2366 126.966C77.1008 126.591 73.801 124.161 73.2355 125.096C72.6699 126.031 73.2355 128.369 74.4601 129.114C75.6846 129.864 79.5547 131.262 79.5547 131.262C79.5547 131.262 82.6675 136.682 83.7051 137.335C84.7427 137.987 87.9538 137.802 87.9538 137.802" fill="#FFDFD4"/>
<path d="M85.0325 128.744C85.0325 128.744 79.3724 127.341 78.2366 126.966C77.1008 126.591 73.801 124.161 73.2355 125.096C72.6699 126.031 73.2355 128.369 74.4601 129.114C75.6846 129.864 79.5547 131.262 79.5547 131.262C79.5547 131.262 82.6675 136.682 83.7051 137.335C84.7427 137.987 87.9538 137.802 87.9538 137.802" stroke="black" stroke-width="0.6" stroke-miterlimit="10"/>
<path d="M32.1234 141.551L39.8588 140.302L35.4793 132.988C35.4793 132.988 31.3475 138.469 32.1234 141.556V141.551Z" fill="#263238" stroke="#263238" stroke-miterlimit="10"/>
<path d="M55.339 131.1L63.1538 146.708C63.1538 146.708 73.7637 150.17 78.8816 151.901C83.9996 153.633 95.2311 157.956 97.727 158.206C100.223 158.451 103.841 158.206 103.841 158.206C103.841 158.206 108.706 153.758 109.206 153.508C109.706 153.262 111.828 152.642 113.076 152.517C114.324 152.392 118.694 151.036 118.694 151.036C118.694 151.036 121.064 148.934 121.438 150.541C121.812 152.147 120.19 153.508 119.442 154.003C118.694 154.498 116.699 155.114 116.072 155.364C116.072 155.364 121.564 155.859 121.938 155.859C122.312 155.859 127.182 154.748 127.182 154.748C127.182 154.748 132.183 152.128 132.786 152.721C133.389 153.318 132.959 153.998 132.356 154.591C131.753 155.183 131.155 156.123 131.155 156.123C131.155 156.123 130.384 158.081 128.748 160.289C127.117 162.501 122.906 166.158 122.48 166.413C122.05 166.667 114.75 168.028 106.935 168.283C99.1199 168.537 86.5796 168.88 82.0272 168.708C77.4748 168.537 64.5046 166.667 60.298 165.903C56.0915 165.14 52.5673 165.052 51.8802 163.607C51.1932 162.163 48.3607 158.673 45.0095 153.827C41.6583 148.981 36.9376 140.047 36.5917 139.112C36.2459 138.177 34.7876 136.048 34.7876 136.048C34.7876 136.048 38.1388 130.262 43.1166 128.647C48.099 127.031 55.3343 131.1 55.3343 131.1H55.339Z" fill="#FFE5D2" stroke="#263238" stroke-miterlimit="10"/>
<path d="M131.613 155.503C131.613 155.503 128.318 158.298 127.472 159.044C126.626 159.789 125.401 160.627 124.929 160.724C124.457 160.816 120.975 161.284 120.316 161.562" stroke="#263238" stroke-miterlimit="10"/>
<path d="M121.447 163.894L125.682 162.214C125.682 162.214 127 161.284 127.379 161.001C127.757 160.724 129.449 159.418 129.449 159.418" stroke="#263238" stroke-miterlimit="10"/>
<path d="M82.4526 153.16C81.1018 152.674 79.8772 152.239 78.8817 151.906C73.7637 150.175 63.1538 146.713 63.1538 146.713L58.7183 137.858C47.856 137.598 43.0746 143.621 41.1208 147.56C42.4155 149.8 43.799 152.077 45.0049 153.822C48.3561 158.669 51.1885 162.159 51.8756 163.603C52.5627 165.047 56.0822 165.135 60.2934 165.899C64.0092 166.574 74.5396 168.111 80.0922 168.579C79.1762 166.912 77.8301 163.594 79.0079 160.02C80.0034 156.998 81.4383 154.609 82.4479 153.151L82.4526 153.16Z" fill="#F6462D" stroke="#263238" stroke-miterlimit="10"/>
<path d="M53.3572 159.145C54.5631 155.512 57.2038 149.689 62.1909 147.532" stroke="#263238" stroke-miterlimit="10"/>
<path d="M52.5159 162.214C52.5159 162.214 52.6047 161.742 52.815 160.964" stroke="#263238" stroke-miterlimit="10"/>
<path d="M57.5544 142.746C58.3256 142.528 59.1342 142.385 59.9802 142.324" stroke="#263238" stroke-miterlimit="10"/>
<path d="M46.2061 154.091C46.2061 154.091 49.0618 147.05 54.8809 143.847" stroke="#263238" stroke-miterlimit="10"/>
<path d="M69.2348 149.717C69.2348 149.717 62.9249 158.048 64.0841 165.44" stroke="#263238" stroke-miterlimit="10"/>
<path d="M72.6234 163.58C72.5953 164.57 72.6514 165.612 72.8103 166.69" stroke="#263238" stroke-miterlimit="10"/>
<path d="M76.9093 152.008C76.9093 152.008 73.6048 155.729 72.7915 161.511" stroke="#263238" stroke-miterlimit="10"/>
<path d="M28.6926 112.159C28.6926 112.159 25.5283 120.389 25.9209 122.87C26.3182 125.351 31.1978 139.07 31.3287 139.594C31.4596 140.117 32.1186 141.551 32.1186 141.551C32.1186 141.551 38.3209 132.799 44.2568 131.493C50.1928 130.188 55.3388 131.1 55.3388 131.1L52.4363 124.569C52.4363 124.569 52.3054 120.912 52.039 119.736C51.7772 118.56 47.1594 113.464 44.126 112.682" fill="white"/>
<path d="M28.6926 112.159C28.6926 112.159 25.5283 120.389 25.9209 122.87C26.3182 125.351 31.1978 139.07 31.3287 139.594C31.4596 140.117 32.1186 141.551 32.1186 141.551C32.1186 141.551 38.3209 132.799 44.2568 131.493C50.1928 130.188 55.3388 131.1 55.3388 131.1L52.4363 124.569C52.4363 124.569 52.3054 120.912 52.039 119.736C51.7772 118.56 47.1594 113.464 44.126 112.682" stroke="#263238" stroke-miterlimit="10"/>
<path d="M48.8887 120.722C49.6879 121.426 50.3002 121.99 50.3002 121.99" stroke="#263238" stroke-miterlimit="10"/>
<path d="M41.0645 119.148C41.0645 119.148 44.3082 117.788 45.3084 118.037C45.7524 118.149 46.7807 118.935 47.7949 119.783" stroke="#263238" stroke-miterlimit="10"/>
<path d="M117.816 167.301C117.816 167.301 112.632 165.82 110.842 165.13C109.047 164.441 105.659 162.566 104.663 162.168C103.667 161.774 98.4841 162.168 97.8858 162.168C97.2876 162.168 94.6982 161.575 94.1981 162.071C93.698 162.566 94.4972 163.746 95.0955 164.144C95.6937 164.538 99.5778 165.232 99.5778 165.232L102.966 166.417L96.292 167.403L90.0149 168.588C90.0149 168.588 90.2159 169.18 91.0104 169.574C91.8097 169.967 94.8992 170.463 94.8992 170.463C94.8992 170.463 102.574 173.425 104.467 173.721C105.948 173.953 109.758 174.221 111.351 174.328C111.828 174.36 112.305 174.351 112.782 174.295C114.852 174.064 120.928 173.365 124.523 172.717C128.907 171.925 143.7 169.074 146.715 168.259C158.227 165.149 169.939 156.845 170.44 156.549C170.94 156.252 172.533 154.771 172.73 154.378C172.931 153.984 173.926 152.6 173.926 152.6L157.483 146.481L156.235 147.347C156.235 147.347 144.429 153.586 139.447 156.646C134.464 159.705 124.7 165.528 124.102 165.825C123.504 166.121 117.825 167.306 117.825 167.306L117.816 167.301Z" fill="#FFDFD4" stroke="#263238" stroke-miterlimit="10"/>
<path d="M164.588 112.71L160.461 134.881L157.778 138.149L156.231 147.342C156.231 147.342 163.246 150.92 167.785 151.837C172.323 152.758 179.133 152.448 179.133 152.448L181.507 140.598L181.816 133.345C181.816 133.345 184.807 106.984 184.602 105.966C184.396 104.943 175.422 101.267 173.665 100.754C171.912 100.245 170.879 100.143 170.879 100.143" fill="#55268E"/>
<path d="M164.588 112.71L160.461 134.881L157.778 138.149L156.231 147.342C156.231 147.342 163.246 150.92 167.785 151.837C172.323 152.758 179.133 152.448 179.133 152.448L181.507 140.598L181.816 133.345C181.816 133.345 184.807 106.984 184.602 105.966C184.396 104.943 175.422 101.267 173.665 100.754C171.912 100.245 170.879 100.143 170.879 100.143" stroke="#263238" stroke-miterlimit="10"/>
<path d="M165.303 132.822C168.659 131.225 173.735 128.721 175.216 127.522" stroke="#263238" stroke-miterlimit="10"/>
<path d="M162.213 134.271C162.213 134.271 162.882 133.965 163.915 133.479" stroke="#263238" stroke-miterlimit="10"/>
<path d="M178.825 120.884C178.825 120.884 173.875 126.402 170.879 128.341" stroke="#263238" stroke-miterlimit="10"/>
</g>
<g opacity="0.4" clip-path="url(#clip1_4485_2404)">
<path d="M262.814 44.1852H199.186V115.815H262.814V44.1852Z" stroke="#263238" stroke-linecap="round" stroke-linejoin="round"/>
<path d="M260.753 44.1852H199.186V115.815H260.753V44.1852Z" stroke="#263238" stroke-linecap="round" stroke-linejoin="round"/>
<path d="M255.065 48.3643H202.149V109.669H255.065V48.3643Z" fill="#F2E6FF" stroke="#F2E6FF" stroke-miterlimit="10"/>
<path d="M206.163 109.106C206.824 109.202 207.678 108.824 207.678 108.446C207.678 108.068 207.585 103.63 207.96 102.971C208.339 102.311 209.189 100.233 209.189 100.233C209.189 100.233 210.607 104.39 210.607 104.86C210.607 105.19 210.793 108.002 210.904 109.672H223.67C223.466 106.964 222.987 100.641 222.913 99.3846C222.82 97.7805 219.693 91.5456 219.693 91.5456L218.178 88.7115C218.178 88.7115 218.936 83.8955 219.125 82.384C219.315 80.8725 221.208 73.2223 221.398 69.9178C221.587 66.6132 220.64 58.6816 220.64 58.6816L218.958 48.3678H204.518L208.91 61.5156C208.91 61.5156 208.153 72.6592 208.818 77.0974C209.478 81.5356 208.346 91.5456 208.346 91.5456C208.346 91.5456 204.466 97.3989 204.466 97.7768C204.466 98.1547 204.183 104.575 204.276 105.805C204.369 107.031 205.505 109.017 206.17 109.109L206.163 109.106Z" fill="#969696" stroke="#F2E6FF" stroke-miterlimit="10"/>
<path d="M233.859 109.669H242.358C242.158 107.105 241.516 98.614 241.601 97.4952C241.701 96.1726 241.701 95.5651 241.905 94.7501C242.11 93.9387 247.1 71.6812 247.2 70.6661C247.301 69.651 249.748 59.3854 249.748 58.4704C249.748 57.8591 250.661 52.1021 251.263 48.3604H237.918L238.545 52.1687C238.545 52.1687 235.898 62.6344 236.306 68.3247C236.714 74.0151 236.206 86.5146 236.206 88.7522C236.206 90.9898 235.289 94.5463 235.289 94.5463C235.289 94.5463 233.05 98.5103 233.05 99.7291C233.05 100.948 233.863 106.842 233.863 107.35V109.665L233.859 109.669Z" fill="#969696" stroke="#F2E6FF" stroke-miterlimit="10"/>
<path d="M213.374 81.5652L213.481 60.7599L213.199 48.3678H210.529L211.576 61.2896L209.987 84.1029C209.987 84.1029 208.929 87.2704 209.245 87.9039C209.56 88.5374 210.303 88.7486 210.834 88.3262C211.365 87.9039 212.527 87.5853 213.27 87.2704C214.012 86.9555 214.54 87.163 214.224 86.1071C213.908 85.0513 213.377 81.5652 213.377 81.5652H213.374Z" fill="white"/>
<path d="M206.385 100.151C206.597 99.7292 207.551 97.7212 208.29 96.8766C209.029 96.0319 209.245 95.5022 210.091 95.9245C210.938 96.3468 211.045 98.3547 211.257 100.466C211.469 102.578 211.892 103.319 211.892 103.319C211.892 103.319 212.211 104.164 212.211 105.116C212.211 105.86 212.341 108.294 212.397 109.665H213.808C213.841 108.131 213.908 104.982 213.908 104.586C213.908 104.056 213.437 103.289 213.437 103.289C213.437 103.289 213.556 102.226 213.496 101.815C213.437 101.404 212.549 99.1587 212.43 98.0954C212.312 97.0322 212.133 94.613 212.846 94.9687C213.556 95.3243 215.093 99.455 215.271 100.574C215.449 101.693 215.093 102.756 215.271 103.23C215.449 103.701 215.683 103.997 215.683 103.997C215.683 103.997 215.505 104.645 215.564 105.238C215.624 105.827 215.802 106.95 215.802 107.539C215.802 107.913 215.969 108.957 216.092 109.669H216.92C217.031 108.191 217.28 104.864 217.28 104.59C217.28 104.234 217.161 103.408 217.161 103.408C217.161 103.408 217.517 102.7 217.161 101.933C216.805 101.167 215.977 98.5696 215.624 97.5064C215.271 96.4431 214.558 94.4389 215.267 94.9687C215.977 95.4984 217.514 99.0994 217.751 99.7477C217.989 100.396 217.811 101.519 218.108 101.93L218.405 102.345C218.405 102.345 218.227 102.76 218.464 103.289C218.702 103.819 218.761 105.119 218.821 105.471C218.865 105.738 219.211 108.376 219.381 109.669H220.696C220.421 108.261 219.827 105.186 219.827 104.823C219.827 104.353 219.946 102.815 219.946 102.404C219.946 101.993 219.589 101.341 219.589 101.341C219.589 101.341 219.708 100.87 219.411 100.396C219.114 99.9218 218.821 99.4513 218.821 99.4513C218.821 99.4513 217.343 96.3839 217.165 95.7318C216.986 95.0835 217.284 94.6686 217.696 95.0243C218.112 95.3799 219.352 97.9176 219.649 98.5659C219.946 99.2142 219.946 99.6291 220.065 99.9811L220.184 100.337C220.184 100.337 220.243 100.926 220.599 101.578C220.956 102.226 221.487 103.526 221.487 103.526C221.487 103.526 222.196 106.064 222.315 106.594C222.434 107.124 222.434 110.017 222.727 109.487C223.02 108.957 223.024 105.946 223.024 105.946C223.024 105.946 222.553 103.704 222.374 102.522C222.196 101.341 221.784 99.1586 221.546 98.6882C221.309 98.2177 220.481 96.6802 220.187 96.1505C219.89 95.6207 218.888 93.7313 218.828 93.4942C218.769 93.2571 218.531 92.3717 218.119 92.079C217.703 91.7827 217.588 91.6641 217.232 91.6086C216.875 91.553 217.154 91.1529 216.986 90.2304C216.986 90.2304 216.032 88.1188 214.551 88.0113C213.069 87.9039 209.787 89.5969 209.998 90.8639C210.21 92.1309 211.799 92.4495 211.799 92.4495L209.471 93.7165C209.471 93.7165 208.201 93.7165 207.882 94.35C207.562 94.9835 205.13 98.8919 205.13 99.6328C205.13 100.374 206.189 100.585 206.4 100.163L206.385 100.151Z" fill="white"/>
<path d="M244.79 48.364L245.57 52.6799C245.57 52.6799 243.227 65.4832 243.636 65.2795C244.044 65.0757 247.709 58.8778 247.913 58.3703C248.077 57.9665 248.686 51.1462 248.931 48.364H244.79Z" fill="white"/>
<path d="M248.118 59.2854C248.118 59.2854 244.349 65.5871 244.044 66.1946C243.74 66.8059 243.331 68.3285 243.231 69.0398C243.131 69.7511 241.193 84.6883 241.193 84.6883L241.397 91.3937C241.397 91.3937 244.349 73.0001 244.861 71.07C245.374 69.1398 246.287 65.5834 246.696 64.2608C247.104 62.9382 248.121 59.2817 248.121 59.2817L248.118 59.2854Z" fill="white"/>
<path d="M243.331 66.1946C243.331 66.1946 241.397 78.9979 241.192 80.6242C240.988 82.2506 240.888 85.2995 240.988 86.1108C241.089 86.9222 241.497 93.4275 241.192 93.8351C240.888 94.2426 240.175 94.9539 240.175 94.9539C240.175 94.9539 240.584 96.5802 240.379 97.0877C240.175 97.5953 239.258 97.699 238.445 97.5953C237.632 97.4953 236.714 97.6953 236.815 97.0877C236.915 96.4765 237.628 94.8538 237.528 94.0388C237.427 93.2275 236.815 93.3275 237.628 92.1087C238.441 90.8898 239.054 88.3485 239.054 88.3485C239.054 88.3485 240.48 66.6021 240.48 66.1946C240.48 65.7871 243.027 64.5683 243.331 66.1946Z" fill="white"/>
<path d="M235.285 106.742V108.976C235.285 109.198 235.318 109.45 235.396 109.665H237.019C237.023 109.05 237.223 107.853 237.427 107.45C237.632 107.042 238.445 108.872 238.445 109.28C238.445 109.402 238.415 109.532 238.382 109.665H241.742C241.905 109.091 242.384 106.994 242.009 105.316C241.601 103.486 241.092 100.033 241.092 100.033L240.379 98.3065L236.711 98.0027C236.711 98.0027 234.472 98.9177 234.472 99.629C234.472 100.34 233.963 101.559 234.268 102.067C234.572 102.574 235.285 106.234 235.285 106.742Z" fill="white"/>
<path d="M216.961 65.6129L219.107 60.6857C218.513 56.4846 217.822 51.7797 217.822 51.7797L217.061 48.364H214.075L216.444 61.0747C216.444 61.0747 216.727 63.7828 216.961 65.6129Z" fill="white"/>
<path d="M219.136 60.9117L217.202 67.5653C217.15 70.2401 215.809 82.3024 215.809 82.3024C215.809 82.3024 214.643 86.422 214.751 86.9481C214.859 87.4741 216.34 87.4778 216.764 87.689C217.187 87.9002 217.718 85.8922 217.718 85.4699C217.718 85.0476 219.2 69.7325 219.307 68.8879C219.415 68.0432 219.942 68.0432 219.942 67.0911C219.942 66.6947 219.575 63.9607 219.144 60.9117H219.136Z" fill="white"/>
<path d="M245.749 106.409H251.586" stroke="white" stroke-miterlimit="10"/>
<path d="M245.749 104.997H251.586" stroke="white" stroke-miterlimit="10"/>
<path d="M245.749 103.586H251.586" stroke="white" stroke-miterlimit="10"/>
<path d="M222.578 53.295H228.415" stroke="white" stroke-miterlimit="10"/>
<path d="M222.578 51.8835H228.415" stroke="white" stroke-miterlimit="10"/>
<path d="M222.578 50.472H228.415" stroke="white" stroke-miterlimit="10"/>
</g>
<defs>
<clipPath id="clip0_4485_2404">
<rect width="166" height="146" fill="white" transform="translate(24 47)"/>
</clipPath>
<clipPath id="clip1_4485_2404">
<rect width="64" height="72" fill="white" transform="translate(199 44)"/>
</clipPath>
</defs>
</svg>
