<svg width="32" height="32" viewBox="0 0 32 32" fill="none" xmlns="http://www.w3.org/2000/svg">
<path fill-rule="evenodd" clip-rule="evenodd" d="M6.66667 3.66797C5.74619 3.66797 5 4.41416 5 5.33464V26.668C5 27.5884 5.74619 28.3346 6.66667 28.3346H25.3333C26.2538 28.3346 27 27.5884 27 26.668V11.0822L19.5858 3.66797H6.66667ZM3 5.33464C3 3.30959 4.64162 1.66797 6.66667 1.66797H19.7239C20.1659 1.66797 20.5898 1.84356 20.9024 2.15612L28.5118 9.7656C28.8244 10.0782 29 10.5021 29 10.9441V26.668C29 28.693 27.3584 30.3346 25.3333 30.3346H6.66667C4.64162 30.3346 3 28.693 3 26.668V5.33464Z" fill="#44226E"/>
<path fill-rule="evenodd" clip-rule="evenodd" d="M19 2.99107C19 1.98138 20.2208 1.47573 20.9347 2.18969L28.4795 9.73446C29.1935 10.4484 28.6878 11.6692 27.6781 11.6692H20.1333C19.5074 11.6692 19 11.1618 19 10.5358V2.99107ZM21 5.08339V9.66918H25.5858L21 5.08339Z" fill="#44226E"/>
<path fill-rule="evenodd" clip-rule="evenodd" d="M9.66797 18.668C9.66797 18.1157 10.1157 17.668 10.668 17.668H21.3346C21.8869 17.668 22.3346 18.1157 22.3346 18.668C22.3346 19.2203 21.8869 19.668 21.3346 19.668H10.668C10.1157 19.668 9.66797 19.2203 9.66797 18.668Z" fill="url(#paint0_linear_70562_8390)"/>
<path fill-rule="evenodd" clip-rule="evenodd" d="M9.33203 22.332C9.33203 21.7797 9.77975 21.332 10.332 21.332H20.9987C21.551 21.332 21.9987 21.7797 21.9987 22.332C21.9987 22.8843 21.551 23.332 20.9987 23.332H10.332C9.77975 23.332 9.33203 22.8843 9.33203 22.332Z" fill="url(#paint1_linear_70562_8390)"/>
<defs>
<linearGradient id="paint0_linear_70562_8390" x1="16.0013" y1="16.668" x2="16.0013" y2="19.668" gradientUnits="userSpaceOnUse">
<stop stop-color="#F6462D"/>
<stop offset="1" stop-color="#FEB707"/>
</linearGradient>
<linearGradient id="paint1_linear_70562_8390" x1="15.9987" y1="19.9987" x2="15.6654" y2="23.332" gradientUnits="userSpaceOnUse">
<stop stop-color="#F6462D"/>
<stop offset="1" stop-color="#FEB707"/>
</linearGradient>
</defs>
</svg>
