<svg width="24" height="24" viewBox="0 0 24 24" fill="none" xmlns="http://www.w3.org/2000/svg">
<path d="M14.1817 12.062C13.7434 11.6987 13.1762 11.4639 12.6756 11.2572C11.9856 10.9717 11.3894 10.7256 11.3894 10.2691C11.3894 10.0698 11.4827 9.88656 11.6523 9.75437C11.8314 9.61469 12.0812 9.53828 12.3555 9.53828C13.2184 9.53828 13.9066 10.1486 13.9127 10.1537L14.0809 10.307L14.8455 8.87312L14.7578 8.78078C14.7245 8.74562 13.9192 7.91406 12.3658 7.91406C11.6205 7.91406 10.9352 8.15219 10.435 8.58484C9.92781 9.02359 9.6475 9.62969 9.6475 10.2906C9.6475 10.9516 9.89781 11.4564 10.4111 11.8834C10.8428 12.242 11.3809 12.4741 11.9012 12.6986C12.6109 13.0042 13.225 13.2691 13.225 13.7397C13.225 14.0983 12.9822 14.4813 12.3016 14.4813C11.3256 14.4813 10.5423 13.7383 10.5348 13.7303L10.3881 13.5878L9.4375 14.905L9.53219 15.0109C9.54297 15.0217 9.78859 15.2931 10.2498 15.5631C10.6731 15.8102 11.3692 16.105 12.2795 16.105C13.0764 16.105 13.7552 15.8608 14.2431 15.3986C14.702 14.9636 14.9547 14.3631 14.9547 13.7069C14.9547 13.0506 14.7016 12.4937 14.1803 12.0616" fill="#292075"/>
<path d="M22.2188 15.9859H24V8.03125H22.2188V15.9859Z" fill="#292075"/>
<path d="M18.7367 14.4967H17.3811V9.52094H18.5764C19.1122 9.52094 19.4197 9.82047 19.4197 10.3431C19.4197 10.8658 19.1431 11.1381 18.5975 11.1381H18.1859V12.602H18.7367C19.0381 12.602 19.2889 12.6958 19.4623 12.8744C19.6447 13.0614 19.7188 13.247 19.7188 13.5138C19.7188 14.1198 19.3423 14.4963 18.7367 14.4963M21.102 12.4117C20.9258 12.1347 20.6844 11.9144 20.3966 11.7672C20.8606 11.3955 21.1231 10.8241 21.1231 10.172C21.1231 9.52 20.8719 8.96266 20.3966 8.58063C19.9489 8.22109 19.3269 8.03125 18.5975 8.03125H15.6992V15.9859H18.6298C19.4075 15.9859 20.0797 15.7895 20.5742 15.4173C21.1358 14.9955 21.432 14.3669 21.432 13.6C21.432 13.1631 21.3181 12.752 21.1016 12.4117" fill="#292075"/>
<path d="M4.11234 7.89062C1.84125 7.89062 0 9.73609 0 12.0123C0 14.1466 1.61812 15.9016 3.69141 16.113V13.1186C3.24563 12.9484 2.92828 12.5172 2.92828 12.0123C2.92828 11.3594 3.45938 10.8283 4.11234 10.8283C4.76531 10.8283 5.29641 11.3594 5.29641 12.0123C5.29641 12.5172 4.97812 12.9484 4.53281 13.1186V16.113C6.60656 15.902 8.22469 14.1466 8.22469 12.0123C8.22469 9.73609 6.38344 7.89062 4.11234 7.89062Z" fill="#00B5EF"/>
</svg>
