<svg width="72" height="72" viewBox="0 0 72 72" fill="none" xmlns="http://www.w3.org/2000/svg">
<g clip-path="url(#clip0_4485_2272)">
<path d="M71.7026 34.3402C72.1762 33.4614 72.0772 32.3917 71.4502 31.6149L67.9707 27.3035C67.9092 27.2272 67.8808 27.1276 67.8931 27.0302L68.5914 21.5243C68.7174 20.532 68.2385 19.5689 67.3716 19.0705L62.5806 16.3149C62.4953 16.2658 62.4329 16.183 62.4093 16.0875L61.0809 10.7042C60.8405 9.73043 60.0445 9.00371 59.053 8.85297L53.6006 8.02261C53.5032 8.00771 53.4147 7.95286 53.3581 7.87187L50.1863 3.33931C49.6099 2.51556 48.6036 2.12478 47.6215 2.34415L42.2422 3.547C42.1454 3.56852 42.0431 3.54967 41.9609 3.49427L37.3769 0.420766C36.5404 -0.140302 35.4597 -0.140162 34.6235 0.420626L30.0391 3.49399C29.957 3.54911 29.8545 3.56809 29.7582 3.54658L24.3785 2.34373C23.3965 2.12408 22.3902 2.515 21.8139 3.33888L18.6423 7.87187C18.5858 7.95272 18.4973 8.00757 18.3997 8.02247L12.9474 8.85268C11.9559 9.00357 11.1598 9.73028 10.9195 10.7042L9.59108 16.0874C9.56745 16.183 9.50516 16.2658 9.41966 16.3149L4.62878 19.0702C3.76187 19.5688 3.28306 20.532 3.40892 21.524L4.10723 27.0303C4.1196 27.1275 4.09134 27.227 4.02975 27.3034L0.55014 31.6148C-0.0768791 32.3915 -0.175875 33.4614 0.29787 34.3404L2.93011 39.2218C2.97666 39.3082 2.98608 39.4114 2.95641 39.5046L1.26195 44.7889C0.956949 45.7401 1.25056 46.7739 2.01004 47.4228L6.21749 51.0173C6.29216 51.0812 6.33829 51.1741 6.34405 51.2721L6.66494 56.8115C6.72288 57.811 7.37099 58.6708 8.31623 59.0017L13.5269 60.8251C13.6199 60.8575 13.6966 60.9277 13.7374 61.0173L16.0268 66.0609C16.4419 66.9756 17.3612 67.5504 18.3627 67.5097L23.872 67.3198C23.9696 67.316 24.0681 67.3541 24.1386 67.4234L28.0838 71.2917C28.5567 71.7555 29.1783 72.0002 29.8118 72C30.1408 72 30.4732 71.9339 30.7895 71.7981L35.8571 69.6233C35.9479 69.5843 36.0523 69.5843 36.1431 69.6233L41.2105 71.7981C42.1353 72.1951 43.1973 71.9962 43.9162 71.2916L47.8614 67.4232C47.9322 67.354 48.0291 67.3177 48.128 67.3197L53.6372 67.5095C54.64 67.5489 55.5582 66.9756 55.9733 66.0607L58.2627 61.0173C58.3035 60.9276 58.3801 60.8574 58.4732 60.8249L63.6838 59.0015C64.6291 58.6705 65.2772 57.8109 65.3351 56.8114L65.656 51.2721C65.6618 51.1741 65.7079 51.0812 65.7826 51.0172L69.99 47.4227C70.7495 46.7737 71.0431 45.7398 70.7381 44.7888L69.044 39.5049C69.014 39.4112 69.0234 39.3082 69.0701 39.2217L71.7026 34.3402ZM67.0355 40.1486L68.7298 45.4329C68.7744 45.5724 68.7314 45.724 68.62 45.8192L64.4125 49.4137C63.9035 49.8488 63.5894 50.4816 63.5504 51.1502L63.2295 56.6896C63.2209 56.8361 63.1259 56.9623 62.9871 57.0108L57.7765 58.8342C57.1426 59.0561 56.6197 59.534 56.3421 60.1456L54.0527 65.1892C53.9917 65.3233 53.8553 65.4078 53.7099 65.4018L48.2006 65.2119C47.5248 65.1899 46.8656 65.4458 46.3848 65.9174L42.4396 69.7857C42.3341 69.8892 42.1783 69.9183 42.0426 69.8601L36.9753 67.6853C36.3555 67.4191 35.6448 67.4192 35.0252 67.6851L29.9577 69.8601C29.8223 69.9183 29.6662 69.8892 29.5608 69.7857L25.6156 65.9176C25.1548 65.4655 24.5275 65.2105 23.8834 65.2105C23.8556 65.2105 23.8277 65.2111 23.7998 65.2121L18.2903 65.4019C18.1448 65.4063 18.0085 65.3234 17.9475 65.1893L15.6581 60.1456C15.3803 59.534 14.8577 59.0562 14.2238 58.8343L9.01313 57.0109C8.87448 56.9624 8.77929 56.8363 8.77071 56.6897L8.44982 51.1502C8.41101 50.4817 8.09672 49.8489 7.58754 49.4139L3.38023 45.8194C3.26886 45.7242 3.22569 45.5726 3.27041 45.4331L4.96486 40.1483C5.16876 39.5116 5.10379 38.8091 4.78656 38.2209L2.15446 33.3396C2.08485 33.2106 2.09934 33.0537 2.1913 32.9397L5.67105 28.6283C6.09122 28.1076 6.28387 27.4283 6.19964 26.765L5.50132 21.2588C5.48276 21.1134 5.55307 20.972 5.68019 20.8989L10.4709 18.1435C11.0524 17.8091 11.478 17.244 11.6386 16.5929L12.967 11.2099C13.0023 11.0669 13.1191 10.9604 13.2646 10.9381L18.7169 10.1077C19.3821 10.0065 19.9848 9.63227 20.3703 9.08105L23.5419 4.54849C23.6266 4.42755 23.7753 4.3706 23.9183 4.40252L29.2978 5.60538C29.9559 5.75218 30.6541 5.62127 31.2139 5.2461L35.7982 2.17273C35.9207 2.09061 36.0794 2.09061 36.2019 2.17273C36.202 2.17287 36.202 2.17287 36.202 2.17287L40.7861 5.24596C41.3456 5.62141 42.044 5.7526 42.7023 5.60538L48.0816 4.40252C48.2262 4.37032 48.3734 4.42784 48.4582 4.54849L51.6297 9.08091C52.0153 9.63227 52.6179 10.0065 53.2831 10.1077L58.7355 10.9382C58.881 10.9603 58.9977 11.0669 59.033 11.2097L60.3615 16.5929C60.522 17.244 60.9477 17.8091 61.529 18.1434L66.3199 20.8989C66.447 20.972 66.5173 21.1132 66.4988 21.2589L65.8004 26.7647C65.7161 27.4283 65.9089 28.1076 66.3292 28.6283L69.8088 32.9398C69.9006 33.0537 69.9152 33.2106 69.8458 33.3395L67.2135 38.2209C66.8964 38.809 66.8315 39.5115 67.0355 40.1486Z" fill="#44226E"/>
<path d="M54.0332 53.4004C49.2401 58.366 42.8107 61.1006 35.9295 61.1006C22.4333 61.3159 10.527 49.5092 10.7588 35.9299C10.6869 27.4253 15.3554 19.0139 22.673 14.5403C23.1675 14.2326 23.3191 13.5822 23.0113 13.0877C22.7036 12.5931 22.0534 12.4418 21.5587 12.7493C13.6968 17.5614 8.57509 26.6152 8.64948 35.93C8.64751 51.3918 21.3746 63.2472 35.9295 63.2101C43.3882 63.2101 50.3567 60.2465 55.5509 54.8655C55.9553 54.4464 55.9436 53.7786 55.5244 53.3742C55.1053 52.9694 54.4376 52.9815 54.0332 53.4004Z" fill="#44226E"/>
<path d="M35.9297 8.6499C32.7463 8.65046 29.3392 9.23741 26.272 10.4151C25.7275 10.6222 25.454 11.2314 25.6609 11.7757C25.8678 12.3203 26.4776 12.5931 27.0215 12.3868C29.6782 11.366 32.936 10.7415 35.9297 10.7593C44.9699 10.7593 53.366 15.6613 57.8413 23.5527C61.8038 30.4398 62.1975 39.4142 58.6982 46.6573C58.2366 47.6332 57.7055 48.5901 57.1201 49.5012C56.8052 49.9911 56.9472 50.6437 57.4372 50.9585C57.6136 51.072 57.8111 51.126 58.0064 51.126C58.3533 51.126 58.6932 50.9549 58.8945 50.6415C59.529 49.6542 60.1044 48.6171 60.6047 47.5594C64.3559 39.8055 64.0214 30.0523 59.676 22.5121C54.827 13.9615 45.7278 8.6499 35.9297 8.6499Z" fill="#44226E"/>
<path d="M19.196 31.0425V33.3363C19.196 33.9189 19.6681 34.3909 20.2507 34.3909C20.8333 34.3909 21.3053 33.9189 21.3053 33.3363V31.0425C21.3053 30.6162 21.6524 30.2691 22.0787 30.2691H26.1567C26.583 30.2691 26.9301 30.6162 26.9301 31.0425V48.0574C26.9301 48.4837 26.583 48.8308 26.1567 48.8308H22.0787C21.6524 48.8308 21.3053 48.4837 21.3053 48.0574V38.292C21.3053 37.7094 20.8333 37.2373 20.2507 37.2373C19.6681 37.2373 19.196 37.7094 19.196 38.292V48.0574C19.196 49.6469 20.4892 50.9401 22.0787 50.9401H26.1567C27.4615 50.9401 28.565 50.068 28.9191 48.8765C30.8902 49.5931 32.9536 49.9557 35.0719 49.9557H39.7504C40.333 49.9557 40.8051 49.4837 40.8051 48.9011C40.8051 48.3185 40.333 47.8465 39.7504 47.8465H35.0719C32.9853 47.8465 30.9594 47.447 29.0394 46.6608V33.2024C30.8088 32.9099 32.3362 31.4107 33.4991 30.0865C35.3018 28.0336 36.3642 25.3503 36.4903 22.5309L36.7019 17.8029C36.7026 17.7872 36.7031 17.7714 36.7031 17.7557C36.7031 17.5618 36.8607 17.4042 37.0546 17.4042H37.1075C37.8142 17.4048 38.476 17.6838 38.971 18.19C39.4675 18.6978 39.7326 19.3686 39.7172 20.0788L39.5552 27.5645C39.5548 27.5839 39.555 27.6031 39.5555 27.6225C39.606 29.1312 40.7085 30.2691 42.1198 30.2691H51.9602C52.7356 30.2691 53.3664 30.8999 53.3664 31.6753C53.3664 32.4507 52.7356 33.0815 51.9602 33.0815C51.5534 33.0815 51.0095 33.0815 50.4837 33.0815C49.9011 33.0815 49.4291 33.5536 49.4291 34.1361C49.4291 34.7187 49.9011 35.1908 50.4837 35.1908H51.5383C52.3137 35.1908 52.9445 35.8216 52.9445 36.597C52.9445 37.3723 52.3137 38.0032 51.5383 38.0032C50.9216 38.0034 49.8859 38.0036 49.2181 38.0032C48.6355 38.0032 48.1635 38.4752 48.1635 39.0578C48.1635 39.6404 48.6355 40.1124 49.2181 40.1124H50.2728C51.0481 40.1124 51.679 40.7432 51.679 41.5186C51.679 42.294 51.0481 42.9248 50.2728 42.9248C49.7196 42.9248 48.6881 42.9248 48.0932 42.9248C47.5106 42.9248 47.0385 43.3969 47.0385 43.9794C47.0385 44.562 47.5106 45.0341 48.0932 45.0341H49.1478C49.9232 45.0341 50.554 45.6649 50.554 46.4403C50.554 47.2156 49.9232 47.8465 49.1478 47.8465H44.7062C44.1237 47.8465 43.6516 48.3185 43.6516 48.9011C43.6516 49.4837 44.1237 49.9557 44.7062 49.9557H49.1478C51.0862 49.9557 52.6633 48.3787 52.6633 46.4403C52.6633 45.7341 52.4532 45.0764 52.0935 44.5249C53.1088 43.9077 53.7882 42.7911 53.7882 41.5186C53.7882 40.8375 53.5929 40.2014 53.2563 39.6625C54.3279 39.0595 55.0538 37.9117 55.0538 36.597C55.0538 35.7427 54.7473 34.9589 54.2388 34.3492C54.9949 33.7039 55.4757 32.745 55.4757 31.6753C55.4757 29.7369 53.8986 28.1598 51.9602 28.1598H42.1198C41.8411 28.1598 41.6821 27.8697 41.6648 27.5756L41.8259 20.1243C41.8536 18.8427 41.3754 17.6319 40.4791 16.7153C39.5845 15.8004 38.3877 15.2959 37.1083 15.2949H37.0546C35.7066 15.2949 34.6084 16.3843 34.5939 17.729L34.3833 22.4367C34.2784 24.7787 33.4016 27.0011 31.914 28.6949C31.4612 29.2105 30.2214 30.6219 29.0388 31.0316C29.0327 29.4472 27.7424 28.16 26.1567 28.16H22.0787C20.4893 28.1598 19.196 29.453 19.196 31.0425Z" fill="url(#paint0_linear_4485_2272)"/>
</g>
<defs>
<linearGradient id="paint0_linear_4485_2272" x1="55.4757" y1="15.2949" x2="16.9405" y2="17.9278" gradientUnits="userSpaceOnUse">
<stop stop-color="#FFC837"/>
<stop offset="1" stop-color="#F6462D"/>
</linearGradient>
<clipPath id="clip0_4485_2272">
<rect width="72" height="72" fill="white"/>
</clipPath>
</defs>
</svg>
