<svg width="112" height="102" viewBox="0 0 112 102" fill="none" xmlns="http://www.w3.org/2000/svg">
<path d="M51.4859 81.6269C51.4859 81.6269 49.394 80.2006 48.7545 77.9491C48.28 76.2783 49.1346 74.1106 49.2083 74.0109L46.4846 73.6033C46.4846 73.6033 45.876 77.2299 47.354 79.5503C47.8067 80.2615 49.061 81.209 49.8541 81.5482C50.7281 81.9219 51.4859 81.6269 51.4859 81.6269Z" fill="#6A9FF8"/>
<path d="M56.0733 79.7512L58.6735 82.449C58.6735 82.449 51.8423 84.6345 47.6209 79.9042C47.6209 79.9042 53.5591 81.6013 56.0733 79.7512Z" fill="#B5CFFB"/>
<path d="M50.6798 27.0925C50.6798 27.0925 46.2973 25.073 45.4531 22.0512C45.4531 22.0512 41.5542 22.7773 40.8785 24.1622C40.8785 24.1622 43.3779 29.0194 45.6314 29.6967C45.6314 29.6967 50.4527 29.3902 50.6798 27.0925Z" fill="#00AA6D"/>
<path d="M39.4192 89.7682C39.4192 89.7682 35.2607 92.1723 32.3175 91.0974C32.3175 91.0974 30.6706 94.7098 31.4097 96.0713C31.4097 96.0713 36.7963 96.8647 38.6408 95.4177C38.6408 95.4177 41.1585 91.2961 39.4192 89.7682Z" fill="#00AA6D"/>
<path d="M26.7317 70.5573C26.7317 70.5573 22.5732 72.9613 19.63 71.8865C19.63 71.8865 17.9831 75.4989 18.7222 76.8604C18.7222 76.8604 24.1088 77.6538 25.9533 76.2067C25.9533 76.2067 28.471 72.0851 26.7317 70.5573Z" fill="#00AA6D"/>
<path d="M75.3684 34.1231C75.3684 34.1231 75.7062 31.3199 77.6144 29.5475C79.0306 28.2323 81.6272 27.9906 81.7644 28.0137L80.7629 25.0948C80.7629 25.0948 76.8429 26.3173 75.2992 28.9597C74.8259 29.7693 74.5315 31.4967 74.6039 32.4577C74.6837 33.5169 75.3684 34.1231 75.3684 34.1231Z" fill="#6A9FF8"/>
<path d="M79.629 37.7964L78.2884 41.7506C78.2884 41.7506 72.5831 36.0391 75.1081 29.4428C75.1081 29.4428 76.4886 36.2217 79.629 37.7964Z" fill="#B5CFFB"/>
<path d="M39.8507 41.3731C39.8507 41.3731 32.7259 39.3435 30.4621 46.8178L25.0202 46.406C25.0202 46.406 26.0868 41.883 35.8375 40.358C42.2176 39.3608 39.8507 41.3731 39.8507 41.3731Z" fill="#F6462D"/>
<path d="M46.8825 43.3604C46.8825 43.3604 43.0856 37.399 31.2812 41.4738C31.2812 41.4738 35.849 40.3682 41.2847 44.9478L46.8825 43.3604Z" fill="#FFAE99"/>
<path d="M66.9565 60.9975C66.9565 60.9975 75.1491 61.0396 75.3211 52.4516L81.2385 51.2797C81.2385 51.2797 81.4561 56.3866 71.532 60.8864C65.0388 63.831 66.9565 60.9975 66.9565 60.9975Z" fill="#F6462D"/>
<path d="M58.8931 60.9803C58.8931 60.9803 64.7112 66.1704 76.0491 58.3644C76.0491 58.3644 71.5209 60.8854 64.3726 57.6445L58.8931 60.9803Z" fill="#FA9A9A"/>
<path d="M93.5721 41.1778C93.5721 41.1778 94.5288 33.7872 86.8264 32.6066L86.4346 27.1255C86.4346 27.1255 91.0511 27.5376 93.9847 37.0332C95.9035 43.2466 93.5721 41.1778 93.5721 41.1778Z" fill="#55268E"/>
<path d="M92.6735 48.4414C92.6735 48.4414 97.9831 43.8134 92.2441 32.6646C92.2441 32.6646 94.0013 37.0462 90.2915 43.105L92.6735 48.4414Z" fill="#D4B8F5"/>
<path d="M51.6223 56.653C51.6223 56.653 52.1625 52.4796 47.8132 51.813L47.5919 48.7179C47.5919 48.7179 50.1988 48.9506 51.8553 54.3126C52.9388 57.8212 51.6223 56.653 51.6223 56.653Z" fill="#55268E"/>
<path d="M51.1155 60.7532C51.1155 60.7532 54.1137 58.1398 50.873 51.8443C50.873 51.8443 51.8653 54.3185 49.7704 57.7398L51.1155 60.7532Z" fill="#D4B8F5"/>
</svg>
