<svg width="800" height="800" viewBox="0 0 800 800" fill="none" xmlns="http://www.w3.org/2000/svg">
<g clip-path="url(#clip0_1573_13392)">
<path fill-rule="evenodd" clip-rule="evenodd" d="M66.211 323.309C-5.27342 286.98 2.9297 246.486 74.7396 250.717L90.8203 280.861L123.958 177.801C136.979 137.241 158.659 100.457 201.172 100.457H625C667.513 100.457 691.992 136.525 702.279 177.736L727.148 277.671L741.471 250.717C815.299 246.421 821.875 289.324 743.75 326.368L756.445 345.835C807.813 398.634 802.995 491.993 794.987 622.397V675.392C794.987 688.673 784.115 699.546 770.833 699.546H667.773C654.492 699.546 643.62 688.673 643.62 675.392V645.835H156.51V675.392C156.51 688.673 145.638 699.546 132.357 699.546H29.2969C16.0156 699.546 5.14325 688.673 5.14325 675.392V609.572C5.14325 608.269 5.27345 607.033 5.40366 605.796C-2.40884 505.73 -13.4114 374.871 66.211 323.309ZM197.786 482.618L106.25 471.095C84.6354 468.686 78.8412 477.801 86.1979 496.421L96.0938 520.444C99.2839 526.629 103.516 531.121 108.464 534.246C114.258 537.827 121.224 539.585 128.971 539.91L210.612 540.561C230.339 540.496 238.867 532.618 232.682 514.52C227.604 497.527 216.016 486.85 197.786 482.618ZM354.036 444.142H447.786C453.32 444.142 457.878 448.699 457.878 454.233C457.878 459.767 453.32 464.324 447.786 464.324H354.036C348.503 464.324 343.945 459.767 343.945 454.233C343.88 448.699 348.438 444.142 354.036 444.142ZM585.677 576.694H679.427C684.961 576.694 689.518 581.251 689.518 586.785C689.518 592.319 684.961 596.876 679.427 596.876H585.677C580.143 596.876 575.586 592.319 575.586 586.785C575.586 581.251 580.078 576.694 585.677 576.694ZM602.214 482.618L693.75 471.095C715.365 468.686 721.159 477.801 713.802 496.421L703.906 520.444C700.716 526.629 696.484 531.121 691.536 534.246C685.742 537.827 678.776 539.585 671.029 539.91L589.388 540.561C569.661 540.496 561.133 532.618 567.318 514.52C572.396 497.527 583.984 486.85 602.214 482.618ZM119.857 576.694H213.607C219.141 576.694 223.698 581.251 223.698 586.785C223.698 592.319 219.141 596.876 213.607 596.876H119.857C114.323 596.876 109.766 592.319 109.766 586.785C109.766 581.251 114.323 576.694 119.857 576.694ZM125.195 303.582H690.43L665.495 199.936C658.659 168.361 638.997 141.017 606.576 141.017H215.234C182.878 141.017 166.276 169.077 156.315 199.936L125.195 303.582Z" fill="#44226E"/>
</g>
<defs>
<clipPath id="clip0_1573_13392">
<rect width="800" height="800" fill="white"/>
</clipPath>
</defs>
</svg>
