<svg width="26" height="70" viewBox="0 0 26 70" fill="none" xmlns="http://www.w3.org/2000/svg">
<path d="M12.5392 70C11.8097 70 11.2188 69.4085 11.2188 68.679V1.32099C11.2188 0.591474 11.8102 0 12.5392 0C13.2687 0 13.8602 0.591474 13.8602 1.32099V68.6795C13.8597 69.4091 13.2687 70 12.5392 70Z" fill="url(#paint0_linear_70506_7776)"/>
<path d="M17.9311 3.86719H7.42741L0 11.2946V21.7983L7.42741 29.2257H17.9311L25.3585 21.7983V11.2946L17.9311 3.86719Z" fill="#DE0002"/>
<path d="M17.4155 27.9757H7.94399L1.24609 21.2783V11.8067L7.94346 5.10938H17.415L24.1129 11.8067V21.2783L17.4155 27.9757ZM8.20946 27.3343H17.1495L23.471 21.0123V12.0722L17.1495 5.75076H8.20946L1.88801 12.0722V21.0123L8.20946 27.3343Z" fill="white"/>
<path d="M6.99348 14.6302V13.871C6.99348 13.5259 6.82463 13.3528 6.48748 13.3528H6.30696C5.97724 13.3528 5.81318 13.5253 5.81318 13.871V15.3045C5.81318 15.4654 5.84504 15.5737 5.90928 15.63C5.97353 15.6863 6.07813 15.7585 6.22254 15.8466L7.31895 16.437C7.56 16.5735 7.73043 16.6802 7.83078 16.7567C7.93113 16.8331 8.00918 16.925 8.06546 17.0338C8.12121 17.1421 8.14988 17.3492 8.14988 17.654V19.4974C8.14988 20.4696 7.68424 20.9554 6.75243 20.9554H6.04202C5.11817 20.9554 4.65625 20.425 4.65625 19.3652V18.9309H5.81318V19.4008C5.81318 19.7379 5.98574 19.9068 6.33139 19.9068H6.53633C6.84163 19.9068 6.99401 19.7379 6.99401 19.4008V17.9311C6.99401 17.7703 6.96162 17.6619 6.89738 17.6057C6.83313 17.5494 6.72907 17.4772 6.58412 17.389L5.48771 16.7747C5.24666 16.6462 5.07198 16.5379 4.96367 16.4493C4.85482 16.3606 4.77677 16.2464 4.72846 16.1057C4.68014 15.9656 4.65625 15.7829 4.65625 15.5578V13.7866C4.65625 12.7985 5.11817 12.3047 6.04202 12.3047H6.76464C7.68796 12.3047 8.14988 12.7985 8.14988 13.7866V14.6297L6.99348 14.6302Z" fill="white"/>
<path d="M10.9564 13.3528V20.9549H9.79949V13.3528H8.69141V12.3047H12.065V13.3528H10.9564Z" fill="white"/>
<path d="M14.0654 20.9549C13.1336 20.9549 12.668 20.4653 12.668 19.4852V13.7866C12.668 12.7985 13.1299 12.3047 14.0532 12.3047H15.1613C16.0851 12.3047 16.5471 12.7985 16.5471 13.7866V19.4852C16.5471 20.4653 16.0809 20.9549 15.1496 20.9549H14.0654ZM14.3426 19.9068H14.933C15.2383 19.9068 15.3907 19.7379 15.3907 19.4008V13.8593C15.3907 13.5216 15.2181 13.3533 14.8725 13.3533H14.3304C13.9932 13.3533 13.8244 13.5216 13.8244 13.8593V19.4013C13.8244 19.7379 13.9969 19.9068 14.3426 19.9068Z" fill="white"/>
<path d="M17.5703 12.3047H19.6787C20.61 12.3047 21.0762 12.7985 21.0762 13.7866V16.3526C21.0762 17.3328 20.6142 17.8228 19.6909 17.8228H18.7272V20.9549H17.5708V12.3047H17.5703ZM18.7267 16.7747H19.4615C19.7668 16.7747 19.9192 16.6059 19.9192 16.2687V13.8593C19.9192 13.5216 19.7467 13.3533 19.401 13.3533H18.7262L18.7267 16.7747Z" fill="white"/>
<defs>
<linearGradient id="paint0_linear_70506_7776" x1="11.2184" y1="35.0002" x2="13.8599" y2="35.0002" gradientUnits="userSpaceOnUse">
<stop stop-color="#F8F8F8"/>
<stop offset="0.0761" stop-color="#F1F1F1"/>
<stop offset="0.1883" stop-color="#DDDDDD"/>
<stop offset="0.3223" stop-color="#BDBDBD"/>
<stop offset="0.339" stop-color="#B8B8B8"/>
<stop offset="0.4261" stop-color="#9A9A9A"/>
<stop offset="0.5251" stop-color="#7E7E7E"/>
<stop offset="0.6121" stop-color="#6D6D6D"/>
<stop offset="0.6773" stop-color="#676767"/>
<stop offset="0.7366" stop-color="#6B6B6B"/>
<stop offset="0.7908" stop-color="#767676"/>
<stop offset="0.8431" stop-color="#888888"/>
<stop offset="0.8942" stop-color="#A2A2A2"/>
<stop offset="0.9445" stop-color="#C4C4C4"/>
<stop offset="0.9934" stop-color="#EDEDED"/>
<stop offset="1" stop-color="#F3F3F3"/>
</linearGradient>
</defs>
</svg>
