<svg width="393" height="348" viewBox="0 0 393 348" fill="none" xmlns="http://www.w3.org/2000/svg">
<ellipse cx="176.582" cy="173.903" rx="176.581" ry="173.9" transform="rotate(-180 176.582 173.903)" fill="url(#paint0_linear_4486_3731)"/>
<mask id="mask0_4486_3731" style="mask-type:alpha" maskUnits="userSpaceOnUse" x="0" y="0" width="354" height="348">
<ellipse cx="176.581" cy="173.9" rx="176.581" ry="173.9" fill="#C4C4C4"/>
</mask>
<g mask="url(#mask0_4486_3731)">
<path d="M132.138 173.564H30.1564V244.639H132.138V173.564Z" fill="white" stroke="url(#paint1_linear_4486_3731)" stroke-width="2" stroke-linecap="round" stroke-linejoin="round"/>
<path d="M30.1564 173.564L81.1385 217.01L132.121 173.564H30.1564Z" fill="white" stroke="url(#paint2_linear_4486_3731)" stroke-width="2" stroke-linecap="round" stroke-linejoin="round"/>
<path d="M65.8439 205.268L30.1564 244.603" stroke="url(#paint3_linear_4486_3731)" stroke-width="2" stroke-linecap="round" stroke-linejoin="round"/>
<path d="M96.9996 204.683L132.687 244.606" stroke="url(#paint4_linear_4486_3731)" stroke-width="2" stroke-linecap="round" stroke-linejoin="round"/>
<path d="M372.427 216.16H217.022C216.878 216.16 216.74 216.099 216.638 215.99C216.536 215.882 216.479 215.735 216.479 215.581C216.482 215.428 216.54 215.283 216.641 215.175C216.742 215.067 216.879 215.005 217.022 215.002H371.884V34.6655H202.795V52.2224C202.795 52.3758 202.738 52.523 202.636 52.6316C202.535 52.7401 202.397 52.801 202.253 52.801C202.109 52.801 201.971 52.7401 201.869 52.6316C201.767 52.523 201.71 52.3758 201.71 52.2224V34.0868C201.71 33.9334 201.767 33.7862 201.869 33.6777C201.971 33.5692 202.109 33.5082 202.253 33.5082H372.427C372.57 33.5111 372.706 33.5731 372.807 33.6809C372.909 33.7888 372.967 33.9343 372.969 34.0868V215.581C372.969 215.735 372.912 215.882 372.81 215.99C372.709 216.099 372.571 216.16 372.427 216.16Z" fill="#E1C2FF"/>
<path d="M202.253 216.157C202.109 216.157 201.971 216.096 201.869 215.987C201.767 215.879 201.71 215.732 201.71 215.578V61.4318C201.71 61.2783 201.767 61.1312 201.869 61.0226C201.971 60.9141 202.109 60.8531 202.253 60.8531C202.397 60.8531 202.535 60.9141 202.636 61.0226C202.738 61.1312 202.795 61.2783 202.795 61.4318V215.578C202.795 215.732 202.738 215.879 202.636 215.987C202.535 216.096 202.397 216.157 202.253 216.157Z" fill="#E1C2FF"/>
<path d="M284.854 122.875H210.391C210.247 122.875 210.109 122.814 210.007 122.706C209.905 122.597 209.848 122.45 209.848 122.297V105.075C209.848 104.922 209.905 104.775 210.007 104.666C210.109 104.558 210.247 104.497 210.391 104.497C210.534 104.5 210.67 104.562 210.771 104.669C210.872 104.777 210.931 104.923 210.933 105.075V121.718H284.312V43.4585H210.933V100.342C210.931 100.494 210.872 100.64 210.771 100.748C210.67 100.856 210.534 100.917 210.391 100.92C210.247 100.92 210.109 100.859 210.007 100.751C209.905 100.642 209.848 100.495 209.848 100.342V42.8798C209.848 42.7263 209.905 42.5791 210.007 42.4706C210.109 42.3621 210.247 42.3011 210.391 42.3011H284.854C284.997 42.3041 285.134 42.366 285.235 42.4739C285.336 42.5818 285.394 42.7273 285.397 42.8798V122.297C285.397 122.45 285.34 122.597 285.238 122.706C285.136 122.814 284.998 122.875 284.854 122.875Z" fill="#E1C2FF"/>
<path d="M364.29 122.875H289.826C289.682 122.875 289.544 122.814 289.442 122.706C289.341 122.597 289.284 122.45 289.284 122.297V42.8798C289.284 42.7263 289.341 42.5791 289.442 42.4706C289.544 42.3621 289.682 42.3011 289.826 42.3011H364.29C364.433 42.3011 364.571 42.3621 364.673 42.4706C364.775 42.5791 364.832 42.7263 364.832 42.8798V85.169C364.832 85.3225 364.775 85.4697 364.673 85.5782C364.571 85.6868 364.433 85.7477 364.29 85.7477C364.146 85.7477 364.008 85.6868 363.906 85.5782C363.804 85.4697 363.747 85.3225 363.747 85.169V43.5048H290.401V121.764H363.779V93.5713C363.779 93.4179 363.837 93.2707 363.938 93.1622C364.04 93.0536 364.178 92.9927 364.322 92.9927C364.466 92.9927 364.604 93.0536 364.706 93.1622C364.807 93.2707 364.865 93.4179 364.865 93.5713V122.297C364.865 122.376 364.85 122.454 364.82 122.526C364.791 122.599 364.748 122.664 364.694 122.719C364.641 122.773 364.577 122.815 364.507 122.842C364.438 122.868 364.363 122.88 364.29 122.875Z" fill="#E1C2FF"/>
<path d="M284.854 207.362H210.391C210.247 207.362 210.109 207.301 210.007 207.193C209.905 207.084 209.848 206.937 209.848 206.784V127.367C209.848 127.213 209.905 127.066 210.007 126.958C210.109 126.849 210.247 126.788 210.391 126.788H279.352C279.495 126.791 279.632 126.853 279.733 126.961C279.834 127.069 279.892 127.214 279.895 127.367C279.895 127.52 279.838 127.668 279.736 127.776C279.634 127.885 279.496 127.946 279.352 127.946H210.988V206.205H284.366V127.367C284.366 127.213 284.423 127.066 284.525 126.958C284.626 126.849 284.764 126.788 284.908 126.788C285.051 126.791 285.188 126.853 285.289 126.961C285.39 127.069 285.448 127.214 285.451 127.367V206.784C285.451 206.865 285.436 206.945 285.405 207.019C285.374 207.094 285.33 207.16 285.273 207.215C285.217 207.269 285.151 207.311 285.078 207.336C285.006 207.361 284.93 207.37 284.854 207.362Z" fill="#E1C2FF"/>
<path d="M364.29 207.362H320.655C320.512 207.362 320.373 207.301 320.272 207.193C320.17 207.084 320.113 206.937 320.113 206.784C320.116 206.631 320.174 206.486 320.275 206.378C320.376 206.27 320.512 206.208 320.655 206.205H363.747V127.946H290.401V206.205H310.064C310.207 206.208 310.344 206.27 310.445 206.378C310.546 206.486 310.604 206.631 310.607 206.784C310.607 206.937 310.55 207.084 310.448 207.193C310.346 207.301 310.208 207.362 310.064 207.362H289.826C289.682 207.362 289.544 207.301 289.442 207.193C289.341 207.084 289.284 206.937 289.284 206.784V127.367C289.284 127.213 289.341 127.066 289.442 126.958C289.544 126.849 289.682 126.788 289.826 126.788H364.29C364.433 126.788 364.571 126.849 364.673 126.958C364.775 127.066 364.832 127.213 364.832 127.367V206.784C364.832 206.937 364.775 207.084 364.673 207.193C364.571 207.301 364.433 207.362 364.29 207.362Z" fill="#E1C2FF"/>
<path d="M174.573 268.324C193.921 268.324 209.606 248.072 209.606 223.09C209.606 198.107 193.921 177.855 174.573 177.855C155.225 177.855 139.541 198.107 139.541 223.09C139.541 248.072 155.225 268.324 174.573 268.324Z" fill="black"/>
<path d="M174.573 268.975C154.87 268.975 138.871 248.39 138.871 223.088C138.871 197.786 154.883 177.188 174.573 177.188C194.263 177.188 210.262 197.773 210.262 223.088C210.262 248.403 194.25 268.975 174.573 268.975ZM174.573 178.52C155.605 178.52 140.184 198.506 140.184 223.088C140.184 247.67 155.605 267.643 174.573 267.643C193.541 267.643 208.949 247.657 208.949 223.088C208.949 198.519 193.528 178.52 174.573 178.52Z" fill="black"/>
<path d="M95.6021 338.286C92.3839 338.286 88.7322 335.394 86.7881 333.609C84.0559 331.091 81.2318 327.56 81.2318 325.988C81.2318 323.736 107.503 243.38 110.537 234.254C110.571 234.147 110.631 234.051 110.711 233.974C110.792 233.897 110.89 233.842 110.997 233.814C111.102 233.787 111.212 233.786 111.317 233.812C111.422 233.837 111.52 233.888 111.601 233.961L121.545 243.167C121.622 243.239 121.682 243.328 121.718 243.428C121.755 243.528 121.768 243.635 121.755 243.74L111.956 331.038C111.944 331.139 111.909 331.236 111.855 331.321C111.8 331.407 111.727 331.478 111.641 331.531C111.233 331.784 101.644 337.7 96.1144 338.259L95.6021 338.286ZM111.47 235.693C103.194 261.008 82.7687 323.63 82.5716 326.068C82.5716 326.827 84.5682 329.798 87.6945 332.663C90.8207 335.528 93.9339 337.18 96.0093 336.98C100.751 336.5 109.145 331.584 110.708 330.611L120.441 244.007L111.47 235.693Z" fill="black"/>
<path d="M169.227 222.661L111.115 234.452L120.415 350.583H233.749L248.855 229.736L179.683 222.075L169.227 222.661Z" fill="#F6462D"/>
<path d="M233.75 351.249H120.417C120.253 351.25 120.095 351.186 119.975 351.072C119.855 350.959 119.783 350.803 119.773 350.636L110.46 234.506C110.447 234.344 110.494 234.182 110.591 234.052C110.687 233.922 110.828 233.832 110.986 233.8L169.163 222.009L179.671 221.409L248.935 229.084C249.108 229.103 249.268 229.189 249.381 229.324C249.435 229.395 249.475 229.476 249.497 229.563C249.52 229.65 249.525 229.741 249.513 229.83L234.407 350.69C234.382 350.847 234.302 350.991 234.181 351.093C234.06 351.196 233.908 351.251 233.75 351.249ZM121.034 349.917H233.172L248.12 230.336L179.671 222.782L169.36 223.368L111.866 235.039L121.034 349.917Z" fill="black"/>
<path opacity="0.3" d="M120.416 350.585H233.75L236.6 327.841L236.39 326.735L209.042 332.784L220.969 281.861L155.344 311.107L139.436 327.242H149.38L120.114 346.774L120.416 350.585Z" fill="black"/>
<path d="M163.054 216.122C163.054 216.122 153.623 221.358 151.232 226.061C148.841 230.765 138.95 265.7 138.95 265.7L155.225 269.244L139.542 276.905L163.277 345.869L201.055 343.511L225.645 271.003L210.526 264.527L223.898 258.625C223.898 258.625 211.117 233.869 204.195 223.263C197.272 212.658 163.054 216.122 163.054 216.122Z" fill="#F6462D"/>
<path d="M163.329 346.533C163.194 346.533 163.062 346.49 162.952 346.412C162.841 346.333 162.757 346.222 162.711 346.093L138.949 277.116C138.898 276.961 138.905 276.793 138.968 276.644C139.031 276.494 139.146 276.373 139.291 276.303L153.254 269.481L138.805 266.35C138.716 266.331 138.632 266.294 138.558 266.241C138.483 266.189 138.42 266.121 138.371 266.044C138.325 265.964 138.296 265.876 138.284 265.784C138.273 265.692 138.28 265.599 138.305 265.511C138.713 264.085 148.315 230.483 150.64 225.766C152.965 221.049 162.278 215.76 162.672 215.533C162.749 215.491 162.834 215.468 162.921 215.467C164.327 215.32 197.468 212.069 204.574 222.888C211.497 233.4 224.277 258.076 224.369 258.316C224.408 258.399 224.428 258.49 224.428 258.582C224.428 258.675 224.408 258.766 224.369 258.849C224.342 258.936 224.297 259.016 224.235 259.083C224.174 259.15 224.099 259.202 224.015 259.235L212.048 264.565L225.749 270.441C225.902 270.508 226.025 270.632 226.094 270.788C226.162 270.943 226.17 271.119 226.116 271.28L201.619 343.788C201.575 343.911 201.497 344.017 201.395 344.096C201.292 344.174 201.169 344.22 201.041 344.228L163.263 346.586L163.329 346.533ZM140.394 277.249L163.788 345.2L200.568 342.909L224.724 271.4L210.183 265.164C210.063 265.114 209.96 265.029 209.888 264.92C209.816 264.811 209.777 264.683 209.776 264.551C209.777 264.422 209.815 264.295 209.885 264.187C209.954 264.078 210.053 263.992 210.17 263.939L222.898 258.329C220.849 254.332 209.763 233.174 203.497 223.687C197.034 213.854 165.522 216.626 163.197 216.839C162.12 217.452 153.897 222.169 151.822 226.432C149.747 230.696 141.195 260.354 139.777 265.271L155.369 268.655C155.502 268.685 155.623 268.756 155.715 268.858C155.807 268.961 155.865 269.09 155.881 269.228C155.893 269.366 155.865 269.504 155.799 269.625C155.734 269.746 155.634 269.844 155.513 269.908L140.394 277.249Z" fill="black"/>
<path d="M161.582 351.769L161.096 230.336L192.477 227.378L201.685 350.583L161.582 351.769Z" fill="white"/>
<path d="M161.583 352.436C161.412 352.434 161.248 352.367 161.123 352.249C160.999 352.12 160.929 351.949 160.926 351.769L160.44 230.337C160.436 230.17 160.495 230.008 160.605 229.884C160.715 229.761 160.867 229.684 161.031 229.67L192.412 226.779C192.498 226.766 192.587 226.773 192.671 226.798C192.754 226.824 192.832 226.867 192.898 226.926C193.034 227.044 193.119 227.211 193.134 227.392L202.329 350.597C202.334 350.687 202.321 350.776 202.292 350.861C202.263 350.945 202.217 351.023 202.158 351.09C202.099 351.157 202.026 351.211 201.944 351.248C201.863 351.285 201.775 351.304 201.685 351.303L161.596 352.489L161.583 352.436ZM161.753 230.936L162.239 351.077L200.976 349.944L191.873 228.112L161.753 230.936Z" fill="black"/>
<path d="M156.547 199.22C156.547 199.22 160.606 222.217 161.197 228.106C161.788 233.995 176.789 275.871 181.281 269.036C186.181 261.588 192 238.138 193.103 232.822C194.206 227.506 194.272 204.536 194.272 204.536C194.272 204.536 179.206 215.142 156.547 199.22Z" fill="#FFD8BC"/>
<path d="M179.998 269.735C179.83 269.731 179.663 269.709 179.499 269.668C173.326 268.109 161.004 233.134 160.44 227.445C159.875 221.756 155.842 198.852 155.79 198.612C155.766 198.482 155.781 198.347 155.833 198.226C155.884 198.104 155.971 198.001 156.081 197.929C156.191 197.858 156.319 197.821 156.45 197.824C156.581 197.827 156.708 197.87 156.814 197.946C178.856 213.428 193.699 203.355 193.843 203.276C193.947 203.213 194.065 203.181 194.185 203.181C194.305 203.181 194.423 203.213 194.526 203.276C194.633 203.335 194.721 203.421 194.784 203.527C194.846 203.632 194.88 203.752 194.881 203.875C194.881 204.808 194.881 226.992 193.699 232.308C192.385 238.091 186.698 261.194 181.732 268.749C181.549 269.048 181.293 269.295 180.99 269.467C180.687 269.64 180.346 269.732 179.998 269.735ZM157.34 199.931C158.259 205.261 161.28 222.289 161.714 227.312C162.279 233.054 174.731 267.096 179.788 268.375C180.025 268.375 180.301 268.375 180.616 267.949C185.41 260.634 191.216 237.304 192.438 231.975C193.423 227.485 193.567 209.698 193.581 204.981C189.798 206.94 176.137 212.442 157.34 199.931Z" fill="black"/>
<path d="M193.326 218.946C193.554 211.458 193.554 203.771 193.554 203.771C193.554 203.771 178.954 214.355 157.072 198.479C157.072 198.479 158.683 207.886 159.989 216.168C162.983 220.137 168.679 226.447 175.706 227.625C182.924 228.842 188.759 224.847 193.326 218.946Z" fill="#F6462D"/>
<path opacity="0.5" d="M193.326 218.946C193.554 211.458 193.554 203.771 193.554 203.771C193.554 203.771 178.954 214.355 157.072 198.479C157.072 198.479 158.683 207.886 159.989 216.168C162.983 220.137 168.679 226.447 175.706 227.625C182.924 228.842 188.759 224.847 193.326 218.946Z" fill="white"/>
<path d="M206.426 175.508C206.426 175.508 212.81 167.248 212.81 176.681C212.81 186.114 206.426 187.34 206.426 187.34V175.508Z" fill="#FBA296"/>
<path d="M206.428 187.967C206.273 187.969 206.123 187.912 206.007 187.807C205.931 187.748 205.87 187.671 205.829 187.583C205.788 187.495 205.768 187.398 205.771 187.301V175.509C205.768 175.36 205.814 175.215 205.902 175.096C206.467 174.377 209.357 170.832 211.564 171.605C212.877 172.058 213.468 173.724 213.468 176.682C213.468 186.555 206.611 187.94 206.546 187.954L206.428 187.967ZM207.084 175.736V186.395C208.674 185.755 212.155 183.557 212.155 176.682C212.155 173.564 211.445 172.978 211.143 172.871C210.171 172.538 208.214 174.337 207.084 175.736Z" fill="black"/>
<path d="M143.074 156.059C143.074 156.059 150.627 190.794 150.627 195.55C150.627 205.556 169.227 216.775 177.358 219.133C185.489 221.492 205.258 203.211 206.427 198.495C207.596 193.778 208.161 152.514 205.836 144.267C203.511 136.02 190.178 130.703 181.43 130.703C172.682 130.703 147.146 135.42 143.074 156.059Z" fill="#FFD8BC"/>
<path d="M178.96 220.011C178.361 220.017 177.764 219.936 177.187 219.771C169.305 217.479 149.97 206.154 149.97 195.549C149.97 190.925 142.509 156.55 142.43 156.203C142.417 156.111 142.417 156.016 142.43 155.924C146.594 134.792 172.642 130.036 181.43 130.036C190.217 130.036 204.023 135.365 206.466 144.079C208.909 152.793 208.2 194.03 207.057 198.706C206.203 202.184 196.627 211.79 188.01 216.84C184.359 218.932 181.324 220.011 178.96 220.011ZM143.744 156.057C144.335 158.788 151.283 190.899 151.283 195.562C151.283 205.102 169.529 216.174 177.555 218.505C179.722 219.132 183.111 218.146 187.367 215.654C195.905 210.658 205.087 201.211 205.756 198.333C206.847 193.896 207.504 152.686 205.179 144.452C202.932 136.458 189.6 131.368 181.403 131.368C172.931 131.368 147.829 135.911 143.744 156.044V156.057Z" fill="black"/>
<path d="M173.168 177.387C173.168 179.039 172.445 180.372 171.539 180.372C170.633 180.372 169.897 179.039 169.897 177.387C169.897 175.735 170.633 174.403 171.539 174.403C172.445 174.403 173.168 175.735 173.168 177.387Z" fill="black"/>
<path d="M192.306 177.387C192.306 179.039 191.571 180.372 190.664 180.372C189.758 180.372 189.022 179.039 189.022 177.387C189.022 175.735 189.758 174.403 190.664 174.403C191.571 174.403 192.306 175.735 192.306 177.387Z" fill="black"/>
<path d="M183.414 190.006C183.282 190.008 183.152 189.968 183.044 189.891C182.935 189.815 182.853 189.706 182.809 189.58C182.744 189.417 182.745 189.235 182.811 189.073C182.877 188.91 183.004 188.781 183.164 188.714C185.791 187.674 189.495 185.622 189.732 184.343C189.837 183.85 189.64 183.677 187.972 183.304C186.759 183.137 185.618 182.629 184.675 181.838C182.717 179.853 184.32 174.284 184.517 173.658C184.567 173.481 184.685 173.332 184.844 173.243C184.923 173.199 185.009 173.171 185.098 173.161C185.188 173.151 185.278 173.159 185.364 173.185C185.45 173.21 185.531 173.252 185.601 173.309C185.671 173.366 185.73 173.437 185.773 173.516C185.816 173.596 185.843 173.684 185.853 173.774C185.863 173.865 185.856 173.957 185.83 174.044C185.2 176.123 184.596 179.827 185.66 180.906C186.428 181.493 187.333 181.869 188.287 181.998C189.6 182.305 191.426 182.718 191.045 184.663C190.572 187.115 184.819 189.553 183.676 189.993C183.591 190.017 183.501 190.021 183.414 190.006Z" fill="black"/>
<path d="M177.595 198.88C176.246 198.96 174.9 198.687 173.686 198.087C172.471 197.487 171.429 196.581 170.659 195.456C170.611 195.383 170.576 195.302 170.559 195.216C170.542 195.13 170.542 195.042 170.559 194.956C170.576 194.871 170.61 194.789 170.659 194.717C170.708 194.645 170.771 194.583 170.843 194.536C170.988 194.44 171.164 194.405 171.334 194.44C171.504 194.475 171.653 194.577 171.75 194.723C174.902 199.533 182.258 196.708 182.258 196.681C182.42 196.616 182.601 196.618 182.761 196.688C182.921 196.758 183.047 196.89 183.112 197.054C183.176 197.219 183.174 197.402 183.105 197.565C183.036 197.727 182.906 197.855 182.744 197.92C181.091 198.526 179.352 198.85 177.595 198.88Z" fill="black"/>
<path d="M165.536 172.751C165.457 172.764 165.377 172.764 165.299 172.751C165.218 172.72 165.143 172.673 165.08 172.613C165.016 172.552 164.966 172.479 164.93 172.399C164.895 172.318 164.875 172.231 164.873 172.143C164.871 172.055 164.887 171.967 164.918 171.885C165.599 170.254 166.854 168.938 168.439 168.194C169.41 167.813 170.447 167.635 171.488 167.671C172.529 167.708 173.551 167.958 174.494 168.408C174.656 168.473 174.786 168.601 174.855 168.763C174.924 168.926 174.926 169.109 174.862 169.274C174.797 169.438 174.671 169.57 174.511 169.64C174.351 169.709 174.17 169.712 174.008 169.647C173.227 169.264 172.377 169.045 171.51 169.004C170.643 168.963 169.777 169.1 168.964 169.407C167.704 170.018 166.702 171.068 166.14 172.365C166.089 172.484 166.005 172.584 165.897 172.653C165.789 172.722 165.663 172.756 165.536 172.751Z" fill="black"/>
<path d="M193.606 170.567C193.505 170.565 193.407 170.542 193.316 170.498C193.225 170.455 193.145 170.392 193.08 170.314C191.767 168.648 190.572 167.835 189.389 167.889C188.818 167.987 188.274 168.206 187.792 168.532C187.31 168.858 186.901 169.284 186.592 169.781C186.497 169.928 186.35 170.033 186.181 170.073C186.012 170.113 185.834 170.084 185.685 169.994C185.61 169.949 185.545 169.889 185.494 169.818C185.443 169.747 185.406 169.666 185.386 169.58C185.367 169.494 185.364 169.405 185.38 169.318C185.395 169.231 185.427 169.148 185.475 169.074C185.893 168.395 186.453 167.816 187.116 167.381C187.779 166.946 188.528 166.664 189.311 166.556C190.992 166.463 192.581 167.462 194.118 169.501C194.224 169.641 194.271 169.817 194.249 169.992C194.227 170.167 194.137 170.326 194 170.433C193.887 170.521 193.748 170.568 193.606 170.567Z" fill="black"/>
<path d="M208.752 135.418C202.999 128.756 196.93 129.156 193.305 130.595C188.392 122.201 172.157 115.539 151.271 123.627C126.865 133.06 129.768 158.415 130.937 163.131C132.106 167.848 140.237 180.226 145.465 180.812C145.465 180.812 150.115 176.682 150.115 172.565C150.115 168.448 161.162 160.187 172.196 156.643C179.145 154.418 186.776 150.327 191.19 145.104C191.108 148.534 191.978 151.918 193.699 154.871C197.193 160.2 202.421 163.131 202.421 164.904C202.421 166.676 205.324 173.151 207.675 173.151C210.026 173.151 210 163.718 210.578 159.587C211.156 155.457 216.883 144.851 208.752 135.418Z" fill="black"/>
<path d="M145.399 181.479H145.321C139.607 180.826 131.41 168.036 130.228 163.292C130.162 162.999 123.739 133.54 150.982 123.015C171.092 115.233 187.761 120.656 193.58 129.783C196.549 128.77 203.038 127.784 209.238 134.979C216.029 142.854 213.455 151.501 211.865 156.684C211.544 157.665 211.285 158.667 211.09 159.682C210.946 160.681 210.841 162.027 210.722 163.439C210.223 169.714 209.724 173.818 207.53 173.818C204.641 173.818 201.646 166.783 201.646 164.905C201.646 164.345 200.332 163.092 199.019 161.893C196.769 159.93 194.766 157.692 193.055 155.231C191.476 152.673 190.571 149.746 190.428 146.731C186.251 151.034 179.591 154.912 172.222 157.27C161.083 160.841 150.601 168.902 150.601 172.552C150.601 176.923 145.925 181.12 145.728 181.306C145.637 181.395 145.523 181.455 145.399 181.479ZM169.49 120.656C163.308 120.732 157.192 121.951 151.442 124.254C125.263 134.38 131.436 162.679 131.502 162.973C132.658 167.663 140.382 179.148 145.189 180.107C146.082 179.254 149.393 175.843 149.393 172.566C149.393 167.942 160.768 159.588 171.933 156.004C179.749 153.513 186.737 149.262 190.625 144.666C190.715 144.563 190.833 144.49 190.964 144.457C191.096 144.423 191.234 144.431 191.361 144.479C191.485 144.528 191.592 144.614 191.667 144.726C191.742 144.838 191.782 144.97 191.781 145.105C191.698 148.407 192.531 151.667 194.185 154.512C195.839 156.877 197.776 159.025 199.951 160.907C201.79 162.626 203.012 163.759 203.012 164.905C203.012 166.623 205.849 172.486 207.583 172.486C208.739 172.486 209.251 166.077 209.474 163.332C209.58 161.893 209.698 160.534 209.842 159.495C210.043 158.412 210.315 157.344 210.657 156.297C212.207 151.074 214.597 143.173 208.253 135.859C202.421 129.104 196.536 130.05 193.541 131.222C193.395 131.278 193.234 131.279 193.087 131.225C192.94 131.171 192.817 131.066 192.74 130.929C189.653 125.679 181.259 120.656 169.49 120.656Z" fill="black"/>
<path d="M140.511 166.088H140.393C140.223 166.056 140.072 165.956 139.974 165.812C139.875 165.667 139.837 165.489 139.868 165.315C140.249 163.25 141.681 161.492 144.255 159.906C144.405 159.82 144.582 159.796 144.748 159.841C144.915 159.885 145.057 159.995 145.145 160.145C145.233 160.295 145.259 160.474 145.218 160.644C145.177 160.814 145.072 160.96 144.925 161.052C142.705 162.384 141.47 163.89 141.155 165.569C141.124 165.718 141.043 165.851 140.926 165.946C140.808 166.041 140.662 166.091 140.511 166.088Z" fill="white"/>
<path d="M148.828 159.095C148.695 159.095 148.565 159.054 148.455 158.978C148.345 158.902 148.26 158.794 148.21 158.669C148.151 158.505 148.157 158.323 148.228 158.163C148.3 158.004 148.43 157.879 148.591 157.816C153.15 156.177 157.81 154.841 162.541 153.819C166.062 152.993 169.398 152.194 172.17 151.301C182.573 147.944 188.405 138.75 188.471 138.67C188.515 138.594 188.574 138.528 188.644 138.476C188.715 138.424 188.794 138.387 188.879 138.367C188.964 138.347 189.052 138.345 189.137 138.36C189.223 138.376 189.304 138.409 189.377 138.457C189.523 138.553 189.626 138.703 189.663 138.875C189.7 139.048 189.668 139.228 189.574 139.376C185.43 145.525 179.442 150.156 172.498 152.58C169.687 153.486 166.324 154.286 162.778 155.125C158.107 156.111 153.505 157.401 148.999 158.989C148.947 159.032 148.889 159.068 148.828 159.095Z" fill="white"/>
<path d="M138.556 147.21C138.424 147.211 138.295 147.169 138.188 147.09C138.044 146.992 137.944 146.841 137.91 146.669C137.875 146.497 137.909 146.318 138.004 146.171C139.318 144.105 142.864 144.252 148.158 144.465C152.451 144.709 156.755 144.682 161.044 144.385C172.984 143.413 183.65 136.125 183.755 136.045C183.9 135.948 184.077 135.914 184.246 135.949C184.416 135.984 184.565 136.085 184.662 136.231C184.711 136.302 184.746 136.383 184.764 136.468C184.782 136.554 184.784 136.642 184.768 136.727C184.752 136.813 184.719 136.895 184.671 136.967C184.624 137.04 184.563 137.102 184.491 137.15C184.044 137.457 173.431 144.718 161.149 145.718C156.807 146.022 152.451 146.048 148.106 145.798C143.429 145.611 140.053 145.465 139.095 146.917C139.036 147.007 138.956 147.081 138.862 147.132C138.768 147.184 138.663 147.21 138.556 147.21Z" fill="white"/>
<path d="M209.121 154.164C209.034 154.161 208.95 154.14 208.871 154.103C208.793 154.067 208.722 154.015 208.664 153.95C208.605 153.886 208.56 153.81 208.53 153.728C208.5 153.646 208.487 153.559 208.49 153.471C208.549 151.824 208.431 150.175 208.135 148.555C208.116 148.469 208.115 148.38 208.13 148.293C208.146 148.207 208.178 148.124 208.226 148.051C208.274 147.977 208.336 147.915 208.409 147.866C208.481 147.818 208.562 147.784 208.648 147.769C208.733 147.751 208.821 147.751 208.907 147.769C208.992 147.786 209.073 147.821 209.145 147.87C209.217 147.92 209.279 147.984 209.327 148.058C209.374 148.132 209.407 148.215 209.423 148.302C209.733 150.024 209.861 151.775 209.804 153.524C209.8 153.612 209.78 153.698 209.744 153.777C209.708 153.857 209.656 153.928 209.593 153.988C209.529 154.047 209.455 154.093 209.374 154.124C209.293 154.154 209.207 154.168 209.121 154.164Z" fill="white"/>
<path d="M208.042 146.423C207.905 146.424 207.771 146.38 207.66 146.299C207.549 146.218 207.466 146.102 207.425 145.97C206.576 143.599 205.216 141.451 203.443 139.683C201.67 137.915 199.53 136.571 197.179 135.751C197.011 135.701 196.869 135.587 196.783 135.432C196.697 135.278 196.674 135.096 196.719 134.924C196.743 134.84 196.783 134.762 196.837 134.694C196.891 134.626 196.958 134.569 197.034 134.527C197.109 134.485 197.192 134.458 197.278 134.449C197.364 134.439 197.451 134.447 197.533 134.471C200.097 135.332 202.432 136.775 204.361 138.692C206.289 140.609 207.76 142.948 208.659 145.53C208.688 145.613 208.701 145.701 208.696 145.789C208.691 145.877 208.669 145.963 208.631 146.043C208.593 146.122 208.54 146.193 208.475 146.251C208.41 146.31 208.334 146.354 208.252 146.383C208.185 146.409 208.114 146.423 208.042 146.423Z" fill="white"/>
<path d="M165.8 206.9C164.091 206.967 162.391 206.61 160.848 205.86C155.844 203.196 146.951 191.204 146.583 190.645C146.479 190.503 146.434 190.326 146.458 190.151C146.483 189.976 146.575 189.818 146.714 189.712C146.854 189.606 147.029 189.56 147.201 189.585C147.374 189.61 147.529 189.704 147.634 189.845C147.726 189.965 156.711 202.143 161.466 204.688C166.221 207.233 175.14 203.688 175.232 203.649C175.313 203.617 175.399 203.602 175.486 203.604C175.573 203.607 175.658 203.626 175.737 203.662C175.817 203.698 175.888 203.75 175.948 203.814C176.008 203.877 176.054 203.953 176.085 204.035C176.116 204.117 176.131 204.205 176.129 204.293C176.127 204.381 176.107 204.468 176.072 204.548C176.036 204.628 175.986 204.701 175.923 204.762C175.86 204.822 175.786 204.869 175.704 204.901C172.527 206.092 169.185 206.766 165.8 206.9Z" fill="black"/>
<path d="M178.724 204.383C178.724 205.595 177.253 206.594 175.453 206.594C173.654 206.594 172.182 205.595 172.182 204.383C172.182 203.17 173.641 202.171 175.453 202.171C177.266 202.171 178.724 203.157 178.724 204.383Z" fill="black"/>
<path d="M141.984 173.378C141.984 173.378 131.2 145.051 141.984 128.157C141.984 128.157 125.315 145.544 140.027 177.361L141.984 173.378Z" fill="#FEB707"/>
<path d="M149.459 182.559C150.445 189.221 148.658 194.976 145.453 195.469C142.248 195.962 138.885 190.966 137.887 184.317C136.889 177.669 138.701 171.9 141.893 171.407C145.085 170.914 148.527 175.91 149.459 182.559Z" fill="white"/>
<path d="M145.058 196.135C141.63 196.135 138.28 191.165 137.282 184.397C136.77 181.375 136.927 178.276 137.742 175.323C138.569 172.659 140.027 170.993 141.84 170.727C145.439 170.18 149.104 175.31 150.155 182.425C150.66 185.447 150.503 188.545 149.695 191.499C148.854 194.163 147.409 195.829 145.597 196.095C145.418 196.122 145.238 196.135 145.058 196.135ZM142.431 172.019C142.313 172.006 142.194 172.006 142.076 172.019C140.763 172.206 139.712 173.551 139.042 175.697C138.291 178.456 138.152 181.35 138.635 184.17C139.541 190.326 142.654 195.189 145.452 194.75C146.766 194.563 147.83 193.217 148.5 191.072C149.245 188.312 149.384 185.419 148.907 182.598C147.974 176.736 145.071 172.046 142.379 172.046L142.431 172.019Z" fill="black"/>
<path d="M143.665 195.269C146.506 194.836 148.01 189.099 147.026 182.455C146.041 175.812 142.94 170.777 140.099 171.21C137.258 171.644 135.753 177.381 136.738 184.024C137.723 190.668 140.824 195.703 143.665 195.269Z" fill="white"/>
<path d="M143.298 195.975C141.8 195.975 140.263 194.816 138.937 192.671C137.431 190.051 136.457 187.151 136.073 184.144C135.009 177.015 136.743 171.06 140.014 170.567C143.284 170.074 146.581 175.257 147.698 182.372C148.196 185.362 148.107 188.423 147.435 191.378C146.726 194.043 145.425 195.695 143.77 195.949L143.298 195.975ZM140.408 171.859H140.184C138.056 172.179 136.375 177.189 137.373 183.851C137.723 186.664 138.616 189.381 140.001 191.845C141.156 193.697 142.417 194.669 143.508 194.51C144.598 194.35 145.544 193.031 146.135 190.912C146.764 188.136 146.845 185.26 146.371 182.452C145.412 176.149 142.523 171.859 140.408 171.859Z" fill="black"/>
<path d="M248.856 229.738L264.001 351.184L233.75 350.584L248.856 229.738Z" fill="#F6462D"/>
<path d="M263.999 351.851L233.787 351.251C233.695 351.25 233.604 351.229 233.521 351.19C233.437 351.151 233.362 351.095 233.301 351.025C233.243 350.953 233.2 350.87 233.175 350.78C233.15 350.691 233.144 350.597 233.157 350.505L248.25 229.658C248.269 229.496 248.347 229.346 248.468 229.238C248.589 229.13 248.745 229.071 248.906 229.072C249.065 229.074 249.218 229.135 249.337 229.243C249.455 229.35 249.531 229.498 249.55 229.658L264.695 351.091C264.71 351.186 264.704 351.284 264.677 351.376C264.649 351.468 264.602 351.553 264.538 351.624C264.471 351.702 264.388 351.762 264.295 351.801C264.201 351.841 264.1 351.858 263.999 351.851ZM234.497 349.932L263.25 350.505L248.801 235.041L234.497 349.932Z" fill="black"/>
<path opacity="0.3" d="M257.102 295.97L241.353 305.563L241.616 287.616L233.747 350.584L263.999 351.184L261.516 331.345L248.315 331.784L260.032 319.433L259.94 318.62L243.836 324.216L258.403 306.323L257.102 295.97Z" fill="black"/>
<path d="M140.632 193.922C140.632 193.922 145.098 192.336 146.07 194.082C147.042 195.827 148.172 203.408 148.146 204.488C148.119 205.567 147.752 206.553 145.729 205.82C143.706 205.087 140.474 198.412 140.474 198.412L140.632 193.922Z" fill="white"/>
<path d="M146.924 206.794C146.438 206.781 145.958 206.682 145.505 206.501C143.351 205.688 140.461 199.919 139.909 198.76C139.889 198.659 139.889 198.555 139.909 198.454L140.041 193.977C140.043 193.842 140.086 193.712 140.164 193.602C140.241 193.493 140.349 193.41 140.474 193.364C141.315 193.071 145.518 191.699 146.7 193.83C147.738 195.682 148.907 203.463 148.868 204.583C148.886 204.942 148.822 205.302 148.681 205.632C148.54 205.963 148.325 206.256 148.053 206.488C147.718 206.708 147.323 206.815 146.924 206.794ZM141.157 198.32C142.379 200.812 144.691 204.769 145.952 205.249C146.858 205.582 147.173 205.435 147.265 205.382C147.357 205.329 147.502 204.996 147.515 204.543C147.515 203.623 146.424 196.122 145.518 194.483C145.085 193.684 142.891 193.99 141.302 194.483L141.157 198.32Z" fill="black"/>
<path d="M121.187 218.686C121.187 218.686 125.325 191.705 125.417 188.774C125.509 185.843 129.357 183.445 131.196 182.725C133.035 182.006 143.544 182.352 144.66 182.392C145.777 182.432 150.269 182.192 150.23 183.724C150.19 185.257 149.796 185.91 146.039 186.522C142.283 187.135 133.298 187.615 133.298 187.615L130.947 191.212L142.099 193.371C142.099 193.371 144.726 194.543 144.253 196.369C143.78 198.194 142.48 206.202 142.453 207.294C142.427 208.387 141.271 209.093 138.605 210.852C137.013 211.896 135.223 212.59 133.35 212.89C133.35 212.89 133.561 218.393 132.037 219.072L128.241 220.791L127.715 252.275L110.573 250.303L121.187 218.686Z" fill="#FFD8BC"/>
<path d="M127.601 252.095H127.523L110.446 250.123C110.348 250.112 110.253 250.078 110.169 250.025C110.085 249.972 110.014 249.901 109.96 249.817C109.918 249.727 109.896 249.629 109.896 249.53C109.896 249.431 109.918 249.333 109.96 249.244L120.574 217.746C120.784 216.414 124.698 190.766 124.777 187.981C124.869 184.623 129.086 181.999 130.99 181.319C132.895 180.64 141.183 180.84 144.691 180.946H145.282C147.462 180.946 149.656 181.013 150.536 181.919C150.661 182.046 150.759 182.198 150.824 182.366C150.89 182.533 150.921 182.712 150.917 182.891C150.917 184.997 149.84 185.729 146.175 186.342C142.786 186.902 135.378 187.328 133.696 187.421L132.081 189.9L142.261 191.872H142.405C142.523 191.872 145.479 193.297 144.927 195.629C144.467 197.588 143.167 205.462 143.141 206.434C143.141 207.767 141.919 208.606 139.344 210.298L139.003 210.525C137.482 211.51 135.794 212.201 134.025 212.563C134.025 214.375 133.893 218.079 132.317 218.799L128.915 220.345L128.389 251.402C128.387 251.495 128.366 251.587 128.327 251.672C128.289 251.757 128.234 251.833 128.166 251.895C128.094 251.972 128.006 252.029 127.907 252.064C127.809 252.099 127.704 252.109 127.601 252.095ZM111.366 248.951L126.958 250.763L127.47 220.011C127.475 219.886 127.514 219.764 127.584 219.661C127.653 219.557 127.751 219.475 127.864 219.425L131.647 217.706C132.304 217.4 132.658 214.535 132.567 212.15C132.559 211.982 132.614 211.817 132.721 211.689C132.828 211.56 132.98 211.478 133.145 211.458C134.928 211.178 136.633 210.519 138.149 209.526L138.504 209.299C140.75 207.807 141.669 207.181 141.696 206.514C141.696 205.289 143.128 197.188 143.522 195.442C143.784 194.323 142.208 193.417 141.801 193.244L130.728 191.099C130.621 191.077 130.52 191.03 130.436 190.96C130.351 190.89 130.284 190.801 130.242 190.699C130.193 190.602 130.168 190.495 130.168 190.386C130.168 190.277 130.193 190.17 130.242 190.073L132.58 186.475C132.64 186.39 132.719 186.319 132.81 186.269C132.901 186.218 133.002 186.188 133.105 186.182C133.184 186.182 142.09 185.716 145.768 185.103C149.446 184.49 149.38 183.917 149.406 182.931C149.288 182.731 148.579 182.358 145.177 182.358H144.467C139.213 182.199 132.553 182.185 131.253 182.652C129.48 183.291 125.999 185.609 125.907 188.101C125.815 191.032 121.848 216.987 121.677 218.093C121.677 218.093 121.677 218.173 121.677 218.199L111.366 248.951Z" fill="black"/>
<path d="M143.259 197.775H143.141L129.611 195.31C129.437 195.278 129.282 195.178 129.181 195.03C129.08 194.883 129.041 194.701 129.073 194.524C129.104 194.347 129.203 194.191 129.349 194.088C129.494 193.986 129.673 193.946 129.848 193.978L143.377 196.456C143.551 196.472 143.712 196.557 143.824 196.693C143.936 196.83 143.991 197.005 143.975 197.182C143.959 197.359 143.875 197.522 143.741 197.636C143.606 197.749 143.433 197.804 143.259 197.788V197.775Z" fill="black"/>
<path d="M141.722 203.929H141.578L130.439 201.184C130.265 201.144 130.113 201.034 130.019 200.881C129.924 200.727 129.893 200.542 129.933 200.365C129.973 200.188 130.081 200.035 130.232 199.939C130.384 199.842 130.567 199.811 130.741 199.852L141.893 202.597C141.977 202.615 142.057 202.651 142.127 202.702C142.197 202.753 142.256 202.818 142.3 202.893C142.344 202.967 142.373 203.051 142.384 203.137C142.396 203.224 142.389 203.312 142.366 203.396C142.338 203.548 142.258 203.684 142.14 203.782C142.022 203.879 141.874 203.932 141.722 203.929Z" fill="black"/>
<path d="M133.223 212.763C133.113 212.765 133.004 212.738 132.907 212.684C132.81 212.63 132.729 212.552 132.671 212.456C132.198 211.71 131.134 209.885 131.489 208.886C131.545 208.726 131.637 208.583 131.758 208.467C131.879 208.352 132.025 208.267 132.185 208.219C133.223 207.9 135.64 207.273 135.64 207.273L135.968 208.606C135.968 208.606 133.814 209.165 132.724 209.485C132.942 210.304 133.297 211.08 133.775 211.777C133.868 211.925 133.9 212.105 133.863 212.278C133.826 212.45 133.724 212.601 133.578 212.696C133.467 212.748 133.345 212.771 133.223 212.763Z" fill="black"/>
<path d="M112.008 233.266L130.529 240.355C130.529 240.355 117.63 322.482 114.53 328.931C111.43 335.38 104.179 342.868 94.827 343.774C85.4745 344.68 78.7097 334.447 78.4338 323.695C78.158 312.943 112.008 233.266 112.008 233.266Z" fill="#F6462D"/>
<path d="M93.6325 344.494C90.4016 344.462 87.2979 343.213 84.9236 340.99C80.6677 337.153 77.9092 330.544 77.7385 323.669C77.4495 312.944 110.026 236.212 111.405 232.948C111.474 232.791 111.6 232.668 111.757 232.604C111.913 232.539 112.088 232.538 112.246 232.601L130.767 239.676C130.909 239.727 131.028 239.827 131.105 239.959C131.182 240.09 131.211 240.245 131.187 240.396C130.662 243.753 118.235 322.71 115.109 329.159C111.773 336.087 104.207 343.482 94.8409 344.388C94.4469 344.481 94.0397 344.494 93.6325 344.494ZM112.364 234.12C109.29 241.395 78.7893 313.73 79.052 323.683C79.2097 330.145 81.7974 336.394 85.8037 339.991C86.9892 341.12 88.3969 341.981 89.9341 342.518C91.4714 343.056 93.1033 343.257 94.7227 343.109C103.576 342.256 110.748 335.221 113.94 328.639C116.843 322.63 128.678 247.897 129.808 240.782L112.364 234.12Z" fill="black"/>
<path opacity="0.3" d="M96.8115 301.092C92.2456 303.334 87.4892 305.153 82.6006 306.526C80.8302 311.406 79.4693 315.549 78.7241 318.519L87.507 317.583C93.7632 316.983 99.9482 315.774 105.976 313.97C105.976 313.97 91.3408 322.74 78.426 323.99L78.124 323.984C78.7669 334.099 85.0872 343.506 94.0354 342.826C103.444 342.117 110.837 334.768 114.044 328.398C115.634 325.259 119.967 303.947 123.964 283.068C115.565 290.03 106.463 296.072 96.8115 301.092Z" fill="black"/>
<path d="M266.713 293.519C258.761 293.519 250.987 291.161 244.375 286.743C237.763 282.324 232.609 276.045 229.566 268.698C226.523 261.351 225.726 253.266 227.278 245.467C228.829 237.667 232.659 230.503 238.282 224.879C243.905 219.256 251.07 215.427 258.869 213.875C266.669 212.324 274.753 213.12 282.1 216.163C289.447 219.207 295.727 224.36 300.145 230.972C304.563 237.585 306.921 245.358 306.921 253.311C306.909 263.971 302.669 274.191 295.131 281.728C287.593 289.266 277.373 293.506 266.713 293.519ZM266.713 213.498C258.839 213.498 251.142 215.833 244.595 220.208C238.047 224.582 232.945 230.8 229.931 238.075C226.918 245.35 226.13 253.355 227.666 261.078C229.202 268.801 232.994 275.895 238.562 281.463C244.129 287.031 251.223 290.822 258.946 292.358C266.669 293.895 274.674 293.106 281.949 290.093C289.224 287.08 295.442 281.977 299.816 275.43C304.191 268.882 306.526 261.185 306.526 253.311C306.516 242.755 302.318 232.634 294.854 225.17C287.39 217.706 277.269 213.508 266.713 213.498Z" fill="#2E353A"/>
<path d="M266.713 293.32C288.809 293.32 306.722 275.408 306.722 253.312C306.722 231.216 288.809 213.304 266.713 213.304C244.617 213.304 226.705 231.216 226.705 253.312C226.705 275.408 244.617 293.32 266.713 293.32Z" fill="#55268E"/>
<path d="M256.115 279.621C252.73 278.372 249.628 276.462 246.989 274.003C244.327 271.444 242.264 268.327 240.949 264.877C239.457 261.009 238.718 256.891 238.772 252.745C238.743 249.205 239.368 245.69 240.614 242.377C241.741 239.337 243.429 236.537 245.59 234.12C249.86 229.438 255.382 226.077 261.503 224.434C264.506 223.629 267.602 223.22 270.711 223.218C273.291 223.208 275.862 223.515 278.367 224.13C280.788 224.729 283.106 225.689 285.242 226.977C287.353 228.247 289.244 229.851 290.843 231.726C292.516 233.741 293.791 236.054 294.602 238.544C295.54 241.379 296.003 244.349 295.971 247.335C295.938 253.079 293.881 258.628 290.161 263.004C288.553 264.841 286.642 266.388 284.512 267.58C282.678 268.643 280.604 269.221 278.485 269.257C277.03 269.275 275.61 268.817 274.439 267.954C273.848 267.52 273.367 266.953 273.034 266.3C272.702 265.646 272.526 264.924 272.523 264.191C270.043 267.684 266.688 269.431 262.459 269.431C259.014 269.431 256.262 268.254 254.203 265.898C252.143 263.543 251.117 260.646 251.126 257.208C251.135 254.592 251.591 251.996 252.473 249.534C253.336 247.044 254.573 244.699 256.141 242.581C257.697 240.492 259.684 238.762 261.968 237.51C264.245 236.223 266.818 235.55 269.433 235.554C271.251 235.536 273.043 235.974 274.648 236.828C276.211 237.657 277.479 238.95 278.276 240.53L278.615 239.426C278.77 238.962 279.032 238.542 279.381 238.199C279.729 237.856 280.153 237.6 280.619 237.452C281.085 237.304 281.58 237.269 282.062 237.348C282.544 237.428 283.001 237.62 283.395 237.91C283.646 238.115 283.846 238.376 283.977 238.673C284.109 238.97 284.168 239.293 284.151 239.617C284.152 239.928 284.1 240.236 283.999 240.53L278.606 258.455C277.998 260.506 277.694 261.912 277.694 262.674C277.694 263.966 278.353 264.611 279.671 264.608C281.392 264.608 283.082 263.817 284.742 262.235C286.531 260.451 287.911 258.3 288.788 255.93C289.82 253.338 290.348 250.573 290.343 247.782C290.369 245.324 290.009 242.877 289.279 240.53C288.673 238.506 287.706 236.608 286.424 234.929C285.207 233.398 283.737 232.087 282.078 231.053C280.422 230.01 278.615 229.228 276.721 228.736C274.78 228.23 272.782 227.975 270.776 227.976C268.226 227.979 265.688 228.337 263.237 229.041C260.72 229.761 258.321 230.843 256.115 232.252C253.89 233.657 251.875 235.37 250.131 237.34C248.332 239.415 246.93 241.803 245.994 244.384C244.954 247.199 244.432 250.179 244.456 253.179C244.399 256.734 245.045 260.265 246.355 263.569C247.473 266.435 249.249 268.998 251.539 271.052C253.747 272.973 256.297 274.461 259.056 275.437C261.965 276.466 265.031 276.981 268.117 276.957C271.415 276.963 274.695 276.464 277.842 275.476C278.159 275.368 278.493 275.317 278.828 275.324C279.147 275.311 279.464 275.367 279.759 275.488C280.054 275.61 280.319 275.794 280.536 276.028C280.953 276.461 281.185 277.039 281.183 277.64C281.224 278.123 281.089 278.605 280.802 278.997C280.516 279.388 280.097 279.663 279.623 279.769C275.696 280.971 271.615 281.597 267.508 281.629C263.62 281.658 259.759 280.978 256.115 279.621ZM269.846 262.379C271.485 261.196 272.702 259.522 273.322 257.599L276.799 245.371L276.568 244.875C276.347 244.472 276.081 244.096 275.773 243.754C275.358 243.277 274.906 242.832 274.422 242.424C273.8 241.924 273.094 241.538 272.336 241.286C270.369 240.59 268.211 240.664 266.296 241.495C265.255 241.943 264.298 242.566 263.467 243.337C262.599 244.145 261.828 245.051 261.168 246.036C260.479 247.055 259.897 248.143 259.43 249.282C258.962 250.416 258.6 251.592 258.348 252.793C258.099 253.935 257.971 255.1 257.966 256.269C257.961 257.019 258.006 257.768 258.1 258.511C258.181 259.17 258.327 259.819 258.535 260.449C258.719 261.02 258.981 261.562 259.313 262.061C259.619 262.523 260.005 262.928 260.451 263.256C260.926 263.604 261.461 263.861 262.029 264.017C262.696 264.203 263.387 264.292 264.08 264.282C266.16 264.304 268.188 263.635 269.846 262.379Z" fill="white"/>
<path d="M313.248 93.1476H238.755C236.436 93.1476 234.557 94.9921 234.557 97.2674V125.839C234.557 128.114 236.436 129.959 238.755 129.959H313.248C315.566 129.959 317.446 128.114 317.446 125.839V97.2674C317.446 94.9921 315.566 93.1476 313.248 93.1476Z" fill="#E5CBFF"/>
<path d="M234.558 123.481V136.774L242.111 128.235" fill="#E5CBFF"/>
<path d="M313.257 93.1476H238.74C237.628 93.1476 236.561 93.581 235.775 94.3524C234.989 95.1239 234.547 96.1702 234.547 97.2612V136.773L240.585 129.928H313.257C314.369 129.928 315.436 129.494 316.222 128.723C317.008 127.951 317.45 126.905 317.45 125.814V97.2612C317.45 96.1702 317.008 95.1239 316.222 94.3524C315.436 93.581 314.369 93.1476 313.257 93.1476Z" fill="#E5CBFF"/>
<path opacity="0.1" d="M313.257 93.1476H238.74C237.628 93.1476 236.561 93.581 235.775 94.3524C234.989 95.1239 234.547 96.1702 234.547 97.2612V136.773L240.585 129.928H313.257C314.369 129.928 315.436 129.494 316.222 128.723C317.008 127.951 317.45 126.905 317.45 125.814V97.2612C317.45 96.1702 317.008 95.1239 316.222 94.3524C315.436 93.581 314.369 93.1476 313.257 93.1476Z" fill="#E5CBFF"/>
<path d="M298.359 115.204H244.835C244.439 115.204 244.059 115.05 243.779 114.776C243.498 114.502 243.34 114.13 243.338 113.742C243.338 113.352 243.496 112.978 243.776 112.703C244.057 112.428 244.438 112.273 244.835 112.273H298.359C298.555 112.273 298.75 112.311 298.932 112.385C299.113 112.458 299.278 112.567 299.417 112.703C299.556 112.839 299.667 113.001 299.742 113.179C299.817 113.358 299.856 113.549 299.856 113.742C299.854 114.13 299.696 114.502 299.415 114.776C299.135 115.05 298.755 115.204 298.359 115.204Z" fill="white"/>
<path d="M298.359 121.95H244.835C244.439 121.95 244.059 121.796 243.779 121.522C243.498 121.247 243.34 120.875 243.338 120.487C243.338 120.097 243.496 119.724 243.776 119.448C244.057 119.173 244.438 119.018 244.835 119.018H298.359C298.555 119.018 298.75 119.056 298.932 119.13C299.113 119.204 299.278 119.312 299.417 119.448C299.556 119.585 299.667 119.747 299.742 119.925C299.817 120.103 299.856 120.294 299.856 120.487C299.854 120.875 299.696 121.247 299.415 121.522C299.135 121.796 298.755 121.95 298.359 121.95Z" fill="white"/>
<path d="M247.821 108.458C250.791 108.458 253.199 106.095 253.199 103.181C253.199 100.266 250.791 97.9034 247.821 97.9034C244.851 97.9034 242.443 100.266 242.443 103.181C242.443 106.095 244.851 108.458 247.821 108.458Z" fill="white"/>
</g>
<circle cx="349.886" cy="58.7566" r="13.7378" transform="rotate(179.49 349.886 58.7566)" fill="#ECE5F3"/>
<circle cx="383.924" cy="35.6639" r="8.37669" transform="rotate(179.49 383.924 35.6639)" fill="#ECE5F3"/>
<defs>
<linearGradient id="paint0_linear_4486_3731" x1="176.582" y1="0.00245667" x2="176.582" y2="347.803" gradientUnits="userSpaceOnUse">
<stop stop-color="#D4B8F5"/>
<stop offset="0.151042" stop-color="#DBD2E8" stop-opacity="0.848958"/>
<stop offset="1" stop-color="#F5EDFF" stop-opacity="0"/>
</linearGradient>
<linearGradient id="paint1_linear_4486_3731" x1="81.1469" y1="173.564" x2="81.1469" y2="244.639" gradientUnits="userSpaceOnUse">
<stop stop-color="#F64A2D"/>
<stop offset="1" stop-color="#FFC637"/>
</linearGradient>
<linearGradient id="paint2_linear_4486_3731" x1="81.1385" y1="173.564" x2="81.1385" y2="217.01" gradientUnits="userSpaceOnUse">
<stop stop-color="#F64A2D"/>
<stop offset="1" stop-color="#FFC637"/>
</linearGradient>
<linearGradient id="paint3_linear_4486_3731" x1="48.0001" y1="205.268" x2="48.0001" y2="244.603" gradientUnits="userSpaceOnUse">
<stop stop-color="#F64A2D"/>
<stop offset="1" stop-color="#FFC637"/>
</linearGradient>
<linearGradient id="paint4_linear_4486_3731" x1="114.843" y1="204.683" x2="114.843" y2="244.606" gradientUnits="userSpaceOnUse">
<stop stop-color="#F64A2D"/>
<stop offset="1" stop-color="#FFC637"/>
</linearGradient>
</defs>
</svg>
