<svg width="60" height="60" viewBox="0 0 60 60" fill="none" xmlns="http://www.w3.org/2000/svg">
<path d="M8.53172 24.115C8.16758 25.4811 7.13224 25.3505 6.15191 25.3448C5.22868 25.3394 4.30517 25.3534 3.38217 25.3369C2.3483 25.3184 2.03158 24.9971 2.00999 23.9953C1.96193 21.7663 1.99905 21.7283 4.235 21.728C5.18713 21.7278 6.14201 21.6871 7.08998 21.75C7.45024 21.7738 7.98779 21.9483 8.1069 22.2087C8.37082 22.7855 8.78109 22.9784 9.31964 23.1526C9.59998 23.2433 9.8105 23.5498 10.1076 23.8063C11.338 21.9599 12.7641 20.1295 13.8514 18.1162C15.5192 15.028 17.9117 13.8844 21.4153 14.0091C27.5819 14.2287 33.7623 14.107 39.9362 14.052C42.3264 14.0307 44.0661 14.9307 45.335 16.9655C46.7976 19.3108 48.3797 21.5815 49.9204 23.9005C50.1134 23.6338 50.2307 23.287 50.4432 23.2129C51.0652 22.9958 51.6932 22.8918 51.8844 22.0835C51.925 21.912 52.4091 21.754 52.6927 21.7469C54.0768 21.7123 55.4622 21.7354 56.847 21.7289C57.5557 21.7255 57.8902 22.0686 57.9456 22.7723C58.1322 25.1416 57.952 25.3448 55.5626 25.3445C54.7836 25.3444 54.0043 25.3323 53.2256 25.3471C52.3847 25.3631 51.6325 25.27 51.4765 24.1517C51.2543 24.8177 50.9594 25.4131 51.4685 26.0427C52.2298 26.9841 52.979 27.9353 53.7269 28.8874C54.6141 30.0171 55.0275 31.2955 55.0146 32.7402C54.989 35.6252 55.0053 38.5105 55.0042 41.3958C55.0041 41.9111 55.1008 42.4621 54.3474 42.5954C54.2478 42.6131 54.1626 42.9753 54.152 43.1821C54.1238 43.7289 54.1449 44.2781 54.1377 44.8262C54.1297 45.4393 53.8331 45.837 53.2048 45.8425C51.0126 45.8619 48.8199 45.8668 46.6278 45.8427C45.9627 45.8354 45.6664 45.3746 45.6487 44.7485C45.6293 44.0587 45.6443 43.3679 45.6443 42.6094C35.2042 42.6094 24.8334 42.6094 14.3216 42.6094C14.3216 43.2464 14.34 43.9 14.3174 44.5522C14.2825 45.5534 13.9937 45.8573 13.0175 45.8661C11.0557 45.8838 9.09354 45.8857 7.13174 45.8675C6.10419 45.858 5.79634 45.5236 5.78076 44.5107C5.77543 44.1646 5.78287 43.8183 5.77956 43.4721C5.7754 43.0389 5.92191 42.5589 5.24246 42.4186C5.10147 42.3895 4.9691 41.9331 4.96755 41.6729C4.94896 38.5281 4.93675 35.383 4.96541 32.2384C4.97649 31.0227 5.43181 29.93 6.17769 28.9715C6.8858 28.0616 7.58339 27.1403 8.34439 26.2757C8.93041 25.6099 8.75952 24.933 8.53172 24.115ZM12.527 24.4941C24.2189 24.4941 35.7547 24.4941 47.4009 24.4941C47.2385 24.2359 47.1409 24.0703 47.0335 23.9114C45.7107 21.9544 44.3568 20.0174 43.0743 18.0343C42.3801 16.9608 41.4467 16.4387 40.2009 16.438C33.3968 16.4342 26.5926 16.4318 19.7885 16.444C18.844 16.4457 17.9106 16.6352 17.33 17.4672C15.7339 19.7543 14.1792 22.0704 12.527 24.4941ZM13.1438 36.4591C13.1438 36.4603 13.1438 36.4615 13.1438 36.4627C13.9499 36.4627 14.7563 36.4507 15.5621 36.4667C16.1725 36.4788 16.3822 36.1735 16.3372 35.6053C16.2528 34.5392 15.6936 33.7726 14.8058 33.2435C13.6143 32.5334 12.294 32.2646 10.9238 32.2781C9.6474 32.2907 8.77078 33.1831 8.78212 34.3829C8.7928 35.5127 9.68888 36.407 10.8984 36.4538C11.6458 36.4826 12.3953 36.4591 13.1438 36.4591ZM46.7581 36.4625C47.506 36.4625 48.254 36.4626 49.0019 36.4624C49.0594 36.4623 49.1171 36.4625 49.1744 36.4582C50.3205 36.3736 51.1668 35.4928 51.1773 34.3747C51.188 33.2247 50.3893 32.3431 49.2135 32.2869C47.8086 32.2198 46.463 32.5049 45.2363 33.2057C44.3158 33.7316 43.7134 34.4966 43.6522 35.6149C43.6209 36.1877 43.8153 36.4836 44.4282 36.4674C45.2043 36.447 45.9814 36.4625 46.7581 36.4625Z" fill="url(#paint0_linear_70530_7524)"/>
<defs>
<linearGradient id="paint0_linear_70530_7524" x1="-1.73333" y1="20.0573" x2="24.2672" y2="61.6807" gradientUnits="userSpaceOnUse">
<stop stop-color="white" stop-opacity="0.6"/>
<stop offset="1" stop-color="white"/>
</linearGradient>
</defs>
</svg>
