<svg width="48" height="48" viewBox="0 0 48 48" fill="none" xmlns="http://www.w3.org/2000/svg">
<path fill-rule="evenodd" clip-rule="evenodd" d="M6.75504 10.1648C6 11.2406 6 14.4381 6 20.8334V23.9828C6 35.2588 14.4779 40.731 19.7971 43.0546C21.24 43.6848 21.9614 44 24 44C26.0386 44 26.76 43.6848 28.2028 43.0546C33.522 40.731 42 35.2588 42 23.9828V20.8334C42 14.4381 42 11.2406 41.245 10.1648C40.49 9.08908 37.4834 8.05992 31.4702 6.00158L30.3246 5.60944C27.19 4.53648 25.6228 4 24 4C22.3772 4 20.81 4.53648 17.6754 5.60944L16.5298 6.00158C10.5166 8.05992 7.51006 9.08908 6.75504 10.1648ZM30.119 20.999C30.6706 20.381 30.617 19.4328 29.999 18.8811C29.381 18.3293 28.4328 18.383 27.881 19.001L21.8572 25.7478L20.119 23.801C19.5672 23.183 18.6189 23.1294 18.001 23.681C17.383 24.2328 17.3293 25.181 17.8811 25.799L20.7382 28.999C21.0228 29.3178 21.4298 29.5 21.8572 29.5C22.2844 29.5 22.6914 29.3178 22.976 28.999L30.119 20.999Z" fill="url(#paint0_linear_70562_8549)"/>
<defs>
<linearGradient id="paint0_linear_70562_8549" x1="3.6" y1="11.6" x2="39.2" y2="40.8" gradientUnits="userSpaceOnUse">
<stop stop-color="white" stop-opacity="0.6"/>
<stop offset="1" stop-color="white"/>
</linearGradient>
</defs>
</svg>
